AnekTamil-ExtraBold.ufo
<glyph name="C" format="2">
  <advance width="1052"/>
  <unicode hex="0043"/>
  <anchor x="566" y="0" name="bottom"/>
  <anchor x="566" y="1278" name="top"/>
  <outline>
    <contour>
      <point x="631" y="-29" type="curve" smooth="yes"/>
      <point x="776" y="-29"/>
      <point x="892" y="8"/>
      <point x="969" y="54" type="curve"/>
      <point x="995" y="365" type="line"/>
      <point x="918" y="325"/>
      <point x="831" y="292"/>
      <point x="719" y="292" type="curve" smooth="yes"/>
      <point x="518" y="292"/>
      <point x="438" y="391"/>
      <point x="438" y="557" type="curve" smooth="yes"/>
      <point x="438" y="728" type="line" smooth="yes"/>
      <point x="438" y="894"/>
      <point x="519" y="993"/>
      <point x="705" y="993" type="curve" smooth="yes"/>
      <point x="821" y="993"/>
      <point x="908" y="961"/>
      <point x="985" y="924" type="curve"/>
      <point x="959" y="1229" type="line"/>
      <point x="880" y="1274"/>
      <point x="770" y="1307"/>
      <point x="627" y="1307" type="curve" smooth="yes"/>
      <point x="253" y="1307"/>
      <point x="68" y="1104"/>
      <point x="68" y="744" type="curve" smooth="yes"/>
      <point x="68" y="542" type="line" smooth="yes"/>
      <point x="68" y="175"/>
      <point x="250" y="-29"/>
    </contour>
  </outline>
</glyph>
<glyph name="H" format="2">
  <advance width="1329"/>
  <unicode hex="0048"/>
  <anchor x="665" y="0" name="bottom"/>
  <anchor x="665" y="639" name="center"/>
  <anchor x="665" y="1278" name="top"/>
  <anchor x="20" y="1278" name="topleft"/>
  <outline>
    <contour>
      <point x="467" y="0" type="line"/>
      <point x="467" y="1278" type="line"/>
      <point x="104" y="1278" type="line"/>
      <point x="104" y="0" type="line"/>
    </contour>
    <contour>
      <point x="1225" y="0" type="line"/>
      <point x="1225" y="1278" type="line"/>
      <point x="862" y="1278" type="line"/>
      <point x="862" y="0" type="line"/>
    </contour>
    <contour>
      <point x="313" y="803" type="line"/>
      <point x="313" y="501" type="line"/>
      <point x="997" y="501" type="line"/>
      <point x="997" y="803" type="line"/>
    </contour>
  </outline>
</glyph>
<glyph name="v" format="2">
  <advance width="1074"/>
  <unicode hex="0076"/>
  <anchor x="537" y="0" name="bottom"/>
  <anchor x="537" y="985" name="top"/>
  <outline>
    <contour>
      <point x="552" y="230" type="line"/>
      <point x="528" y="230" type="line"/>
      <point x="377" y="985" type="line"/>
      <point x="11" y="985" type="line"/>
      <point x="256" y="0" type="line"/>
      <point x="821" y="0" type="line"/>
      <point x="1063" y="985" type="line"/>
      <point x="701" y="985" type="line"/>
    </contour>
  </outline>
</glyph>
<glyph name="copyright" format="2">
  <advance width="1435"/>
  <unicode hex="00A9"/>
  <outline>
    <contour>
      <point x="717" y="-33" type="curve" smooth="yes"/>
      <point x="1139" y="-33"/>
      <point x="1367" y="191"/>
      <point x="1367" y="580" type="curve" smooth="yes"/>
      <point x="1367" y="705" type="line" smooth="yes"/>
      <point x="1367" y="1087"/>
      <point x="1139" y="1307"/>
      <point x="717" y="1307" type="curve" smooth="yes"/>
      <point x="295" y="1307"/>
      <point x="68" y="1087"/>
      <point x="68" y="705" type="curve" smooth="yes"/>
      <point x="68" y="580" type="line" smooth="yes"/>
      <point x="68" y="191"/>
      <point x="295" y="-33"/>
    </contour>
    <contour>
      <point x="760" y="305" type="curve" smooth="yes"/>
      <point x="835" y="305"/>
      <point x="902" y="321"/>
      <point x="948" y="344" type="curve"/>
      <point x="965" y="536" type="line"/>
      <point x="922" y="514"/>
      <point x="877" y="500"/>
      <point x="821" y="500" type="curve" smooth="yes"/>
      <point x="729" y="500"/>
      <point x="686" y="546"/>
      <point x="686" y="627" type="curve" smooth="yes"/>
      <point x="686" y="655" type="line" smooth="yes"/>
      <point x="686" y="734"/>
      <point x="723" y="779"/>
      <point x="815" y="779" type="curve" smooth="yes"/>
      <point x="872" y="779"/>
      <point x="918" y="763"/>
      <point x="959" y="742" type="curve"/>
      <point x="941" y="931" type="line"/>
      <point x="897" y="954"/>
      <point x="833" y="969"/>
      <point x="759" y="969" type="curve" smooth="yes"/>
      <point x="552" y="969"/>
      <point x="454" y="854"/>
      <point x="454" y="658" type="curve" smooth="yes"/>
      <point x="454" y="620" type="line" smooth="yes"/>
      <point x="454" y="421"/>
      <point x="551" y="305"/>
    </contour>
    <contour>
      <point x="717" y="157" type="curve" smooth="yes"/>
      <point x="443" y="157"/>
      <point x="294" y="310"/>
      <point x="294" y="574" type="curve" smooth="yes"/>
      <point x="294" y="712" type="line" smooth="yes"/>
      <point x="294" y="969"/>
      <point x="443" y="1117"/>
      <point x="717" y="1117" type="curve" smooth="yes"/>
      <point x="991" y="1117"/>
      <point x="1141" y="969"/>
      <point x="1141" y="712" type="curve" smooth="yes"/>
      <point x="1141" y="574" type="line" smooth="yes"/>
      <point x="1141" y="310"/>
      <point x="991" y="157"/>
    </contour>
  </outline>
</glyph>
<glyph name="Eth" format="2">
  <advance width="1265"/>
  <unicode hex="00D0"/>
  <anchor x="612" y="0" name="bottom"/>
  <anchor x="633" y="639" name="center"/>
  <anchor x="612" y="1278" name="top"/>
  <outline>
    <contour>
      <point x="2" y="552" type="line"/>
      <point x="665" y="551" type="line"/>
      <point x="665" y="741" type="line"/>
      <point x="2" y="742" type="line"/>
    </contour>
    <component base="D"/>
  </outline>
</glyph>
<glyph name="dotaccentcomb" format="2">
  <unicode hex="0307"/>
  <anchor x="275" y="985" name="_top"/>
  <anchor x="275" y="1360" name="top"/>
  <outline>
    <contour>
      <point x="274" y="1057" type="curve" smooth="yes"/>
      <point x="393" y="1057"/>
      <point x="450" y="1118"/>
      <point x="450" y="1216" type="curve" smooth="yes"/>
      <point x="450" y="1223" type="line" smooth="yes"/>
      <point x="450" y="1322"/>
      <point x="393" y="1385"/>
      <point x="274" y="1385" type="curve" smooth="yes"/>
      <point x="157" y="1385"/>
      <point x="100" y="1322"/>
      <point x="100" y="1223" type="curve" smooth="yes"/>
      <point x="100" y="1216" type="line" smooth="yes"/>
      <point x="100" y="1118"/>
      <point x="157" y="1057"/>
    </contour>
  </outline>
</glyph>
<glyph name="VowelA.tm" format="2">
  <advance width="2346"/>
  <unicode hex="0B85"/>
  <note>
vowelA.tm
</note>
  <outline>
    <contour>
      <point x="1108" y="1222" type="curve" smooth="yes"/>
      <point x="700" y="1222"/>
      <point x="496" y="1004"/>
      <point x="496" y="656" type="curve" smooth="yes"/>
      <point x="496" y="574" type="line" smooth="yes"/>
      <point x="496" y="352"/>
      <point x="631" y="205"/>
      <point x="904" y="205" type="curve" smooth="yes"/>
      <point x="1169" y="205"/>
      <point x="1280" y="340"/>
      <point x="1280" y="541" type="curve" smooth="yes"/>
      <point x="1280" y="614" type="line" smooth="yes"/>
      <point x="1280" y="803"/>
      <point x="1198" y="909"/>
      <point x="1023" y="909" type="curve" smooth="yes"/>
      <point x="881" y="909"/>
      <point x="809" y="826"/>
      <point x="791" y="718" type="curve"/>
      <point x="773" y="718" type="line"/>
      <point x="785" y="614" type="line"/>
      <point x="801" y="655"/>
      <point x="841" y="685"/>
      <point x="893" y="685" type="curve" smooth="yes"/>
      <point x="954" y="685"/>
      <point x="981" y="652"/>
      <point x="981" y="585" type="curve" smooth="yes"/>
      <point x="981" y="545" type="line" smooth="yes"/>
      <point x="981" y="478"/>
      <point x="954" y="441"/>
      <point x="894" y="441" type="curve" smooth="yes"/>
      <point x="822" y="441"/>
      <point x="794" y="488"/>
      <point x="794" y="565" type="curve"/>
      <point x="794" y="718" type="line"/>
      <point x="782" y="718" type="line"/>
      <point x="789" y="863"/>
      <point x="879" y="977"/>
      <point x="1105" y="977" type="curve" smooth="yes"/>
      <point x="1348" y="977"/>
      <point x="1433" y="867"/>
      <point x="1433" y="663" type="curve" smooth="yes"/>
      <point x="1433" y="560" type="line" smooth="yes"/>
      <point x="1433" y="251"/>
      <point x="1260" y="127"/>
      <point x="910" y="127" type="curve" smooth="yes"/>
      <point x="907" y="127" type="line" smooth="yes"/>
      <point x="589" y="127"/>
      <point x="365" y="260"/>
      <point x="365" y="475" type="curve" smooth="yes"/>
      <point x="365" y="477" type="line" smooth="yes"/>
      <point x="365" y="478"/>
      <point x="365" y="480"/>
      <point x="365" y="482" type="curve"/>
      <point x="635" y="482" type="line"/>
      <point x="627" y="720" type="line"/>
      <point x="49" y="720" type="line"/>
      <point x="47" y="676"/>
      <point x="45" y="645"/>
      <point x="45" y="609" type="curve" smooth="yes"/>
      <point x="45" y="581" type="line" smooth="yes"/>
      <point x="45" y="100"/>
      <point x="388" y="-135"/>
      <point x="912" y="-135" type="curve" smooth="yes"/>
      <point x="918" y="-135" type="line" smooth="yes"/>
      <point x="1485" y="-135"/>
      <point x="1753" y="92"/>
      <point x="1753" y="566" type="curve" smooth="yes"/>
      <point x="1753" y="652" type="line" smooth="yes"/>
      <point x="1753" y="1010"/>
      <point x="1561" y="1222"/>
    </contour>
    <contour>
      <point x="1041" y="715" type="line"/>
      <point x="1041" y="471" type="line"/>
      <point x="1488" y="471" type="line"/>
      <point x="1488" y="715" type="line"/>
    </contour>
    <contour>
      <point x="1535" y="720" type="line"/>
      <point x="1535" y="466" type="line"/>
      <point x="1893" y="466" type="line"/>
      <point x="1893" y="720" type="line"/>
    </contour>
    <contour>
      <point x="1881" y="1162" type="line"/>
      <point x="1881" y="-88" type="line"/>
      <point x="2216" y="-88" type="line"/>
      <point x="2216" y="1162" type="line"/>
    </contour>
  </outline>
</glyph>
<glyph name="VowelU.tm" format="2">
  <advance width="1888"/>
  <unicode hex="0B89"/>
  <note>
vowelU.tm
</note>
  <outline>
    <contour>
      <point x="754" y="1255" type="curve" smooth="yes"/>
      <point x="333" y="1255"/>
      <point x="109" y="1058"/>
      <point x="109" y="715" type="curve" smooth="yes"/>
      <point x="109" y="694" type="line" smooth="yes"/>
      <point x="109" y="485"/>
      <point x="229" y="341"/>
      <point x="513" y="341" type="curve" smooth="yes"/>
      <point x="788" y="341"/>
      <point x="886" y="479"/>
      <point x="886" y="655" type="curve" smooth="yes"/>
      <point x="886" y="677" type="line" smooth="yes"/>
      <point x="886" y="848"/>
      <point x="815" y="943"/>
      <point x="653" y="943" type="curve" smooth="yes"/>
      <point x="508" y="943"/>
      <point x="432" y="866"/>
      <point x="415" y="766" type="curve"/>
      <point x="397" y="766" type="line"/>
      <point x="410" y="663" type="line"/>
      <point x="426" y="703"/>
      <point x="465" y="733"/>
      <point x="513" y="733" type="curve" smooth="yes"/>
      <point x="570" y="733"/>
      <point x="595" y="704"/>
      <point x="595" y="646" type="curve" smooth="yes"/>
      <point x="595" y="623" type="line" smooth="yes"/>
      <point x="595" y="564"/>
      <point x="569" y="531"/>
      <point x="513" y="531" type="curve" smooth="yes"/>
      <point x="448" y="531"/>
      <point x="420" y="570"/>
      <point x="420" y="634" type="curve" smooth="yes"/>
      <point x="420" y="766" type="line"/>
      <point x="406" y="766" type="line"/>
      <point x="415" y="915"/>
      <point x="519" y="1007"/>
      <point x="745" y="1007" type="curve" smooth="yes"/>
      <point x="969" y="1007"/>
      <point x="1067" y="916"/>
      <point x="1067" y="768" type="curve" smooth="yes"/>
      <point x="1067" y="750" type="line" smooth="yes"/>
      <point x="1067" y="617"/>
      <point x="1018" y="543"/>
      <point x="840" y="528" type="curve" smooth="yes"/>
      <point x="291" y="483" type="line" smooth="yes"/>
      <point x="158" y="472"/>
      <point x="89" y="400"/>
      <point x="89" y="248" type="curve" smooth="yes"/>
      <point x="89" y="168"/>
      <point x="106" y="81"/>
      <point x="137" y="0" type="curve"/>
      <point x="1850" y="0" type="line"/>
      <point x="1888" y="244" type="line"/>
      <point x="378" y="244" type="line"/>
      <point x="377" y="252"/>
      <point x="376" y="257"/>
      <point x="376" y="262" type="curve" smooth="yes"/>
      <point x="376" y="276"/>
      <point x="381" y="281"/>
      <point x="397" y="282" type="curve" smooth="yes"/>
      <point x="874" y="308" type="line" smooth="yes"/>
      <point x="1263" y="329"/>
      <point x="1387" y="468"/>
      <point x="1387" y="748" type="curve" smooth="yes"/>
      <point x="1387" y="755" type="line" smooth="yes"/>
      <point x="1387" y="1070"/>
      <point x="1182" y="1255"/>
    </contour>
  </outline>
</glyph>
<glyph name="VowelE.tm" format="2">
  <advance width="1580"/>
  <unicode hex="0B8E"/>
  <note>
vowelE.tm
</note>
  <outline>
    <contour>
      <point x="801" y="890" type="line"/>
      <point x="1601" y="890" type="line"/>
      <point x="1573" y="1163" type="line"/>
      <point x="801" y="1163" type="line"/>
    </contour>
    <contour>
      <point x="1074" y="1088" type="line"/>
      <point x="1074" y="0" type="line"/>
      <point x="1408" y="0" type="line"/>
      <point x="1408" y="1088" type="line"/>
    </contour>
    <component base="VowelE_NonExporting" xOffset="14"/>
  </outline>
</glyph>
<glyph name="VowelEe.tm" format="2">
  <advance width="1587"/>
  <unicode hex="0B8F"/>
  <note>
vowelEe.tm
</note>
  <outline>
    <contour>
      <point x="1080" y="1087" type="line"/>
      <point x="1080" y="-67" type="line"/>
      <point x="600" y="-155" type="line"/>
      <point x="600" y="-421" type="line"/>
      <point x="1415" y="-307" type="line"/>
      <point x="1415" y="1087" type="line"/>
    </contour>
    <contour>
      <point x="809" y="890" type="line"/>
      <point x="1608" y="890" type="line"/>
      <point x="1579" y="1163" type="line"/>
      <point x="809" y="1163" type="line"/>
    </contour>
    <component base="VowelE_NonExporting" xOffset="14"/>
  </outline>
</glyph>
<glyph name="VowelOo.tm" format="2">
  <advance width="1928"/>
  <unicode hex="0B93"/>
  <note>
vowelOo.tm
</note>
  <outline>
    <contour>
      <point x="1864" y="292" type="line"/>
      <point x="1580" y="292" type="line"/>
      <point x="1355" y="155" type="line"/>
      <point x="1355" y="139" type="line"/>
      <point x="1233" y="132"/>
      <point x="1181" y="79"/>
      <point x="1169" y="-61" type="curve" smooth="yes"/>
      <point x="1166" y="-95" type="line" smooth="yes"/>
      <point x="1151" y="-264"/>
      <point x="1092" y="-330"/>
      <point x="941" y="-331" type="curve" smooth="yes"/>
      <point x="937" y="-331"/>
      <point x="935" y="-331"/>
      <point x="931" y="-331" type="curve"/>
      <point x="931" y="-319" type="line"/>
      <point x="809" y="-319" type="line"/>
      <point x="727" y="-306"/>
      <point x="683" y="-243"/>
      <point x="683" y="-150" type="curve" smooth="yes"/>
      <point x="683" y="-131" type="line" smooth="yes"/>
      <point x="683" y="-73"/>
      <point x="704" y="-46"/>
      <point x="748" y="-46" type="curve" smooth="yes"/>
      <point x="790" y="-46"/>
      <point x="809" y="-74"/>
      <point x="809" y="-133" type="curve" smooth="yes"/>
      <point x="809" y="-161" type="line" smooth="yes"/>
      <point x="809" y="-238"/>
      <point x="792" y="-304"/>
      <point x="761" y="-346" type="curve"/>
      <point x="931" y="-339" type="line"/>
      <point x="931" y="-321" type="line"/>
      <point x="1040" y="-295"/>
      <point x="1079" y="-223"/>
      <point x="1079" y="-99" type="curve" smooth="yes"/>
      <point x="1079" y="-93" type="line" smooth="yes"/>
      <point x="1079" y="86"/>
      <point x="983" y="180"/>
      <point x="757" y="180" type="curve" smooth="yes"/>
      <point x="522" y="180"/>
      <point x="398" y="71"/>
      <point x="398" y="-143" type="curve" smooth="yes"/>
      <point x="398" y="-154" type="line" smooth="yes"/>
      <point x="398" y="-411"/>
      <point x="577" y="-569"/>
      <point x="930" y="-569" type="curve" smooth="yes"/>
      <point x="1305" y="-569"/>
      <point x="1449" y="-414"/>
      <point x="1477" y="-106" type="curve" smooth="yes"/>
      <point x="1480" y="-73" type="line" smooth="yes"/>
      <point x="1487" y="2"/>
      <point x="1503" y="31"/>
      <point x="1576" y="31" type="curve" smooth="yes"/>
      <point x="1835" y="32" type="line"/>
    </contour>
    <contour>
      <point x="955" y="1280" type="curve" smooth="yes"/>
      <point x="377" y="1280"/>
      <point x="71" y="1019"/>
      <point x="71" y="573" type="curve" smooth="yes"/>
      <point x="71" y="542" type="line" smooth="yes"/>
      <point x="71" y="273"/>
      <point x="195" y="91"/>
      <point x="507" y="91" type="curve" smooth="yes"/>
      <point x="800" y="91"/>
      <point x="906" y="247"/>
      <point x="906" y="479" type="curve" smooth="yes"/>
      <point x="906" y="492" type="line" smooth="yes"/>
      <point x="906" y="710"/>
      <point x="822" y="824"/>
      <point x="641" y="824" type="curve" smooth="yes"/>
      <point x="486" y="824"/>
      <point x="404" y="737"/>
      <point x="386" y="621" type="curve"/>
      <point x="372" y="621" type="line"/>
      <point x="381" y="495" type="line"/>
      <point x="396" y="539"/>
      <point x="440" y="571"/>
      <point x="494" y="571" type="curve" smooth="yes"/>
      <point x="564" y="571"/>
      <point x="590" y="536"/>
      <point x="590" y="466" type="curve" smooth="yes"/>
      <point x="590" y="452" type="line" smooth="yes"/>
      <point x="590" y="386"/>
      <point x="567" y="345"/>
      <point x="498" y="345" type="curve" smooth="yes"/>
      <point x="418" y="345"/>
      <point x="390" y="390"/>
      <point x="390" y="474" type="curve"/>
      <point x="390" y="621" type="line"/>
      <point x="378" y="621" type="line"/>
      <point x="378" y="868"/>
      <point x="582" y="1005"/>
      <point x="950" y="1005" type="curve" smooth="yes"/>
      <point x="1360" y="1005"/>
      <point x="1503" y="863"/>
      <point x="1503" y="568" type="curve" smooth="yes"/>
      <point x="1503" y="507" type="line" smooth="yes"/>
      <point x="1503" y="407"/>
      <point x="1482" y="362"/>
      <point x="1414" y="362" type="curve" smooth="yes"/>
      <point x="1341" y="362"/>
      <point x="1315" y="417"/>
      <point x="1315" y="532" type="curve" smooth="yes"/>
      <point x="1315" y="622"/>
      <point x="1319" y="692"/>
      <point x="1329" y="783" type="curve"/>
      <point x="1026" y="783" type="line"/>
      <point x="1018" y="707"/>
      <point x="1009" y="619"/>
      <point x="1009" y="534" type="curve" smooth="yes"/>
      <point x="1009" y="284"/>
      <point x="1105" y="149"/>
      <point x="1384" y="149" type="curve" smooth="yes"/>
      <point x="1486" y="149"/>
      <point x="1573" y="168"/>
      <point x="1646" y="204" type="curve"/>
      <point x="1772" y="261"/>
      <point x="1822" y="373"/>
      <point x="1822" y="580" type="curve" smooth="yes"/>
      <point x="1822" y="589" type="line" smooth="yes"/>
      <point x="1822" y="1019"/>
      <point x="1569" y="1280"/>
    </contour>
  </outline>
</glyph>
<glyph name="Ka.tm" format="2">
  <advance width="1692"/>
  <unicode hex="0B95"/>
  <note>
Ka.tm
</note>
  <anchor x="930" y="1234" name="top"/>
  <outline>
    <contour>
      <point x="987" y="469" type="line"/>
      <point x="1167" y="469" type="line" smooth="yes"/>
      <point x="1261" y="469"/>
      <point x="1296" y="441"/>
      <point x="1296" y="362" type="curve" smooth="yes"/>
      <point x="1296" y="354" type="line" smooth="yes"/>
      <point x="1296" y="283"/>
      <point x="1269" y="246"/>
      <point x="1185" y="246" type="curve" smooth="yes"/>
      <point x="1122" y="246"/>
      <point x="1075" y="264"/>
      <point x="1035" y="288" type="curve"/>
      <point x="1031" y="267" type="line"/>
      <point x="1082" y="-8" type="line"/>
      <point x="1132" y="-20"/>
      <point x="1206" y="-26"/>
      <point x="1270" y="-26" type="curve" smooth="yes"/>
      <point x="1519" y="-26"/>
      <point x="1628" y="98"/>
      <point x="1628" y="343" type="curve" smooth="yes"/>
      <point x="1628" y="376" type="line" smooth="yes"/>
      <point x="1628" y="621"/>
      <point x="1518" y="732"/>
      <point x="1210" y="732" type="curve" smooth="yes"/>
      <point x="987" y="732" type="line"/>
    </contour>
    <component base="KaComponent_Nonexporting" xOffset="58"/>
    <component base="KaBeak_Nonexporting" xOffset="1130"/>
  </outline>
</glyph>
<glyph name="Ca.tm" format="2">
  <advance width="1426"/>
  <unicode hex="0B9A"/>
  <note>
Ca.tm
</note>
  <anchor x="930" y="1234" name="top"/>
  <outline>
    <contour>
      <point x="1013" y="485" type="line"/>
      <point x="1409" y="485" type="line"/>
      <point x="1377" y="752" type="line"/>
      <point x="1013" y="752" type="line"/>
    </contour>
    <component base="KaComponent_Nonexporting" xOffset="58"/>
    <component base="KaBeak_Nonexporting" xOffset="1034"/>
  </outline>
</glyph>
<glyph name="Nya.tm" format="2">
  <advance width="2635"/>
  <unicode hex="0B9E"/>
  <note>
Nya.tm
</note>
  <anchor x="1342" y="1234" name="top"/>
  <outline>
    <contour>
      <point x="1648" y="1088" type="line"/>
      <point x="1648" y="0" type="line"/>
      <point x="1983" y="0" type="line"/>
      <point x="1983" y="1088" type="line"/>
    </contour>
    <contour>
      <point x="2256" y="757" type="curve" smooth="yes"/>
      <point x="2099" y="757"/>
      <point x="2012" y="666"/>
      <point x="1993" y="541" type="curve"/>
      <point x="1947" y="541" type="line"/>
      <point x="1947" y="369" type="line"/>
      <point x="1969" y="369" type="line"/>
      <point x="1985" y="434"/>
      <point x="2036" y="479"/>
      <point x="2103" y="479" type="curve" smooth="yes"/>
      <point x="2189" y="479"/>
      <point x="2223" y="420"/>
      <point x="2223" y="290" type="curve" smooth="yes"/>
      <point x="2223" y="285" type="line" smooth="yes"/>
      <point x="2223" y="-93"/>
      <point x="2002" y="-285"/>
      <point x="1418" y="-285" type="curve" smooth="yes"/>
      <point x="1408" y="-285" type="line" smooth="yes"/>
      <point x="708" y="-285"/>
      <point x="456" y="5"/>
      <point x="456" y="605" type="curve" smooth="yes"/>
      <point x="456" y="855"/>
      <point x="474" y="991"/>
      <point x="510" y="1163" type="curve"/>
      <point x="167" y="1163" type="line"/>
      <point x="138" y="1030"/>
      <point x="116" y="862"/>
      <point x="116" y="598" type="curve" smooth="yes"/>
      <point x="116" y="-180"/>
      <point x="506" y="-574"/>
      <point x="1408" y="-574" type="curve" smooth="yes"/>
      <point x="1418" y="-574" type="line" smooth="yes"/>
      <point x="2220" y="-574"/>
      <point x="2561" y="-275"/>
      <point x="2561" y="289" type="curve" smooth="yes"/>
      <point x="2561" y="321" type="line" smooth="yes"/>
      <point x="2561" y="608"/>
      <point x="2473" y="757"/>
    </contour>
    <contour>
      <point x="2045" y="1163" type="line"/>
      <point x="1387" y="1163" type="line"/>
      <point x="1387" y="890" type="line"/>
      <point x="2045" y="890" type="line"/>
    </contour>
    <component base="VowelE_NonExporting" xOffset="587"/>
    <component base="RaBeak_Nonexporting" xOffset="1823"/>
  </outline>
</glyph>
<glyph name="Tta.tm" format="2">
  <advance width="1444"/>
  <unicode hex="0B9F"/>
  <note>
Tta.tm
</note>
  <anchor x="920" y="1234" name="top"/>
  <outline>
    <contour>
      <point x="469" y="1163" type="line"/>
      <point x="130" y="1163" type="line"/>
      <point x="130" y="0" type="line"/>
      <point x="1411" y="0" type="line"/>
      <point x="1444" y="275" type="line"/>
      <point x="468" y="275" type="line"/>
    </contour>
  </outline>
</glyph>
<glyph name="Ta.tm" format="2">
  <advance width="1671"/>
  <unicode hex="0BA4"/>
  <note>
Ta.tm
</note>
  <anchor x="935" y="1234" name="top"/>
  <outline>
    <contour>
      <point x="984" y="464" type="line"/>
      <point x="1067" y="464" type="line" smooth="yes"/>
      <point x="1218" y="464"/>
      <point x="1274" y="404"/>
      <point x="1274" y="248" type="curve" smooth="yes"/>
      <point x="1274" y="207" type="line" smooth="yes"/>
      <point x="1274" y="-43"/>
      <point x="1161" y="-138"/>
      <point x="866" y="-138" type="curve" smooth="yes"/>
      <point x="524" y="-138" type="line"/>
      <point x="565" y="-417" type="line"/>
      <point x="888" y="-417" type="line" smooth="yes"/>
      <point x="1428" y="-417"/>
      <point x="1607" y="-237"/>
      <point x="1607" y="213" type="curve" smooth="yes"/>
      <point x="1607" y="261" type="line" smooth="yes"/>
      <point x="1607" y="584"/>
      <point x="1460" y="732"/>
      <point x="1095" y="732" type="curve" smooth="yes"/>
      <point x="984" y="732" type="line"/>
    </contour>
    <component base="Tail_NonExporting" xOffset="-59"/>
    <component base="KaComponent_Nonexporting" xOffset="58"/>
    <component base="KaBeak_Nonexporting" xOffset="1140"/>
  </outline>
</glyph>
<glyph name="Nnna.tm" format="2">
  <advance width="2607"/>
  <unicode hex="0BA9"/>
  <note>
Nnna.tm
</note>
  <anchor x="1483" y="1234" name="top"/>
  <outline>
    <contour>
      <point x="2100" y="927" type="line"/>
      <point x="2100" y="0" type="line"/>
      <point x="2435" y="0" type="line"/>
      <point x="2435" y="924" type="line"/>
    </contour>
    <contour>
      <point x="2336" y="1163" type="line"/>
      <point x="1863" y="1163" type="line"/>
      <point x="1778" y="1163"/>
      <point x="1697" y="1163"/>
      <point x="1611" y="1163" type="curve"/>
      <point x="1538" y="895" type="line"/>
      <point x="1635" y="895"/>
      <point x="1729" y="895"/>
      <point x="1826" y="895" type="curve"/>
      <point x="2336" y="895" type="line"/>
    </contour>
    <contour>
      <point x="975" y="1204" type="curve" smooth="yes"/>
      <point x="384" y="1204"/>
      <point x="83" y="955"/>
      <point x="83" y="528" type="curve" smooth="yes"/>
      <point x="83" y="432" type="line" smooth="yes"/>
      <point x="83" y="160"/>
      <point x="212" y="-26"/>
      <point x="520" y="-26" type="curve" smooth="yes"/>
      <point x="814" y="-26"/>
      <point x="927" y="133"/>
      <point x="927" y="368" type="curve" smooth="yes"/>
      <point x="927" y="423" type="line" smooth="yes"/>
      <point x="927" y="641"/>
      <point x="843" y="757"/>
      <point x="662" y="757" type="curve" smooth="yes"/>
      <point x="502" y="757"/>
      <point x="418" y="662"/>
      <point x="405" y="548" type="curve"/>
      <point x="390" y="548" type="line"/>
      <point x="399" y="425" type="line"/>
      <point x="412" y="457"/>
      <point x="455" y="496"/>
      <point x="509" y="496" type="curve" smooth="yes"/>
      <point x="579" y="496"/>
      <point x="605" y="460"/>
      <point x="605" y="388" type="curve" smooth="yes"/>
      <point x="605" y="348" type="line" smooth="yes"/>
      <point x="605" y="279"/>
      <point x="581" y="236"/>
      <point x="514" y="236" type="curve" smooth="yes"/>
      <point x="436" y="236"/>
      <point x="408" y="282"/>
      <point x="408" y="367" type="curve"/>
      <point x="408" y="548" type="line"/>
      <point x="397" y="548" type="line"/>
      <point x="397" y="548"/>
      <point x="397" y="548"/>
      <point x="397" y="548" type="curve"/>
      <point x="405" y="800"/>
      <point x="588" y="928"/>
      <point x="983" y="928" type="curve" smooth="yes"/>
      <point x="1211" y="928"/>
      <point x="1349" y="897"/>
      <point x="1442" y="856" type="curve"/>
      <point x="1455" y="853" type="line"/>
      <point x="1557" y="810"/>
      <point x="1593" y="714"/>
      <point x="1593" y="556" type="curve" smooth="yes"/>
      <point x="1593" y="433" type="line" smooth="yes"/>
      <point x="1593" y="315"/>
      <point x="1568" y="254"/>
      <point x="1493" y="254" type="curve" smooth="yes"/>
      <point x="1417" y="254"/>
      <point x="1386" y="315"/>
      <point x="1386" y="432" type="curve" smooth="yes"/>
      <point x="1386" y="556" type="line" smooth="yes"/>
      <point x="1386" y="714"/>
      <point x="1423" y="810"/>
      <point x="1531" y="853" type="curve"/>
      <point x="1406" y="1033" type="line"/>
      <point x="1148" y="974"/>
      <point x="1054" y="773"/>
      <point x="1054" y="535" type="curve" smooth="yes"/>
      <point x="1054" y="425" type="line" smooth="yes"/>
      <point x="1054" y="155"/>
      <point x="1184" y="-26"/>
      <point x="1494" y="-26" type="curve" smooth="yes"/>
      <point x="1804" y="-26"/>
      <point x="1925" y="152"/>
      <point x="1925" y="425" type="curve" smooth="yes"/>
      <point x="1925" y="535" type="line" smooth="yes"/>
      <point x="1925" y="773"/>
      <point x="1837" y="947"/>
      <point x="1627" y="1044" type="curve"/>
      <point x="1625" y="1056" type="line"/>
      <point x="1500" y="1141"/>
      <point x="1297" y="1204"/>
    </contour>
    <component base="RaBeak_Nonexporting" xOffset="2058"/>
  </outline>
</glyph>
<glyph name="Pa.tm" format="2">
  <advance width="1502"/>
  <unicode hex="0BAA"/>
  <note>
Pa.tm
</note>
  <anchor x="749" y="1234" name="top"/>
  <outline>
    <contour>
      <point x="1030" y="1163" type="line"/>
      <point x="1030" y="282" type="line"/>
      <point x="628" y="282" type="line"/>
      <point x="628" y="0" type="line"/>
      <point x="1372" y="0" type="line"/>
      <point x="1372" y="1163" type="line"/>
    </contour>
    <contour>
      <point x="472" y="1163" type="line"/>
      <point x="130" y="1163" type="line"/>
      <point x="130" y="0" type="line"/>
      <point x="829" y="0" type="line"/>
      <point x="829" y="282" type="line"/>
      <point x="472" y="282" type="line"/>
    </contour>
  </outline>
</glyph>
<glyph name="Ma.tm" format="2">
  <advance width="1759"/>
  <unicode hex="0BAE"/>
  <note>
Ma.tm
</note>
  <anchor x="924" y="1234" name="top"/>
  <outline>
    <contour>
      <point x="130" y="1163" type="line"/>
      <point x="130" y="0" type="line"/>
      <point x="1054" y="0" type="line" smooth="yes"/>
      <point x="1505" y="0"/>
      <point x="1673" y="160"/>
      <point x="1673" y="549" type="curve" smooth="yes"/>
      <point x="1673" y="655" type="line" smooth="yes"/>
      <point x="1673" y="1002"/>
      <point x="1512" y="1163"/>
      <point x="1082" y="1163" type="curve" smooth="yes"/>
      <point x="731" y="1163" type="line"/>
      <point x="731" y="73" type="line"/>
      <point x="1066" y="73" type="line"/>
      <point x="1066" y="892" type="line"/>
      <point x="1103" y="892" type="line" smooth="yes"/>
      <point x="1284" y="892"/>
      <point x="1333" y="822"/>
      <point x="1333" y="660" type="curve" smooth="yes"/>
      <point x="1333" y="542" type="line" smooth="yes"/>
      <point x="1333" y="346"/>
      <point x="1287" y="273"/>
      <point x="1082" y="273" type="curve" smooth="yes"/>
      <point x="465" y="273" type="line"/>
      <point x="465" y="1163" type="line"/>
    </contour>
  </outline>
</glyph>
<glyph name="Ya.tm" format="2">
  <advance width="2038"/>
  <unicode hex="0BAF"/>
  <note>
Ya.tm
</note>
  <anchor x="888" y="1234" name="top"/>
  <outline>
    <contour>
      <point x="1566" y="1163" type="line"/>
      <point x="1566" y="282" type="line"/>
      <point x="1251" y="282" type="line"/>
      <point x="1251" y="0" type="line"/>
      <point x="1908" y="0" type="line"/>
      <point x="1908" y="1163" type="line"/>
    </contour>
    <contour>
      <point x="1380" y="0" type="line"/>
      <point x="1380" y="282" type="line"/>
      <point x="1059" y="282" type="line"/>
      <point x="1059" y="1163" type="line"/>
      <point x="717" y="1163" type="line"/>
      <point x="717" y="439" type="line" smooth="yes"/>
      <point x="717" y="312"/>
      <point x="677" y="260"/>
      <point x="590" y="260" type="curve" smooth="yes"/>
      <point x="511" y="260"/>
      <point x="461" y="307"/>
      <point x="461" y="425" type="curve" smooth="yes"/>
      <point x="461" y="1163" type="line"/>
      <point x="126" y="1163" type="line"/>
      <point x="126" y="420" type="line" smooth="yes"/>
      <point x="126" y="110"/>
      <point x="256" y="-24"/>
      <point x="500" y="-24" type="curve" smooth="yes"/>
      <point x="693" y="-24"/>
      <point x="794" y="58"/>
      <point x="818" y="199" type="curve"/>
      <point x="834" y="199" type="line"/>
      <point x="834" y="0" type="line"/>
    </contour>
  </outline>
</glyph>
<glyph name="La.tm" format="2">
  <advance width="2082"/>
  <unicode hex="0BB2"/>
  <note>
La.tm
</note>
  <anchor x="1206" y="1234" name="top"/>
  <outline>
    <contour>
      <point x="758" y="1198" type="curve" smooth="yes"/>
      <point x="311" y="1198"/>
      <point x="88" y="954"/>
      <point x="88" y="540" type="curve" smooth="yes"/>
      <point x="88" y="432" type="line" smooth="yes"/>
      <point x="88" y="160"/>
      <point x="217" y="-26"/>
      <point x="525" y="-26" type="curve" smooth="yes"/>
      <point x="819" y="-26"/>
      <point x="932" y="133"/>
      <point x="932" y="368" type="curve" smooth="yes"/>
      <point x="932" y="423" type="line" smooth="yes"/>
      <point x="932" y="641"/>
      <point x="848" y="757"/>
      <point x="667" y="757" type="curve" smooth="yes"/>
      <point x="507" y="757"/>
      <point x="423" y="662"/>
      <point x="410" y="548" type="curve"/>
      <point x="395" y="548" type="line"/>
      <point x="404" y="425" type="line"/>
      <point x="417" y="457"/>
      <point x="460" y="496"/>
      <point x="514" y="496" type="curve" smooth="yes"/>
      <point x="584" y="496"/>
      <point x="610" y="460"/>
      <point x="610" y="388" type="curve" smooth="yes"/>
      <point x="610" y="348" type="line" smooth="yes"/>
      <point x="610" y="279"/>
      <point x="586" y="236"/>
      <point x="519" y="236" type="curve" smooth="yes"/>
      <point x="441" y="236"/>
      <point x="413" y="282"/>
      <point x="413" y="367" type="curve"/>
      <point x="413" y="548" type="line"/>
      <point x="402" y="548" type="line"/>
      <point x="402" y="557"/>
      <point x="402" y="557"/>
      <point x="402" y="566" type="curve" smooth="yes"/>
      <point x="407" y="796"/>
      <point x="514" y="913"/>
      <point x="752" y="913" type="curve" smooth="yes"/>
      <point x="972" y="913"/>
      <point x="1069" y="805"/>
      <point x="1069" y="566" type="curve" smooth="yes"/>
      <point x="1069" y="460" type="line" smooth="yes"/>
      <point x="1069" y="145"/>
      <point x="1198" y="-26"/>
      <point x="1533" y="-26" type="curve" smooth="yes"/>
      <point x="1871" y="-26"/>
      <point x="1995" y="153"/>
      <point x="1995" y="484" type="curve" smooth="yes"/>
      <point x="1995" y="680" type="line" smooth="yes"/>
      <point x="1995" y="1018"/>
      <point x="1888" y="1198"/>
      <point x="1554" y="1198" type="curve" smooth="yes"/>
      <point x="1517" y="1198"/>
      <point x="1478" y="1194"/>
      <point x="1449" y="1187" type="curve"/>
      <point x="1406" y="905" type="line"/>
      <point x="1426" y="908"/>
      <point x="1449" y="911"/>
      <point x="1476" y="911" type="curve" smooth="yes"/>
      <point x="1612" y="911"/>
      <point x="1655" y="836"/>
      <point x="1655" y="669" type="curve" smooth="yes"/>
      <point x="1655" y="472" type="line" smooth="yes"/>
      <point x="1655" y="331"/>
      <point x="1628" y="257"/>
      <point x="1533" y="257" type="curve" smooth="yes"/>
      <point x="1436" y="257"/>
      <point x="1404" y="323"/>
      <point x="1404" y="463" type="curve" smooth="yes"/>
      <point x="1404" y="571" type="line" smooth="yes"/>
      <point x="1404" y="982"/>
      <point x="1227" y="1198"/>
    </contour>
  </outline>
</glyph>
<glyph name="Lla.tm" format="2">
  <advance width="2184"/>
  <unicode hex="0BB3"/>
  <note>
Lla.tm
</note>
  <anchor x="1263" y="1234" name="top"/>
  <outline>
    <contour>
      <point x="1677" y="1088" type="line"/>
      <point x="1677" y="0" type="line"/>
      <point x="2012" y="0" type="line"/>
      <point x="2012" y="1088" type="line"/>
    </contour>
    <contour>
      <point x="724" y="1198" type="curve" smooth="yes"/>
      <point x="298" y="1198"/>
      <point x="88" y="954"/>
      <point x="88" y="540" type="curve" smooth="yes"/>
      <point x="88" y="432" type="line" smooth="yes"/>
      <point x="88" y="160"/>
      <point x="217" y="-26"/>
      <point x="525" y="-26" type="curve" smooth="yes"/>
      <point x="819" y="-26"/>
      <point x="932" y="133"/>
      <point x="932" y="368" type="curve" smooth="yes"/>
      <point x="932" y="423" type="line" smooth="yes"/>
      <point x="932" y="641"/>
      <point x="848" y="757"/>
      <point x="667" y="757" type="curve" smooth="yes"/>
      <point x="507" y="757"/>
      <point x="423" y="662"/>
      <point x="410" y="548" type="curve"/>
      <point x="395" y="548" type="line"/>
      <point x="404" y="425" type="line"/>
      <point x="417" y="457"/>
      <point x="460" y="496"/>
      <point x="514" y="496" type="curve" smooth="yes"/>
      <point x="584" y="496"/>
      <point x="610" y="460"/>
      <point x="610" y="388" type="curve" smooth="yes"/>
      <point x="610" y="348" type="line" smooth="yes"/>
      <point x="610" y="279"/>
      <point x="586" y="236"/>
      <point x="519" y="236" type="curve" smooth="yes"/>
      <point x="441" y="236"/>
      <point x="413" y="282"/>
      <point x="413" y="367" type="curve"/>
      <point x="413" y="548" type="line"/>
      <point x="402" y="548" type="line"/>
      <point x="402" y="557"/>
      <point x="402" y="557"/>
      <point x="402" y="566" type="curve" smooth="yes"/>
      <point x="407" y="796"/>
      <point x="512" y="913"/>
      <point x="753" y="913" type="curve" smooth="yes"/>
      <point x="998" y="913"/>
      <point x="1096" y="786"/>
      <point x="1096" y="516" type="curve" smooth="yes"/>
      <point x="1096" y="0" type="line"/>
      <point x="1431" y="0" type="line"/>
      <point x="1431" y="890" type="line"/>
      <point x="1961" y="890" type="line"/>
      <point x="1961" y="1163" type="line"/>
      <point x="1212" y="1163" type="line"/>
      <point x="1212" y="908" type="line"/>
      <point x="1205" y="908" type="line"/>
      <point x="1154" y="1082"/>
      <point x="1011" y="1198"/>
    </contour>
    <component base="RaBeak_Nonexporting" xOffset="1635"/>
  </outline>
</glyph>
<glyph name="Va.tm" format="2">
  <advance width="2119"/>
  <unicode hex="0BB5"/>
  <note>
Va.tm
</note>
  <anchor x="1232" y="1234" name="top"/>
  <outline>
    <contour>
      <point x="1654" y="1163" type="line"/>
      <point x="1654" y="273" type="line"/>
      <point x="1335" y="273" type="line"/>
      <point x="1344" y="0" type="line"/>
      <point x="1989" y="0" type="line"/>
      <point x="1989" y="1163" type="line"/>
    </contour>
    <component base="Va_NonExporting" xOffset="9"/>
  </outline>
</glyph>
<glyph name="Ha.tm" format="2">
  <advance width="3254"/>
  <unicode hex="0BB9"/>
  <note>
Ha.tm
</note>
  <anchor x="1497" y="1234" name="top"/>
  <outline>
    <contour>
      <point x="1462" y="273" type="line"/>
      <point x="1462" y="0" type="line"/>
      <point x="1815" y="0" type="line"/>
      <point x="1815" y="273" type="line"/>
    </contour>
    <contour>
      <point x="1929" y="-138" type="line"/>
      <point x="483" y="-138" type="line"/>
      <point x="525" y="-417" type="line"/>
      <point x="1929" y="-417" type="line"/>
    </contour>
    <component base="Va_NonExporting" xOffset="1"/>
    <component base="Rra_Simple.tm" xOffset="1511"/>
    <component base="Tail_NonExporting" xOffset="-15"/>
  </outline>
</glyph>
<glyph name="MatraIDflt.tm" format="2">
  <advance width="1086"/>
  <unicode hex="0BBF"/>
  <note>
MatraIDflt.tm
</note>
  <outline>
    <contour>
      <point x="479" y="1786" type="curve" smooth="yes"/>
      <point x="163" y="1786"/>
      <point x="0" y="1614"/>
      <point x="0" y="1362" type="curve" smooth="yes"/>
      <point x="0" y="1358" type="line" smooth="yes"/>
      <point x="0" y="1289"/>
      <point x="16" y="1198"/>
      <point x="42" y="1150" type="curve"/>
      <point x="353" y="1150" type="line"/>
      <point x="336" y="1187"/>
      <point x="326" y="1247"/>
      <point x="326" y="1312" type="curve" smooth="yes"/>
      <point x="326" y="1316" type="line" smooth="yes"/>
      <point x="326" y="1446"/>
      <point x="372" y="1508"/>
      <point x="474" y="1508" type="curve" smooth="yes"/>
      <point x="585" y="1508"/>
      <point x="621" y="1440"/>
      <point x="621" y="1281" type="curve" smooth="yes"/>
      <point x="621" y="0" type="line"/>
      <point x="956" y="0" type="line"/>
      <point x="956" y="1264" type="line" smooth="yes"/>
      <point x="956" y="1621"/>
      <point x="820" y="1786"/>
    </contour>
  </outline>
</glyph>
<glyph name="MatraIiDflt.tm" format="2">
  <unicode hex="0BC0"/>
  <note>
MatraIiDflt.tm
</note>
  <outline>
    <contour>
      <point x="555" y="1944" type="curve" smooth="yes"/>
      <point x="164" y="1944"/>
      <point x="-20" y="1766"/>
      <point x="-20" y="1464" type="curve" smooth="yes"/>
      <point x="-20" y="1455" type="line" smooth="yes"/>
      <point x="-20" y="1338"/>
      <point x="21" y="1211"/>
      <point x="65" y="1150" type="curve"/>
      <point x="378" y="1150" type="line"/>
      <point x="330" y="1217"/>
      <point x="289" y="1333"/>
      <point x="289" y="1433" type="curve" smooth="yes"/>
      <point x="289" y="1443" type="line" smooth="yes"/>
      <point x="289" y="1612"/>
      <point x="376" y="1697"/>
      <point x="534" y="1703" type="curve"/>
      <point x="534" y="1691" type="line"/>
      <point x="563" y="1697"/>
      <point x="596" y="1701"/>
      <point x="630" y="1701" type="curve" smooth="yes"/>
      <point x="727" y="1701"/>
      <point x="760" y="1653"/>
      <point x="760" y="1569" type="curve" smooth="yes"/>
      <point x="760" y="1557" type="line" smooth="yes"/>
      <point x="760" y="1496"/>
      <point x="740" y="1461"/>
      <point x="695" y="1461" type="curve" smooth="yes"/>
      <point x="642" y="1461"/>
      <point x="622" y="1498"/>
      <point x="622" y="1565" type="curve" smooth="yes"/>
      <point x="622" y="1586" type="line" smooth="yes"/>
      <point x="622" y="1636"/>
      <point x="629" y="1672"/>
      <point x="647" y="1705" type="curve"/>
      <point x="534" y="1706" type="line"/>
      <point x="534" y="1696" type="line"/>
      <point x="436" y="1668"/>
      <point x="379" y="1613"/>
      <point x="379" y="1504" type="curve" smooth="yes"/>
      <point x="379" y="1500" type="line" smooth="yes"/>
      <point x="379" y="1346"/>
      <point x="475" y="1247"/>
      <point x="696" y="1247" type="curve" smooth="yes"/>
      <point x="929" y="1247"/>
      <point x="1041" y="1362"/>
      <point x="1041" y="1566" type="curve" smooth="yes"/>
      <point x="1041" y="1570" type="line" smooth="yes"/>
      <point x="1041" y="1798"/>
      <point x="891" y="1944"/>
    </contour>
  </outline>
</glyph>
<glyph name="MatraUDflt.tm" format="2">
  <advance width="1147"/>
  <unicode hex="0BC1"/>
  <note>
MatraUDflt.tm
</note>
  <outline>
    <contour>
      <point x="0" y="891" type="line"/>
      <point x="635" y="891" type="line"/>
      <point x="743" y="891"/>
      <point x="778" y="842"/>
      <point x="778" y="745" type="curve" smooth="yes"/>
      <point x="778" y="665" type="line" smooth="yes"/>
      <point x="778" y="584"/>
      <point x="756" y="539"/>
      <point x="697" y="539" type="curve" smooth="yes"/>
      <point x="632" y="539"/>
      <point x="610" y="586"/>
      <point x="610" y="673" type="curve" smooth="yes"/>
      <point x="610" y="754" type="line" smooth="yes"/>
      <point x="610" y="813"/>
      <point x="614" y="859"/>
      <point x="625" y="897" type="curve"/>
      <point x="590" y="894" type="line"/>
      <point x="312" y="851" type="line"/>
      <point x="304" y="816"/>
      <point x="302" y="767"/>
      <point x="302" y="721" type="curve" smooth="yes"/>
      <point x="302" y="659" type="line" smooth="yes"/>
      <point x="302" y="436"/>
      <point x="420" y="284"/>
      <point x="699" y="284" type="curve" smooth="yes"/>
      <point x="973" y="284"/>
      <point x="1094" y="430"/>
      <point x="1094" y="674" type="curve" smooth="yes"/>
      <point x="1094" y="733" type="line" smooth="yes"/>
      <point x="1094" y="1002"/>
      <point x="954" y="1163"/>
      <point x="585" y="1163" type="curve" smooth="yes"/>
      <point x="0" y="1163" type="line"/>
    </contour>
  </outline>
</glyph>
<glyph name="MatraUuDflt.tm" format="2">
  <advance width="1689"/>
  <unicode hex="0BC2"/>
  <note>
MatraUuDflt.tm
</note>
  <outline>
    <contour>
      <point x="0" y="1163" type="line"/>
      <point x="0" y="891" type="line"/>
      <point x="666" y="890" type="line"/>
      <point x="769" y="890"/>
      <point x="803" y="847"/>
      <point x="803" y="764" type="curve" smooth="yes"/>
      <point x="803" y="655" type="line" smooth="yes"/>
      <point x="803" y="585"/>
      <point x="781" y="546"/>
      <point x="722" y="546" type="curve" smooth="yes"/>
      <point x="658" y="546"/>
      <point x="636" y="598"/>
      <point x="636" y="694" type="curve" smooth="yes"/>
      <point x="636" y="766"/>
      <point x="636" y="835"/>
      <point x="644" y="900" type="curve"/>
      <point x="334" y="921" type="line"/>
      <point x="326" y="857"/>
      <point x="324" y="782"/>
      <point x="324" y="709" type="curve" smooth="yes"/>
      <point x="324" y="457"/>
      <point x="434" y="293"/>
      <point x="727" y="293" type="curve" smooth="yes"/>
      <point x="995" y="293"/>
      <point x="1113" y="433"/>
      <point x="1113" y="664" type="curve" smooth="yes"/>
      <point x="1113" y="753" type="line" smooth="yes"/>
      <point x="1113" y="1010"/>
      <point x="990" y="1149"/>
      <point x="677" y="1149" type="curve" smooth="yes"/>
      <point x="584" y="1149" type="line"/>
      <point x="480" y="1163" type="line"/>
    </contour>
    <contour>
      <point x="983" y="1560" type="curve" smooth="yes"/>
      <point x="614" y="1560"/>
      <point x="392" y="1364"/>
      <point x="351" y="1066" type="curve"/>
      <point x="663" y="1048" type="line"/>
      <point x="682" y="1200"/>
      <point x="783" y="1280"/>
      <point x="963" y="1280" type="curve" smooth="yes"/>
      <point x="1197" y="1280"/>
      <point x="1282" y="1119"/>
      <point x="1282" y="824" type="curve" smooth="yes"/>
      <point x="1282" y="629"/>
      <point x="1269" y="447"/>
      <point x="1247" y="259" type="curve"/>
      <point x="1584" y="260" type="line"/>
      <point x="1606" y="445"/>
      <point x="1617" y="629"/>
      <point x="1617" y="814" type="curve" smooth="yes"/>
      <point x="1617" y="1286"/>
      <point x="1437" y="1560"/>
    </contour>
  </outline>
</glyph>
<glyph name="MatraE.tm" format="2">
  <advance width="1902"/>
  <unicode hex="0BC6"/>
  <note>
MatraE.tm
</note>
  <outline>
    <contour>
      <point x="936" y="1425" type="curve" smooth="yes"/>
      <point x="389" y="1425"/>
      <point x="83" y="1152"/>
      <point x="83" y="656" type="curve" smooth="yes"/>
      <point x="83" y="621" type="line" smooth="yes"/>
      <point x="83" y="227"/>
      <point x="305" y="-22"/>
      <point x="772" y="-22" type="curve" smooth="yes"/>
      <point x="1168" y="-22"/>
      <point x="1312" y="154"/>
      <point x="1312" y="415" type="curve" smooth="yes"/>
      <point x="1312" y="454" type="line" smooth="yes"/>
      <point x="1312" y="710"/>
      <point x="1177" y="850"/>
      <point x="909" y="850" type="curve" smooth="yes"/>
      <point x="649" y="850"/>
      <point x="518" y="726"/>
      <point x="518" y="517" type="curve" smooth="yes"/>
      <point x="518" y="510" type="line" smooth="yes"/>
      <point x="518" y="376"/>
      <point x="576" y="283"/>
      <point x="696" y="246" type="curve"/>
      <point x="696" y="240" type="line"/>
      <point x="839" y="227" type="line"/>
      <point x="819" y="277"/>
      <point x="811" y="331"/>
      <point x="811" y="390" type="curve" smooth="yes"/>
      <point x="811" y="453" type="line" smooth="yes"/>
      <point x="811" y="533"/>
      <point x="839" y="577"/>
      <point x="899" y="577" type="curve" smooth="yes"/>
      <point x="963" y="577"/>
      <point x="983" y="530"/>
      <point x="983" y="455" type="curve" smooth="yes"/>
      <point x="983" y="400" type="line" smooth="yes"/>
      <point x="983" y="300"/>
      <point x="946" y="235"/>
      <point x="829" y="235" type="curve" smooth="yes"/>
      <point x="797" y="235"/>
      <point x="760" y="238"/>
      <point x="728" y="242" type="curve"/>
      <point x="696" y="246" type="line"/>
      <point x="696" y="237" type="line"/>
      <point x="497" y="260"/>
      <point x="415" y="401"/>
      <point x="415" y="603" type="curve" smooth="yes"/>
      <point x="415" y="654" type="line" smooth="yes"/>
      <point x="415" y="967"/>
      <point x="590" y="1139"/>
      <point x="931" y="1139" type="curve" smooth="yes"/>
      <point x="1296" y="1139"/>
      <point x="1448" y="974"/>
      <point x="1448" y="612" type="curve" smooth="yes"/>
      <point x="1448" y="0" type="line"/>
      <point x="1782" y="-1" type="line"/>
      <point x="1782" y="623" type="line" smooth="yes"/>
      <point x="1782" y="1146"/>
      <point x="1532" y="1425"/>
    </contour>
  </outline>
</glyph>
<glyph name="MatraEe.tm" format="2">
  <advance width="1009"/>
  <unicode hex="0BC7"/>
  <note>
MatraEe.tm
</note>
  <outline>
    <contour>
      <point x="549" y="1488" type="curve" smooth="yes"/>
      <point x="233" y="1488"/>
      <point x="97" y="1305"/>
      <point x="97" y="1018" type="curve" smooth="yes"/>
      <point x="97" y="448" type="line" smooth="yes"/>
      <point x="97" y="161"/>
      <point x="233" y="-22"/>
      <point x="549" y="-22" type="curve" smooth="yes"/>
      <point x="837" y="-22"/>
      <point x="945" y="127"/>
      <point x="945" y="350" type="curve" smooth="yes"/>
      <point x="945" y="412" type="line" smooth="yes"/>
      <point x="945" y="611"/>
      <point x="861" y="715"/>
      <point x="676" y="715" type="curve" smooth="yes"/>
      <point x="520" y="715"/>
      <point x="438" y="630"/>
      <point x="420" y="526" type="curve"/>
      <point x="404" y="526" type="line"/>
      <point x="414" y="403" type="line"/>
      <point x="429" y="440"/>
      <point x="475" y="468"/>
      <point x="530" y="468" type="curve" smooth="yes"/>
      <point x="600" y="468"/>
      <point x="628" y="438"/>
      <point x="628" y="381" type="curve" smooth="yes"/>
      <point x="628" y="322" type="line" smooth="yes"/>
      <point x="628" y="265"/>
      <point x="604" y="229"/>
      <point x="537" y="229" type="curve" smooth="yes"/>
      <point x="457" y="229"/>
      <point x="422" y="280"/>
      <point x="422" y="368" type="curve"/>
      <point x="422" y="526" type="line"/>
      <point x="411" y="526" type="line"/>
      <point x="411" y="945" type="line"/>
      <point x="422" y="945" type="line"/>
      <point x="422" y="1098" type="line"/>
      <point x="422" y="1186"/>
      <point x="457" y="1237"/>
      <point x="537" y="1237" type="curve" smooth="yes"/>
      <point x="604" y="1237"/>
      <point x="628" y="1201"/>
      <point x="628" y="1143" type="curve" smooth="yes"/>
      <point x="628" y="1084" type="line" smooth="yes"/>
      <point x="628" y="1027"/>
      <point x="600" y="999"/>
      <point x="530" y="999" type="curve" smooth="yes"/>
      <point x="475" y="999"/>
      <point x="429" y="1026"/>
      <point x="414" y="1063" type="curve"/>
      <point x="407" y="945" type="line"/>
      <point x="420" y="945" type="line"/>
      <point x="437" y="838"/>
      <point x="518" y="751"/>
      <point x="676" y="751" type="curve" smooth="yes"/>
      <point x="861" y="751"/>
      <point x="945" y="855"/>
      <point x="945" y="1054" type="curve" smooth="yes"/>
      <point x="945" y="1116" type="line" smooth="yes"/>
      <point x="945" y="1339"/>
      <point x="837" y="1488"/>
    </contour>
  </outline>
</glyph>
<glyph name="MatraAi.tm" format="2">
  <advance width="2564"/>
  <unicode hex="0BC8"/>
  <note>
MatraAi.tm
</note>
  <outline>
    <contour>
      <point x="2000" y="-16" type="line"/>
      <point x="2024" y="-20"/>
      <point x="2057" y="-22"/>
      <point x="2084" y="-22" type="curve" smooth="yes"/>
      <point x="2363" y="-22"/>
      <point x="2482" y="150"/>
      <point x="2482" y="475" type="curve" smooth="yes"/>
      <point x="2482" y="600" type="line" smooth="yes"/>
      <point x="2482" y="1004"/>
      <point x="2315" y="1201"/>
      <point x="1893" y="1201" type="curve" smooth="yes"/>
      <point x="1641" y="1201"/>
      <point x="1466" y="1132"/>
      <point x="1363" y="1048" type="curve"/>
      <point x="1521" y="849" type="line"/>
      <point x="1616" y="900"/>
      <point x="1732" y="929"/>
      <point x="1852" y="929" type="curve" smooth="yes"/>
      <point x="2063" y="929"/>
      <point x="2143" y="836"/>
      <point x="2143" y="594" type="curve" smooth="yes"/>
      <point x="2143" y="468" type="line" smooth="yes"/>
      <point x="2143" y="326"/>
      <point x="2110" y="247"/>
      <point x="2001" y="247" type="curve" smooth="yes"/>
      <point x="1986" y="247"/>
      <point x="1971" y="248"/>
      <point x="1959" y="250" type="curve"/>
    </contour>
    <contour>
      <point x="975" y="1204" type="curve" smooth="yes"/>
      <point x="384" y="1204"/>
      <point x="83" y="955"/>
      <point x="83" y="528" type="curve" smooth="yes"/>
      <point x="83" y="432" type="line" smooth="yes"/>
      <point x="83" y="160"/>
      <point x="212" y="-26"/>
      <point x="520" y="-26" type="curve" smooth="yes"/>
      <point x="814" y="-26"/>
      <point x="927" y="133"/>
      <point x="927" y="368" type="curve" smooth="yes"/>
      <point x="927" y="423" type="line" smooth="yes"/>
      <point x="927" y="641"/>
      <point x="843" y="757"/>
      <point x="662" y="757" type="curve" smooth="yes"/>
      <point x="502" y="757"/>
      <point x="418" y="662"/>
      <point x="405" y="548" type="curve"/>
      <point x="390" y="548" type="line"/>
      <point x="399" y="425" type="line"/>
      <point x="412" y="457"/>
      <point x="455" y="496"/>
      <point x="509" y="496" type="curve" smooth="yes"/>
      <point x="579" y="496"/>
      <point x="605" y="460"/>
      <point x="605" y="388" type="curve" smooth="yes"/>
      <point x="605" y="348" type="line" smooth="yes"/>
      <point x="605" y="279"/>
      <point x="581" y="236"/>
      <point x="514" y="236" type="curve" smooth="yes"/>
      <point x="436" y="236"/>
      <point x="408" y="282"/>
      <point x="408" y="367" type="curve"/>
      <point x="408" y="548" type="line"/>
      <point x="397" y="548" type="line"/>
      <point x="397" y="548"/>
      <point x="397" y="548"/>
      <point x="397" y="548" type="curve"/>
      <point x="405" y="800"/>
      <point x="588" y="928"/>
      <point x="983" y="928" type="curve" smooth="yes"/>
      <point x="1211" y="928"/>
      <point x="1349" y="897"/>
      <point x="1442" y="856" type="curve"/>
      <point x="1455" y="853" type="line"/>
      <point x="1557" y="810"/>
      <point x="1593" y="714"/>
      <point x="1593" y="556" type="curve" smooth="yes"/>
      <point x="1593" y="433" type="line" smooth="yes"/>
      <point x="1593" y="315"/>
      <point x="1568" y="254"/>
      <point x="1493" y="254" type="curve" smooth="yes"/>
      <point x="1417" y="254"/>
      <point x="1386" y="315"/>
      <point x="1386" y="432" type="curve" smooth="yes"/>
      <point x="1386" y="556" type="line" smooth="yes"/>
      <point x="1386" y="714"/>
      <point x="1423" y="810"/>
      <point x="1531" y="853" type="curve"/>
      <point x="1397" y="1033" type="line"/>
      <point x="1146" y="974"/>
      <point x="1054" y="773"/>
      <point x="1054" y="535" type="curve" smooth="yes"/>
      <point x="1054" y="425" type="line" smooth="yes"/>
      <point x="1054" y="155"/>
      <point x="1184" y="-26"/>
      <point x="1494" y="-26" type="curve" smooth="yes"/>
      <point x="1804" y="-26"/>
      <point x="1925" y="152"/>
      <point x="1925" y="425" type="curve" smooth="yes"/>
      <point x="1925" y="535" type="line" smooth="yes"/>
      <point x="1925" y="773"/>
      <point x="1837" y="947"/>
      <point x="1627" y="1044" type="curve"/>
      <point x="1625" y="1056" type="line"/>
      <point x="1500" y="1141"/>
      <point x="1296" y="1204"/>
    </contour>
  </outline>
</glyph>
<glyph name="PulliDflt.tm" format="2">
  <unicode hex="0BCD"/>
  <note>
PulliDflt.tm
</note>
  <anchor x="185" y="1235" name="_top"/>
  <outline>
    <contour>
      <point x="185" y="1279" type="curve" smooth="yes"/>
      <point x="315" y="1279"/>
      <point x="371" y="1346"/>
      <point x="371" y="1463" type="curve" smooth="yes"/>
      <point x="371" y="1473" type="line" smooth="yes"/>
      <point x="371" y="1588"/>
      <point x="313" y="1654"/>
      <point x="185" y="1654" type="curve" smooth="yes"/>
      <point x="58" y="1654"/>
      <point x="0" y="1588"/>
      <point x="0" y="1473" type="curve" smooth="yes"/>
      <point x="0" y="1463" type="line" smooth="yes"/>
      <point x="0" y="1346"/>
      <point x="56" y="1279"/>
    </contour>
  </outline>
</glyph>
<glyph name="Om.tm" format="2">
  <advance width="2342"/>
  <unicode hex="0BD0"/>
  <note>
Om.tm
</note>
  <outline>
    <contour>
      <point x="1159" y="1389" type="curve" smooth="yes"/>
      <point x="452" y="1389"/>
      <point x="71" y="1092"/>
      <point x="71" y="583" type="curve" smooth="yes"/>
      <point x="71" y="527" type="line" smooth="yes"/>
      <point x="71" y="264"/>
      <point x="195" y="87"/>
      <point x="507" y="87" type="curve" smooth="yes"/>
      <point x="797" y="87"/>
      <point x="901" y="233"/>
      <point x="901" y="450" type="curve" smooth="yes"/>
      <point x="901" y="518" type="line" smooth="yes"/>
      <point x="901" y="722"/>
      <point x="818" y="828"/>
      <point x="639" y="828" type="curve" smooth="yes"/>
      <point x="485" y="828"/>
      <point x="404" y="744"/>
      <point x="386" y="631" type="curve"/>
      <point x="372" y="631" type="line"/>
      <point x="381" y="505" type="line"/>
      <point x="396" y="549"/>
      <point x="440" y="581"/>
      <point x="493" y="581" type="curve" smooth="yes"/>
      <point x="564" y="581"/>
      <point x="590" y="546"/>
      <point x="590" y="476" type="curve" smooth="yes"/>
      <point x="590" y="437" type="line" smooth="yes"/>
      <point x="590" y="371"/>
      <point x="567" y="330"/>
      <point x="498" y="330" type="curve" smooth="yes"/>
      <point x="418" y="330"/>
      <point x="390" y="375"/>
      <point x="390" y="459" type="curve"/>
      <point x="390" y="631" type="line"/>
      <point x="378" y="631" type="line"/>
      <point x="378" y="941"/>
      <point x="658" y="1114"/>
      <point x="1159" y="1114" type="curve" smooth="yes"/>
      <point x="1719" y="1114"/>
      <point x="1916" y="939"/>
      <point x="1916" y="573" type="curve" smooth="yes"/>
      <point x="1916" y="519" type="line" smooth="yes"/>
      <point x="1916" y="425"/>
      <point x="1896" y="385"/>
      <point x="1830" y="385" type="curve" smooth="yes"/>
      <point x="1760" y="385"/>
      <point x="1735" y="429"/>
      <point x="1735" y="519" type="curve" smooth="yes"/>
      <point x="1735" y="616"/>
      <point x="1739" y="693"/>
      <point x="1749" y="792" type="curve"/>
      <point x="1454" y="792" type="line"/>
      <point x="1447" y="713"/>
      <point x="1438" y="620"/>
      <point x="1438" y="530" type="curve" smooth="yes"/>
      <point x="1438" y="300"/>
      <point x="1537" y="176"/>
      <point x="1822" y="176" type="curve" smooth="yes"/>
      <point x="1915" y="176"/>
      <point x="1994" y="195"/>
      <point x="2059" y="231" type="curve"/>
      <point x="2184" y="286"/>
      <point x="2235" y="393"/>
      <point x="2235" y="592" type="curve" smooth="yes"/>
      <point x="2235" y="594" type="line" smooth="yes"/>
      <point x="2235" y="1088"/>
      <point x="1919" y="1389"/>
    </contour>
    <contour>
      <point x="2278" y="320" type="line"/>
      <point x="1966" y="320" type="line"/>
      <point x="1863" y="183" type="line"/>
      <point x="1863" y="168" type="line"/>
      <point x="1741" y="160"/>
      <point x="1689" y="112"/>
      <point x="1678" y="-14" type="curve" smooth="yes"/>
      <point x="1675" y="-48" type="line" smooth="yes"/>
      <point x="1652" y="-313"/>
      <point x="1532" y="-433"/>
      <point x="1188" y="-433" type="curve" smooth="yes"/>
      <point x="823" y="-433"/>
      <point x="676" y="-285"/>
      <point x="676" y="24" type="curve" smooth="yes"/>
      <point x="676" y="68"/>
      <point x="678" y="113"/>
      <point x="681" y="156" type="curve"/>
      <point x="372" y="156" type="line"/>
      <point x="368" y="121"/>
      <point x="366" y="76"/>
      <point x="366" y="24" type="curve" smooth="yes"/>
      <point x="366" y="-418"/>
      <point x="633" y="-690"/>
      <point x="1194" y="-690" type="curve" smooth="yes"/>
      <point x="1744" y="-690"/>
      <point x="1925" y="-461"/>
      <point x="1984" y="-51" type="curve" smooth="yes"/>
      <point x="1987" y="-30" type="line" smooth="yes"/>
      <point x="1996" y="33"/>
      <point x="2011" y="58"/>
      <point x="2083" y="58" type="curve" smooth="yes"/>
      <point x="2249" y="59" type="line"/>
    </contour>
    <contour>
      <point x="869" y="136" type="line"/>
      <point x="869" y="-297" type="line"/>
      <point x="1301" y="-297" type="line" smooth="yes"/>
      <point x="1503" y="-297"/>
      <point x="1576" y="-227"/>
      <point x="1576" y="-55" type="curve" smooth="yes"/>
      <point x="1576" y="8" type="line" smooth="yes"/>
      <point x="1576" y="163"/>
      <point x="1505" y="234"/>
      <point x="1311" y="234" type="curve" smooth="yes"/>
      <point x="1136" y="234" type="line"/>
      <point x="1136" y="-266" type="line"/>
      <point x="1303" y="-266" type="line"/>
      <point x="1303" y="92" type="line"/>
      <point x="1322" y="92" type="line" smooth="yes"/>
      <point x="1389" y="92"/>
      <point x="1407" y="69"/>
      <point x="1407" y="17" type="curve" smooth="yes"/>
      <point x="1407" y="-65" type="line" smooth="yes"/>
      <point x="1407" y="-131"/>
      <point x="1391" y="-155"/>
      <point x="1314" y="-155" type="curve" smooth="yes"/>
      <point x="1046" y="-155" type="line"/>
      <point x="1046" y="136" type="line"/>
    </contour>
    <contour>
      <point x="1184" y="286" type="curve" smooth="yes"/>
      <point x="1265" y="286"/>
      <point x="1297" y="328"/>
      <point x="1297" y="403" type="curve" smooth="yes"/>
      <point x="1297" y="409" type="line" smooth="yes"/>
      <point x="1297" y="483"/>
      <point x="1263" y="523"/>
      <point x="1184" y="523" type="curve" smooth="yes"/>
      <point x="1104" y="523"/>
      <point x="1070" y="483"/>
      <point x="1070" y="409" type="curve" smooth="yes"/>
      <point x="1070" y="403" type="line" smooth="yes"/>
      <point x="1070" y="328"/>
      <point x="1102" y="286"/>
    </contour>
    <contour>
      <point x="1046" y="126" type="line"/>
      <point x="1046" y="148" type="line" smooth="yes"/>
      <point x="1046" y="304"/>
      <point x="990" y="370"/>
      <point x="863" y="388" type="curve"/>
      <point x="813" y="211" type="line"/>
      <point x="854" y="209"/>
      <point x="869" y="190"/>
      <point x="869" y="126" type="curve"/>
    </contour>
  </outline>
</glyph>
<glyph name="Zero.tm" format="2">
  <advance width="1222"/>
  <unicode hex="0BE6"/>
  <note>
Zero.tm
</note>
  <outline>
    <contour>
      <point x="613" y="936" type="curve" smooth="yes"/>
      <point x="748" y="936"/>
      <point x="805" y="851"/>
      <point x="805" y="696" type="curve" smooth="yes"/>
      <point x="805" y="493" type="line" smooth="yes"/>
      <point x="805" y="340"/>
      <point x="749" y="255"/>
      <point x="613" y="255" type="curve" smooth="yes"/>
      <point x="474" y="255"/>
      <point x="418" y="340"/>
      <point x="418" y="493" type="curve" smooth="yes"/>
      <point x="418" y="696" type="line" smooth="yes"/>
      <point x="418" y="851"/>
      <point x="476" y="936"/>
    </contour>
    <contour>
      <point x="615" y="1220" type="curve" smooth="yes"/>
      <point x="244" y="1220"/>
      <point x="86" y="1029"/>
      <point x="86" y="692" type="curve" smooth="yes"/>
      <point x="86" y="497" type="line" smooth="yes"/>
      <point x="86" y="165"/>
      <point x="242" y="-29"/>
      <point x="615" y="-29" type="curve" smooth="yes"/>
      <point x="983" y="-29"/>
      <point x="1136" y="165"/>
      <point x="1136" y="497" type="curve" smooth="yes"/>
      <point x="1136" y="692" type="line" smooth="yes"/>
      <point x="1136" y="1029"/>
      <point x="982" y="1220"/>
    </contour>
  </outline>
</glyph>
<glyph name="Three.tm" format="2">
  <advance width="1957"/>
  <unicode hex="0BE9"/>
  <note>
Three.tm
</note>
  <outline>
    <contour>
      <point x="711" y="1079" type="line"/>
      <point x="711" y="0" type="line"/>
      <point x="1046" y="0" type="line"/>
      <point x="1046" y="1079" type="line"/>
    </contour>
    <contour>
      <point x="1336" y="770" type="curve" smooth="yes"/>
      <point x="1146" y="770"/>
      <point x="1068" y="665"/>
      <point x="1055" y="545" type="curve"/>
      <point x="1030" y="545" type="line"/>
      <point x="1030" y="395" type="line"/>
      <point x="1037" y="395" type="line"/>
      <point x="1056" y="450"/>
      <point x="1105" y="490"/>
      <point x="1167" y="490" type="curve" smooth="yes"/>
      <point x="1256" y="490"/>
      <point x="1284" y="434"/>
      <point x="1284" y="328" type="curve" smooth="yes"/>
      <point x="1284" y="302" type="line" smooth="yes"/>
      <point x="1284" y="175"/>
      <point x="1263" y="95"/>
      <point x="1211" y="18" type="curve"/>
      <point x="1211" y="0" type="line"/>
      <point x="1914" y="0" type="line"/>
      <point x="1957" y="275" type="line"/>
      <point x="1486" y="275" type="line"/>
      <point x="1554" y="192" type="line"/>
      <point x="1589" y="253"/>
      <point x="1606" y="317"/>
      <point x="1606" y="428" type="curve" smooth="yes"/>
      <point x="1606" y="455" type="line" smooth="yes"/>
      <point x="1606" y="659"/>
      <point x="1525" y="770"/>
    </contour>
    <contour>
      <point x="1090" y="1162" type="line"/>
      <point x="130" y="1162" type="line"/>
      <point x="130" y="0" type="line"/>
      <point x="465" y="0" type="line"/>
      <point x="465" y="890" type="line"/>
      <point x="1090" y="890" type="line"/>
    </contour>
    <component base="RaBeak_Nonexporting" xOffset="860"/>
  </outline>
</glyph>
<glyph name="Five.tm" format="2">
  <advance width="2251"/>
  <unicode hex="0BEB"/>
  <note>
Five.tm
</note>
  <outline>
    <contour>
      <point x="1264" y="1087" type="line"/>
      <point x="1264" y="0" type="line"/>
      <point x="1598" y="0" type="line"/>
      <point x="1598" y="1087" type="line"/>
    </contour>
    <contour>
      <point x="1871" y="767" type="curve" smooth="yes"/>
      <point x="1714" y="767"/>
      <point x="1627" y="680"/>
      <point x="1608" y="561" type="curve"/>
      <point x="1562" y="561" type="line"/>
      <point x="1562" y="389" type="line"/>
      <point x="1584" y="389" type="line"/>
      <point x="1600" y="448"/>
      <point x="1651" y="489"/>
      <point x="1718" y="489" type="curve" smooth="yes"/>
      <point x="1804" y="489"/>
      <point x="1839" y="436"/>
      <point x="1839" y="318" type="curve" smooth="yes"/>
      <point x="1839" y="263" type="line" smooth="yes"/>
      <point x="1839" y="-72"/>
      <point x="1670" y="-254"/>
      <point x="1207" y="-254" type="curve" smooth="yes"/>
      <point x="1199" y="-254" type="line" smooth="yes"/>
      <point x="661" y="-254"/>
      <point x="439" y="-18"/>
      <point x="439" y="485" type="curve" smooth="yes"/>
      <point x="439" y="653" type="line" smooth="yes"/>
      <point x="439" y="1196"/>
      <point x="682" y="1431"/>
      <point x="1276" y="1431" type="curve" smooth="yes"/>
      <point x="1598" y="1431"/>
      <point x="1852" y="1372"/>
      <point x="2073" y="1255" type="curve"/>
      <point x="2026" y="1567" type="line"/>
      <point x="1826" y="1666"/>
      <point x="1560" y="1719"/>
      <point x="1270" y="1719" type="curve" smooth="yes"/>
      <point x="483" y="1719"/>
      <point x="101" y="1369"/>
      <point x="101" y="652" type="curve" smooth="yes"/>
      <point x="101" y="486" type="line" smooth="yes"/>
      <point x="101" y="-213"/>
      <point x="473" y="-543"/>
      <point x="1200" y="-543" type="curve" smooth="yes"/>
      <point x="1206" y="-543" type="line" smooth="yes"/>
      <point x="1878" y="-543"/>
      <point x="2177" y="-256"/>
      <point x="2177" y="270" type="curve" smooth="yes"/>
      <point x="2177" y="348" type="line" smooth="yes"/>
      <point x="2177" y="624"/>
      <point x="2087" y="767"/>
    </contour>
    <contour>
      <point x="1666" y="1163" type="line"/>
      <point x="699" y="1163" type="line"/>
      <point x="699" y="0" type="line"/>
      <point x="1034" y="0" type="line"/>
      <point x="1034" y="890" type="line"/>
      <point x="1666" y="890" type="line"/>
    </contour>
    <component base="RaBeak_Nonexporting" xOffset="1415"/>
  </outline>
</glyph>
<glyph name="Six.tm" format="2">
  <advance width="2330"/>
  <unicode hex="0BEC"/>
  <note>
Six.tm
</note>
  <outline>
    <contour>
      <point x="1007" y="484" type="line"/>
      <point x="1117" y="484" type="line" smooth="yes"/>
      <point x="1234" y="484"/>
      <point x="1268" y="445"/>
      <point x="1268" y="313" type="curve" smooth="yes"/>
      <point x="1268" y="0" type="line"/>
      <point x="1600" y="0" type="line"/>
      <point x="1600" y="313" type="line" smooth="yes"/>
      <point x="1600" y="445"/>
      <point x="1634" y="484"/>
      <point x="1751" y="484" type="curve"/>
      <point x="2310" y="484" type="line"/>
      <point x="2282" y="752" type="line"/>
      <point x="1725" y="752" type="line" smooth="yes"/>
      <point x="1537" y="752"/>
      <point x="1460" y="688"/>
      <point x="1438" y="525" type="curve"/>
      <point x="1430" y="525" type="line"/>
      <point x="1408" y="688"/>
      <point x="1332" y="752"/>
      <point x="1143" y="752" type="curve" smooth="yes"/>
      <point x="1007" y="752" type="line"/>
    </contour>
    <contour>
      <point x="1791" y="558" type="line"/>
      <point x="1791" y="0" type="line"/>
      <point x="2123" y="0" type="line"/>
      <point x="2123" y="558" type="line"/>
    </contour>
    <component base="KaComponent_Nonexporting" xOffset="58"/>
    <component base="KaBeak_Nonexporting" xOffset="1130"/>
  </outline>
</glyph>
<glyph name="Hundred.tm" format="2">
  <advance width="1747"/>
  <unicode hex="0BF1"/>
  <note>
Hundred.tm
</note>
  <outline>
    <contour>
      <point x="1241" y="1088" type="line"/>
      <point x="1241" y="0" type="line"/>
      <point x="1576" y="0" type="line"/>
      <point x="1576" y="1088" type="line"/>
    </contour>
    <contour>
      <point x="1446" y="1163" type="line"/>
      <point x="779" y="1163" type="line"/>
      <point x="779" y="981" type="line"/>
      <point x="763" y="981" type="line"/>
      <point x="741" y="1115"/>
      <point x="655" y="1193"/>
      <point x="479" y="1193" type="curve" smooth="yes"/>
      <point x="242" y="1193"/>
      <point x="114" y="1066"/>
      <point x="114" y="767" type="curve" smooth="yes"/>
      <point x="114" y="0" type="line"/>
      <point x="449" y="0" type="line"/>
      <point x="449" y="776" type="line" smooth="yes"/>
      <point x="449" y="874"/>
      <point x="491" y="913"/>
      <point x="558" y="913" type="curve" smooth="yes"/>
      <point x="631" y="913"/>
      <point x="661" y="871"/>
      <point x="661" y="767" type="curve" smooth="yes"/>
      <point x="661" y="0" type="line"/>
      <point x="996" y="0" type="line"/>
      <point x="996" y="890" type="line"/>
      <point x="1446" y="890" type="line"/>
    </contour>
    <component base="RaBeak_Nonexporting" xOffset="1198"/>
  </outline>
</glyph>
<glyph name="Thousand.tm" format="2">
  <advance width="2399"/>
  <unicode hex="0BF2"/>
  <note>
Thousand.tm
</note>
  <outline>
    <contour>
      <point x="1011" y="484" type="line"/>
      <point x="2207" y="484" type="line"/>
      <point x="2178" y="752" type="line"/>
      <point x="1011" y="752" type="line"/>
    </contour>
    <contour>
      <point x="1675" y="638" type="line"/>
      <point x="1675" y="295" type="line"/>
      <point x="1665" y="267" type="line"/>
      <point x="1665" y="68" type="line" smooth="yes"/>
      <point x="1665" y="-2"/>
      <point x="1631" y="-35"/>
      <point x="1552" y="-35" type="curve" smooth="yes"/>
      <point x="1470" y="-35"/>
      <point x="1431" y="-3"/>
      <point x="1431" y="54" type="curve" smooth="yes"/>
      <point x="1431" y="100" type="line" smooth="yes"/>
      <point x="1431" y="129"/>
      <point x="1441" y="144"/>
      <point x="1470" y="144" type="curve"/>
      <point x="1801" y="144" type="line"/>
      <point x="1841" y="139" type="line"/>
      <point x="1932" y="139" type="line" smooth="yes"/>
      <point x="2039" y="139"/>
      <point x="2077" y="98"/>
      <point x="2077" y="-15" type="curve" smooth="yes"/>
      <point x="2077" y="-82" type="line" smooth="yes"/>
      <point x="2077" y="-280"/>
      <point x="1993" y="-353"/>
      <point x="1765" y="-353" type="curve" smooth="yes"/>
      <point x="1456" y="-353" type="line"/>
      <point x="1492" y="-598" type="line"/>
      <point x="1785" y="-598" type="line" smooth="yes"/>
      <point x="2213" y="-598"/>
      <point x="2369" y="-454"/>
      <point x="2369" y="-78" type="curve" smooth="yes"/>
      <point x="2369" y="-3" type="line" smooth="yes"/>
      <point x="2369" y="257"/>
      <point x="2248" y="372"/>
      <point x="1955" y="372" type="curve" smooth="yes"/>
      <point x="1841" y="372" type="line"/>
      <point x="1801" y="367" type="line"/>
      <point x="1428" y="367" type="line" smooth="yes"/>
      <point x="1229" y="367"/>
      <point x="1151" y="285"/>
      <point x="1151" y="106" type="curve" smooth="yes"/>
      <point x="1151" y="54" type="line" smooth="yes"/>
      <point x="1151" y="-157"/>
      <point x="1288" y="-272"/>
      <point x="1555" y="-272" type="curve" smooth="yes"/>
      <point x="1830" y="-272"/>
      <point x="1943" y="-163"/>
      <point x="1943" y="72" type="curve" smooth="yes"/>
      <point x="1943" y="267" type="line"/>
      <point x="1943" y="295" type="line"/>
      <point x="1943" y="638" type="line"/>
    </contour>
    <contour>
      <point x="1593" y="-353" type="line"/>
      <point x="1431" y="-353" type="line"/>
      <point x="1241" y="-353"/>
      <point x="1153" y="-366"/>
      <point x="1064" y="-401" type="curve"/>
      <point x="1036" y="-679" type="line"/>
      <point x="1154" y="-630"/>
      <point x="1272" y="-598"/>
      <point x="1441" y="-598" type="curve"/>
      <point x="1593" y="-598" type="line"/>
    </contour>
    <component base="KaComponent_Nonexporting" xOffset="58"/>
    <component base="KaBeak_Nonexporting" xOffset="1068"/>
  </outline>
</glyph>
<glyph name="DaySign.tm" format="2">
  <advance width="1881"/>
  <unicode hex="0BF3"/>
  <note>
DaySign.tm
</note>
  <outline>
    <contour>
      <point x="1308" y="0" type="line"/>
      <point x="1848" y="0" type="line"/>
      <point x="1881" y="279" type="line"/>
      <point x="1308" y="279" type="line"/>
    </contour>
    <component base="Va_NonExporting" xOffset="9"/>
  </outline>
</glyph>
<glyph name="MonthSign.tm" format="2">
  <advance width="1743"/>
  <unicode hex="0BF4"/>
  <note>
MonthSign.tm
</note>
  <anchor x="924" y="1234" name="top"/>
  <outline>
    <contour>
      <point x="1946" y="1989" type="curve" smooth="yes"/>
      <point x="1689" y="1989"/>
      <point x="1565" y="1854"/>
      <point x="1565" y="1627" type="curve" smooth="yes"/>
      <point x="1565" y="1609" type="line"/>
      <point x="1555" y="1609" type="line"/>
      <point x="1524" y="1732"/>
      <point x="1432" y="1793"/>
      <point x="1282" y="1793" type="curve" smooth="yes"/>
      <point x="1066" y="1793"/>
      <point x="941" y="1662"/>
      <point x="941" y="1420" type="curve"/>
      <point x="941" y="1389" type="line" smooth="yes"/>
      <point x="941" y="1273"/>
      <point x="971" y="1190"/>
      <point x="1023" y="1143" type="curve"/>
      <point x="1342" y="1128" type="line"/>
      <point x="1291" y="1170"/>
      <point x="1259" y="1235"/>
      <point x="1259" y="1321" type="curve"/>
      <point x="1259" y="1388" type="line"/>
      <point x="1259" y="1468"/>
      <point x="1284" y="1511"/>
      <point x="1347" y="1511" type="curve" smooth="yes"/>
      <point x="1406" y="1511"/>
      <point x="1429" y="1469"/>
      <point x="1429" y="1393" type="curve" smooth="yes"/>
      <point x="1429" y="1328" type="line"/>
      <point x="1753" y="1328" type="line"/>
      <point x="1753" y="1561" type="line" smooth="yes"/>
      <point x="1753" y="1663"/>
      <point x="1791" y="1707"/>
      <point x="1867" y="1707" type="curve" smooth="yes"/>
      <point x="1944" y="1707"/>
      <point x="1969" y="1659"/>
      <point x="1969" y="1568" type="curve" smooth="yes"/>
      <point x="1969" y="1540" type="line" smooth="yes"/>
      <point x="1969" y="1426"/>
      <point x="1948" y="1351"/>
      <point x="1901" y="1282" type="curve"/>
      <point x="1901" y="1260" type="line"/>
      <point x="2523" y="1260" type="line"/>
      <point x="2553" y="1520" type="line"/>
      <point x="2181" y="1520" type="line"/>
      <point x="2242" y="1413" type="line"/>
      <point x="2276" y="1488"/>
      <point x="2292" y="1544"/>
      <point x="2292" y="1643" type="curve" smooth="yes"/>
      <point x="2292" y="1666" type="line" smooth="yes"/>
      <point x="2292" y="1873"/>
      <point x="2190" y="1989"/>
    </contour>
    <component base="Ma.tm"/>
  </outline>
</glyph>
<glyph name="YearSign.tm" format="2">
  <advance width="4882"/>
  <unicode hex="0BF5"/>
  <note>
YearSign.tm
</note>
  <outline>
    <contour>
      <point x="2774" y="1087" type="line"/>
      <point x="2774" y="0" type="line"/>
      <point x="3109" y="0" type="line"/>
      <point x="3109" y="1087" type="line"/>
    </contour>
    <contour>
      <point x="2054" y="0" type="line"/>
      <point x="2340" y="0" type="line"/>
      <point x="2340" y="273" type="line"/>
      <point x="2045" y="273" type="line"/>
    </contour>
    <contour>
      <point x="1894" y="1761" type="line" smooth="yes"/>
      <point x="644" y="1761"/>
      <point x="95" y="1379"/>
      <point x="95" y="634" type="curve" smooth="yes"/>
      <point x="95" y="475" type="line" smooth="yes"/>
      <point x="95" y="-277"/>
      <point x="627" y="-649"/>
      <point x="1867" y="-649" type="curve" smooth="yes"/>
      <point x="2167" y="-649" type="line" smooth="yes"/>
      <point x="3243" y="-649"/>
      <point x="3691" y="-330"/>
      <point x="3691" y="277" type="curve" smooth="yes"/>
      <point x="3691" y="348" type="line" smooth="yes"/>
      <point x="3691" y="624"/>
      <point x="3600" y="767"/>
      <point x="3383" y="767" type="curve" smooth="yes"/>
      <point x="3224" y="767"/>
      <point x="3137" y="680"/>
      <point x="3118" y="561" type="curve"/>
      <point x="3072" y="561" type="line"/>
      <point x="3072" y="389" type="line"/>
      <point x="3094" y="389" type="line"/>
      <point x="3111" y="448"/>
      <point x="3161" y="489"/>
      <point x="3230" y="489" type="curve" smooth="yes"/>
      <point x="3318" y="489"/>
      <point x="3352" y="436"/>
      <point x="3352" y="318" type="curve" smooth="yes"/>
      <point x="3352" y="273" type="line" smooth="yes"/>
      <point x="3352" y="-140"/>
      <point x="3040" y="-362"/>
      <point x="2175" y="-362" type="curve" smooth="yes"/>
      <point x="1856" y="-362" type="line" smooth="yes"/>
      <point x="814" y="-362"/>
      <point x="434" y="-88"/>
      <point x="434" y="481" type="curve" smooth="yes"/>
      <point x="434" y="629" type="line" smooth="yes"/>
      <point x="434" y="1190"/>
      <point x="829" y="1474"/>
      <point x="1884" y="1474" type="curve" smooth="yes"/>
      <point x="2355" y="1474" type="line" smooth="yes"/>
      <point x="3442" y="1474"/>
      <point x="3853" y="1170"/>
      <point x="3866" y="567" type="curve" smooth="yes"/>
      <point x="3869" y="431" type="line" smooth="yes"/>
      <point x="3876" y="133"/>
      <point x="4006" y="-26"/>
      <point x="4336" y="-26" type="curve" smooth="yes"/>
      <point x="4672" y="-26"/>
      <point x="4795" y="147"/>
      <point x="4795" y="468" type="curve" smooth="yes"/>
      <point x="4795" y="704" type="line" smooth="yes"/>
      <point x="4795" y="1026"/>
      <point x="4689" y="1198"/>
      <point x="4358" y="1198" type="curve" smooth="yes"/>
      <point x="4321" y="1198"/>
      <point x="4283" y="1194"/>
      <point x="4254" y="1188" type="curve"/>
      <point x="4210" y="906" type="line"/>
      <point x="4229" y="909"/>
      <point x="4251" y="911"/>
      <point x="4276" y="911" type="curve" smooth="yes"/>
      <point x="4412" y="911"/>
      <point x="4455" y="841"/>
      <point x="4455" y="687" type="curve" smooth="yes"/>
      <point x="4455" y="450" type="line" smooth="yes"/>
      <point x="4455" y="323"/>
      <point x="4428" y="257"/>
      <point x="4336" y="257" type="curve" smooth="yes"/>
      <point x="4237" y="257"/>
      <point x="4203" y="317"/>
      <point x="4201" y="436" type="curve" smooth="yes"/>
      <point x="4198" y="585" type="line" smooth="yes"/>
      <point x="4182" y="1377"/>
      <point x="3614" y="1761"/>
      <point x="2347" y="1761" type="curve" smooth="yes"/>
    </contour>
    <contour>
      <point x="3163" y="1163" type="line"/>
      <point x="2210" y="1163" type="line"/>
      <point x="2210" y="0" type="line"/>
      <point x="2544" y="0" type="line"/>
      <point x="2544" y="890" type="line"/>
      <point x="3163" y="890" type="line"/>
    </contour>
    <component base="Va_NonExporting" xOffset="591"/>
    <component base="RaBeak_Nonexporting" xOffset="2878"/>
  </outline>
</glyph>
<glyph name="DebitSign.tm" format="2">
  <advance width="2107"/>
  <unicode hex="0BF6"/>
  <note>
DebitSign.tm
</note>
  <anchor x="749" y="1234" name="top"/>
  <outline>
    <contour>
      <point x="1640" y="1162" type="line"/>
      <point x="1640" y="-298" type="line"/>
      <point x="1977" y="-298" type="line"/>
      <point x="1977" y="1162" type="line"/>
    </contour>
    <contour>
      <point x="721" y="-787" type="curve" smooth="yes"/>
      <point x="1147" y="-787"/>
      <point x="1331" y="-589"/>
      <point x="1363" y="-288" type="curve"/>
      <point x="1367" y="-211" type="line"/>
      <point x="1370" y="-147"/>
      <point x="1372" y="-71"/>
      <point x="1372" y="0" type="curve"/>
      <point x="1372" y="133" type="line"/>
      <point x="1043" y="124" type="line"/>
      <point x="1043" y="-7" type="line"/>
      <point x="1043" y="-75"/>
      <point x="1040" y="-144"/>
      <point x="1036" y="-203" type="curve"/>
      <point x="1031" y="-287" type="line"/>
      <point x="1027" y="-443"/>
      <point x="927" y="-541"/>
      <point x="709" y="-541" type="curve" smooth="yes"/>
      <point x="498" y="-541"/>
      <point x="393" y="-453"/>
      <point x="382" y="-353" type="curve"/>
      <point x="1137" y="-353" type="line"/>
      <point x="1238" y="-372" type="line"/>
      <point x="1977" y="-372" type="line"/>
      <point x="1977" y="-116" type="line"/>
      <point x="22" y="-116" type="line"/>
      <point x="31" y="-549"/>
      <point x="251" y="-787"/>
    </contour>
    <component base="Pa.tm"/>
  </outline>
</glyph>
<glyph name="CreditSign.tm" format="2">
  <advance width="2882"/>
  <unicode hex="0BF7"/>
  <note>
CreditSign.tm
</note>
  <outline>
    <contour>
      <point x="2155" y="798" type="curve" smooth="yes"/>
      <point x="1913" y="798"/>
      <point x="1795" y="670"/>
      <point x="1795" y="490" type="curve" smooth="yes"/>
      <point x="1795" y="490" type="line"/>
      <point x="1787" y="490" type="line"/>
      <point x="1763" y="664"/>
      <point x="1683" y="732"/>
      <point x="1483" y="732" type="curve" smooth="yes"/>
      <point x="1326" y="732" type="line"/>
      <point x="1326" y="464" type="line"/>
      <point x="1457" y="464" type="line" smooth="yes"/>
      <point x="1582" y="464"/>
      <point x="1618" y="422"/>
      <point x="1618" y="278" type="curve" smooth="yes"/>
      <point x="1618" y="0" type="line"/>
      <point x="1950" y="0" type="line"/>
      <point x="1950" y="347" type="line" smooth="yes"/>
      <point x="1950" y="458"/>
      <point x="1992" y="518"/>
      <point x="2072" y="518" type="curve" smooth="yes"/>
      <point x="2154" y="518"/>
      <point x="2181" y="461"/>
      <point x="2181" y="354" type="curve" smooth="yes"/>
      <point x="2181" y="311" type="line" smooth="yes"/>
      <point x="2181" y="180"/>
      <point x="2160" y="98"/>
      <point x="2108" y="18" type="curve"/>
      <point x="2108" y="0" type="line"/>
      <point x="2848" y="0" type="line"/>
      <point x="2882" y="275" type="line"/>
      <point x="2385" y="275" type="line"/>
      <point x="2453" y="192" type="line"/>
      <point x="2488" y="253"/>
      <point x="2505" y="317"/>
      <point x="2505" y="428" type="curve" smooth="yes"/>
      <point x="2505" y="456" type="line" smooth="yes"/>
      <point x="2505" y="676"/>
      <point x="2401" y="798"/>
    </contour>
    <component base="VowelE.tm"/>
  </outline>
</glyph>
<glyph name="RupeeSign.tm" format="2">
  <advance width="3372"/>
  <unicode hex="0BF9"/>
  <note>
RupeeSign.tm
</note>
  <outline>
    <contour>
      <point x="1264" y="1088" type="line"/>
      <point x="1264" y="0" type="line"/>
      <point x="1598" y="0" type="line"/>
      <point x="1598" y="1088" type="line"/>
    </contour>
    <contour>
      <point x="1871" y="767" type="curve" smooth="yes"/>
      <point x="1714" y="767"/>
      <point x="1627" y="680"/>
      <point x="1608" y="561" type="curve"/>
      <point x="1562" y="561" type="line"/>
      <point x="1562" y="389" type="line"/>
      <point x="1584" y="389" type="line"/>
      <point x="1600" y="448"/>
      <point x="1651" y="489"/>
      <point x="1718" y="489" type="curve" smooth="yes"/>
      <point x="1804" y="489"/>
      <point x="1839" y="436"/>
      <point x="1839" y="318" type="curve" smooth="yes"/>
      <point x="1839" y="267" type="line" smooth="yes"/>
      <point x="1839" y="-73"/>
      <point x="1670" y="-257"/>
      <point x="1207" y="-257" type="curve" smooth="yes"/>
      <point x="1199" y="-257" type="line" smooth="yes"/>
      <point x="661" y="-257"/>
      <point x="439" y="-18"/>
      <point x="439" y="492" type="curve" smooth="yes"/>
      <point x="439" y="657" type="line" smooth="yes"/>
      <point x="439" y="1226"/>
      <point x="725" y="1493"/>
      <point x="1341" y="1493" type="curve" smooth="yes"/>
      <point x="1350" y="1493" type="line" smooth="yes"/>
      <point x="1992" y="1493"/>
      <point x="2253" y="1227"/>
      <point x="2253" y="702" type="curve" smooth="yes"/>
      <point x="2253" y="671" type="line"/>
      <point x="2573" y="671" type="line"/>
      <point x="2573" y="835" type="line" smooth="yes"/>
      <point x="2573" y="940"/>
      <point x="2612" y="990"/>
      <point x="2692" y="990" type="curve" smooth="yes"/>
      <point x="2774" y="990"/>
      <point x="2801" y="937"/>
      <point x="2801" y="842" type="curve" smooth="yes"/>
      <point x="2801" y="779" type="line" smooth="yes"/>
      <point x="2801" y="660"/>
      <point x="2782" y="585"/>
      <point x="2734" y="512" type="curve"/>
      <point x="2734" y="490" type="line"/>
      <point x="3352" y="490" type="line"/>
      <point x="3382" y="750" type="line"/>
      <point x="3012" y="750" type="line"/>
      <point x="3073" y="661" type="line"/>
      <point x="3106" y="718"/>
      <point x="3122" y="778"/>
      <point x="3122" y="909" type="curve" smooth="yes"/>
      <point x="3122" y="941" type="line" smooth="yes"/>
      <point x="3122" y="1154"/>
      <point x="3024" y="1273"/>
      <point x="2797" y="1273" type="curve" smooth="yes"/>
      <point x="2586" y="1273"/>
      <point x="2483" y="1159"/>
      <point x="2482" y="995" type="curve"/>
      <point x="2482" y="995" type="line"/>
      <point x="2472" y="995" type="line"/>
      <point x="2436" y="1482"/>
      <point x="2035" y="1783"/>
      <point x="1349" y="1783" type="curve" smooth="yes"/>
      <point x="1341" y="1783" type="line" smooth="yes"/>
      <point x="546" y="1783"/>
      <point x="101" y="1420"/>
      <point x="101" y="655" type="curve" smooth="yes"/>
      <point x="101" y="493" type="line" smooth="yes"/>
      <point x="101" y="-214"/>
      <point x="473" y="-546"/>
      <point x="1200" y="-546" type="curve" smooth="yes"/>
      <point x="1206" y="-546" type="line" smooth="yes"/>
      <point x="1878" y="-546"/>
      <point x="2177" y="-257"/>
      <point x="2177" y="273" type="curve" smooth="yes"/>
      <point x="2177" y="348" type="line" smooth="yes"/>
      <point x="2177" y="624"/>
      <point x="2087" y="767"/>
    </contour>
    <contour>
      <point x="1666" y="1163" type="line"/>
      <point x="699" y="1163" type="line"/>
      <point x="699" y="1" type="line"/>
      <point x="1034" y="1" type="line"/>
      <point x="1034" y="890" type="line"/>
      <point x="1666" y="890" type="line"/>
    </contour>
    <component base="RaBeak_Nonexporting" xOffset="1415"/>
  </outline>
</glyph>
<glyph name="quoteright" format="2">
  <advance width="477"/>
  <unicode hex="2019"/>
  <outline>
    <contour>
      <point x="416" y="1319" type="curve"/>
      <point x="93" y="1319" type="line"/>
      <point x="97" y="1271"/>
      <point x="99" y="1236"/>
      <point x="99" y="1192" type="curve" smooth="yes"/>
      <point x="99" y="1051"/>
      <point x="71" y="934"/>
      <point x="25" y="829" type="curve"/>
      <point x="266" y="777" type="line"/>
      <point x="376" y="902"/>
      <point x="425" y="1044"/>
      <point x="425" y="1210" type="curve" smooth="yes"/>
      <point x="425" y="1253"/>
      <point x="421" y="1291"/>
    </contour>
  </outline>
</glyph>
<glyph name="AsAboveSign_Simple.tm" format="2">
  <advance width="3715"/>
  <note>
AsAboveSign.tm
</note>
  <outline>
    <contour>
      <point x="775" y="1372" type="curve" smooth="yes"/>
      <point x="331" y="1372"/>
      <point x="93" y="1124"/>
      <point x="93" y="690" type="curve" smooth="yes"/>
      <point x="93" y="449" type="line" smooth="yes"/>
      <point x="93" y="167"/>
      <point x="225" y="-26"/>
      <point x="539" y="-26" type="curve" smooth="yes"/>
      <point x="840" y="-26"/>
      <point x="955" y="137"/>
      <point x="955" y="378" type="curve" smooth="yes"/>
      <point x="955" y="432" type="line" smooth="yes"/>
      <point x="955" y="658"/>
      <point x="865" y="778"/>
      <point x="672" y="778" type="curve" smooth="yes"/>
      <point x="512" y="778"/>
      <point x="428" y="678"/>
      <point x="415" y="557" type="curve"/>
      <point x="400" y="557" type="line"/>
      <point x="409" y="434" type="line"/>
      <point x="423" y="476"/>
      <point x="468" y="517"/>
      <point x="530" y="517" type="curve" smooth="yes"/>
      <point x="605" y="517"/>
      <point x="634" y="477"/>
      <point x="634" y="397" type="curve" smooth="yes"/>
      <point x="634" y="358" type="line" smooth="yes"/>
      <point x="634" y="283"/>
      <point x="608" y="236"/>
      <point x="534" y="236" type="curve" smooth="yes"/>
      <point x="449" y="236"/>
      <point x="418" y="286"/>
      <point x="418" y="377" type="curve"/>
      <point x="418" y="557" type="line"/>
      <point x="407" y="557" type="line"/>
      <point x="407" y="607"/>
      <point x="407" y="657"/>
      <point x="407" y="707" type="curve"/>
      <point x="407" y="947"/>
      <point x="536" y="1083"/>
      <point x="781" y="1083" type="curve" smooth="yes"/>
      <point x="1026" y="1083"/>
      <point x="1132" y="944"/>
      <point x="1137" y="692" type="curve"/>
      <point x="1367" y="935" type="line"/>
      <point x="1327" y="1189"/>
      <point x="1118" y="1372"/>
    </contour>
    <contour>
      <point x="1089" y="538" type="curve" smooth="yes"/>
      <point x="1089" y="432" type="line" smooth="yes"/>
      <point x="1089" y="160"/>
      <point x="1218" y="-26"/>
      <point x="1526" y="-26" type="curve" smooth="yes"/>
      <point x="1820" y="-26"/>
      <point x="1933" y="133"/>
      <point x="1933" y="368" type="curve" smooth="yes"/>
      <point x="1933" y="423" type="line" smooth="yes"/>
      <point x="1933" y="641"/>
      <point x="1849" y="757"/>
      <point x="1668" y="757" type="curve" smooth="yes"/>
      <point x="1508" y="757"/>
      <point x="1424" y="662"/>
      <point x="1411" y="548" type="curve"/>
      <point x="1396" y="548" type="line"/>
      <point x="1405" y="425" type="line"/>
      <point x="1418" y="457"/>
      <point x="1461" y="496"/>
      <point x="1515" y="496" type="curve" smooth="yes"/>
      <point x="1585" y="496"/>
      <point x="1611" y="460"/>
      <point x="1611" y="388" type="curve" smooth="yes"/>
      <point x="1611" y="348" type="line" smooth="yes"/>
      <point x="1611" y="279"/>
      <point x="1587" y="236"/>
      <point x="1520" y="236" type="curve" smooth="yes"/>
      <point x="1442" y="236"/>
      <point x="1414" y="282"/>
      <point x="1414" y="367" type="curve"/>
      <point x="1414" y="548" type="line"/>
      <point x="1403" y="548" type="line"/>
      <point x="1403" y="556"/>
      <point x="1403" y="556"/>
      <point x="1403" y="564" type="curve" smooth="yes"/>
      <point x="1409" y="794"/>
      <point x="1521" y="911"/>
      <point x="1764" y="911" type="curve" smooth="yes"/>
      <point x="2005" y="911"/>
      <point x="2101" y="797"/>
      <point x="2101" y="551" type="curve" smooth="yes"/>
      <point x="2101" y="455" type="line" smooth="yes"/>
      <point x="2101" y="267"/>
      <point x="2074" y="144"/>
      <point x="1998" y="18" type="curve"/>
      <point x="1998" y="0" type="line"/>
      <point x="2615" y="0" type="line"/>
      <point x="2615" y="273" type="line"/>
      <point x="2290" y="273" type="line"/>
      <point x="2323" y="130" type="line"/>
      <point x="2409" y="224"/>
      <point x="2441" y="333"/>
      <point x="2441" y="500" type="curve" smooth="yes"/>
      <point x="2441" y="589" type="line" smooth="yes"/>
      <point x="2441" y="980"/>
      <point x="2266" y="1198"/>
      <point x="1797" y="1198" type="curve" smooth="yes"/>
      <point x="1524" y="1198"/>
      <point x="1323" y="1092"/>
      <point x="1271" y="919" type="curve"/>
      <point x="1209" y="927" type="line"/>
      <point x="1118" y="839"/>
      <point x="1089" y="693"/>
    </contour>
    <component base="Ssa_Above_NonExporting" xOffset="2342"/>
    <component base="Ssa_Below_Simple_NonExporting" xOffset="2691"/>
  </outline>
</glyph>
<glyph name="CaMatraI.tm" format="2">
  <advance width="1897"/>
  <note>
CaMatraI.tm
</note>
  <outline>
    <contour>
      <point x="1033" y="485" type="line"/>
      <point x="1358" y="485" type="line"/>
      <point x="1326" y="752" type="line"/>
      <point x="1033" y="752" type="line"/>
    </contour>
    <contour>
      <point x="1249" y="1786" type="curve" smooth="yes"/>
      <point x="910" y="1786"/>
      <point x="729" y="1608"/>
      <point x="729" y="1347" type="curve" smooth="yes"/>
      <point x="729" y="1343" type="line" smooth="yes"/>
      <point x="729" y="1279"/>
      <point x="744" y="1195"/>
      <point x="769" y="1150" type="curve"/>
      <point x="1080" y="1150" type="line"/>
      <point x="1064" y="1184"/>
      <point x="1055" y="1238"/>
      <point x="1055" y="1297" type="curve" smooth="yes"/>
      <point x="1055" y="1301" type="line" smooth="yes"/>
      <point x="1055" y="1439"/>
      <point x="1118" y="1505"/>
      <point x="1244" y="1505" type="curve" smooth="yes"/>
      <point x="1382" y="1505"/>
      <point x="1432" y="1434"/>
      <point x="1432" y="1266" type="curve" smooth="yes"/>
      <point x="1432" y="0" type="line"/>
      <point x="1767" y="0" type="line"/>
      <point x="1767" y="1249" type="line" smooth="yes"/>
      <point x="1767" y="1616"/>
      <point x="1616" y="1786"/>
    </contour>
    <component base="KaComponent_Nonexporting" xOffset="58"/>
    <component base="KaBeak_Nonexporting" xOffset="1013"/>
  </outline>
</glyph>
<glyph name="CaMatraU.tm" format="2">
  <advance width="1803"/>
  <note>
CaMatraU.tm
</note>
  <outline>
    <contour>
      <point x="960" y="464" type="line"/>
      <point x="1783" y="464" type="line"/>
      <point x="1750" y="732" type="line"/>
      <point x="960" y="732" type="line"/>
    </contour>
    <contour>
      <point x="1265" y="548" type="line"/>
      <point x="1265" y="0" type="line"/>
      <point x="1598" y="0" type="line"/>
      <point x="1598" y="548" type="line"/>
    </contour>
    <component base="KaComponent_Nonexporting" xOffset="58"/>
    <component base="KaBeak_Nonexporting" xOffset="1097"/>
  </outline>
</glyph>
<glyph name="CaMatraUu.tm" format="2">
  <advance width="2725"/>
  <note>
CaMatraUu.tm
</note>
  <outline>
    <contour>
      <point x="1582" y="464" type="line"/>
      <point x="1947" y="464" type="line"/>
      <point x="2039" y="478" type="line"/>
      <point x="2496" y="478" type="line"/>
      <point x="2466" y="732" type="line"/>
      <point x="1582" y="732" type="line"/>
    </contour>
    <contour>
      <point x="1835" y="527" type="line"/>
      <point x="1835" y="0" type="line"/>
      <point x="2168" y="0" type="line"/>
      <point x="2168" y="527" type="line"/>
    </contour>
    <contour>
      <point x="214" y="1163" type="line"/>
      <point x="161" y="1009"/>
      <point x="112" y="793"/>
      <point x="112" y="494" type="curve" smooth="yes"/>
      <point x="112" y="-235"/>
      <point x="546" y="-598"/>
      <point x="1524" y="-598" type="curve" smooth="yes"/>
      <point x="1542" y="-598" type="line" smooth="yes"/>
      <point x="2301" y="-598"/>
      <point x="2692" y="-357"/>
      <point x="2692" y="51" type="curve" smooth="yes"/>
      <point x="2692" y="64" type="line" smooth="yes"/>
      <point x="2692" y="293"/>
      <point x="2616" y="411"/>
      <point x="2430" y="411" type="curve" smooth="yes"/>
      <point x="2278" y="411"/>
      <point x="2195" y="330"/>
      <point x="2177" y="217" type="curve"/>
      <point x="2131" y="217" type="line"/>
      <point x="2131" y="71" type="line"/>
      <point x="2153" y="71" type="line"/>
      <point x="2170" y="119"/>
      <point x="2212" y="152"/>
      <point x="2267" y="152" type="curve" smooth="yes"/>
      <point x="2332" y="152"/>
      <point x="2357" y="116"/>
      <point x="2357" y="38" type="curve" smooth="yes"/>
      <point x="2357" y="38" type="line" smooth="yes"/>
      <point x="2357" y="-177"/>
      <point x="2086" y="-309"/>
      <point x="1542" y="-309" type="curve" smooth="yes"/>
      <point x="1524" y="-309" type="line" smooth="yes"/>
      <point x="747" y="-309"/>
      <point x="451" y="-47"/>
      <point x="451" y="502" type="curve" smooth="yes"/>
      <point x="451" y="774"/>
      <point x="492" y="961"/>
      <point x="559" y="1163" type="curve"/>
    </contour>
    <component base="KaComponent_Nonexporting" xOffset="651"/>
    <component base="KaBeak_Nonexporting" xOffset="1734"/>
  </outline>
</glyph>
<glyph name="CaMatraUu_Simple.tm" format="2">
  <advance width="2689"/>
  <note>
CaMatraUu.tm
</note>
  <outline>
    <contour>
      <point x="1546" y="484" type="line"/>
      <point x="1911" y="484" type="line"/>
      <point x="2003" y="498" type="line"/>
      <point x="2460" y="498" type="line"/>
      <point x="2430" y="752" type="line"/>
      <point x="1546" y="752" type="line"/>
    </contour>
    <contour>
      <point x="1799" y="547" type="line"/>
      <point x="1799" y="0" type="line"/>
      <point x="2132" y="0" type="line"/>
      <point x="2132" y="547" type="line"/>
    </contour>
    <contour>
      <point x="126" y="1163" type="line"/>
      <point x="126" y="470" type="line" smooth="yes"/>
      <point x="126" y="-247"/>
      <point x="549" y="-598"/>
      <point x="1498" y="-598" type="curve" smooth="yes"/>
      <point x="1526" y="-598" type="line" smooth="yes"/>
      <point x="2301" y="-598"/>
      <point x="2656" y="-360"/>
      <point x="2656" y="71" type="curve" smooth="yes"/>
      <point x="2656" y="104" type="line" smooth="yes"/>
      <point x="2656" y="326"/>
      <point x="2580" y="441"/>
      <point x="2394" y="441" type="curve" smooth="yes"/>
      <point x="2242" y="441"/>
      <point x="2159" y="360"/>
      <point x="2141" y="247" type="curve"/>
      <point x="2095" y="247" type="line"/>
      <point x="2095" y="101" type="line"/>
      <point x="2117" y="101" type="line"/>
      <point x="2134" y="149"/>
      <point x="2176" y="182"/>
      <point x="2231" y="182" type="curve" smooth="yes"/>
      <point x="2296" y="182"/>
      <point x="2321" y="148"/>
      <point x="2321" y="73" type="curve" smooth="yes"/>
      <point x="2321" y="63" type="line" smooth="yes"/>
      <point x="2321" y="-178"/>
      <point x="2086" y="-309"/>
      <point x="1526" y="-309" type="curve" smooth="yes"/>
      <point x="1498" y="-309" type="line" smooth="yes"/>
      <point x="749" y="-309"/>
      <point x="465" y="-57"/>
      <point x="465" y="478" type="curve" smooth="yes"/>
      <point x="465" y="1162" type="line"/>
    </contour>
    <component base="KaComponent_Nonexporting" xOffset="615"/>
    <component base="KaBeak_Nonexporting" xOffset="1698"/>
  </outline>
</glyph>
<glyph name="DebitSign_Simple.tm" format="2">
  <advance width="2104"/>
  <note>
DebitSign.tm
</note>
  <anchor x="749" y="1234" name="top"/>
  <outline>
    <contour>
      <point x="1974" y="-138" type="line"/>
      <point x="8" y="-138" type="line"/>
      <point x="50" y="-417" type="line"/>
      <point x="1974" y="-417" type="line"/>
    </contour>
    <contour>
      <point x="1639" y="1162" type="line"/>
      <point x="1639" y="-325" type="line"/>
      <point x="1974" y="-325" type="line"/>
      <point x="1974" y="1162" type="line"/>
    </contour>
    <contour>
      <point x="1037" y="128" type="line"/>
      <point x="1037" y="-237" type="line"/>
      <point x="1372" y="-237" type="line"/>
      <point x="1372" y="128" type="line"/>
    </contour>
    <component base="Pa.tm"/>
  </outline>
</glyph>
<glyph name="HaMatraI.tm" format="2">
  <advance width="3848"/>
  <note>
HaMatraI.tm
</note>
  <anchor x="1497" y="1234" name="top"/>
  <outline>
    <contour>
      <point x="3174" y="1786" type="curve" smooth="yes"/>
      <point x="2817" y="1786"/>
      <point x="2629" y="1594"/>
      <point x="2629" y="1317" type="curve" smooth="yes"/>
      <point x="2629" y="1313" type="line" smooth="yes"/>
      <point x="2629" y="1231"/>
      <point x="2648" y="1122"/>
      <point x="2685" y="1064" type="curve"/>
      <point x="3000" y="1064" type="line"/>
      <point x="2968" y="1110"/>
      <point x="2955" y="1191"/>
      <point x="2955" y="1264" type="curve" smooth="yes"/>
      <point x="2955" y="1264" type="line" smooth="yes"/>
      <point x="2955" y="1422"/>
      <point x="3029" y="1502"/>
      <point x="3169" y="1502" type="curve" smooth="yes"/>
      <point x="3325" y="1502"/>
      <point x="3383" y="1414"/>
      <point x="3383" y="1214" type="curve" smooth="yes"/>
      <point x="3383" y="0" type="line"/>
      <point x="3718" y="0" type="line"/>
      <point x="3718" y="1197" type="line" smooth="yes"/>
      <point x="3718" y="1597"/>
      <point x="3558" y="1786"/>
    </contour>
    <component base="Ha.tm"/>
  </outline>
</glyph>
<glyph name="HaMatraI_Fly.tm" format="2">
  <advance width="3254"/>
  <note>
HaMatraI.tm
</note>
  <anchor x="1497" y="1234" name="top"/>
  <outline>
    <contour>
      <point x="3229" y="1636" type="line"/>
      <point x="2830" y="1636" type="line" smooth="yes"/>
      <point x="2616" y="1636"/>
      <point x="2517" y="1564"/>
      <point x="2517" y="1413" type="curve" smooth="yes"/>
      <point x="2517" y="1334"/>
      <point x="2539" y="1270"/>
      <point x="2615" y="1141" type="curve"/>
      <point x="2932" y="1141" type="line"/>
      <point x="2888" y="1204"/>
      <point x="2861" y="1263"/>
      <point x="2861" y="1299" type="curve" smooth="yes"/>
      <point x="2861" y="1342"/>
      <point x="2884" y="1358"/>
      <point x="2941" y="1358" type="curve" smooth="yes"/>
      <point x="3268" y="1358" type="line"/>
    </contour>
    <component base="Ha.tm"/>
  </outline>
</glyph>
<glyph name="HaMatraI_Simple.tm" format="2">
  <advance width="3814"/>
  <note>
HaMatraI.tm
</note>
  <anchor x="1497" y="1234" name="top"/>
  <outline>
    <contour>
      <point x="3151" y="1786" type="curve" smooth="yes"/>
      <point x="2815" y="1786"/>
      <point x="2626" y="1606"/>
      <point x="2626" y="1317" type="curve" smooth="yes"/>
      <point x="2626" y="1299" type="line" smooth="yes"/>
      <point x="2626" y="1235"/>
      <point x="2641" y="1162"/>
      <point x="2671" y="1116" type="curve"/>
      <point x="2988" y="1113" type="line"/>
      <point x="2964" y="1146"/>
      <point x="2952" y="1197"/>
      <point x="2952" y="1257" type="curve" smooth="yes"/>
      <point x="2952" y="1272" type="line" smooth="yes"/>
      <point x="2952" y="1427"/>
      <point x="3021" y="1502"/>
      <point x="3151" y="1502" type="curve" smooth="yes"/>
      <point x="3292" y="1502"/>
      <point x="3349" y="1425"/>
      <point x="3349" y="1241" type="curve" smooth="yes"/>
      <point x="3349" y="0" type="line"/>
      <point x="3684" y="0" type="line"/>
      <point x="3684" y="1231" type="line" smooth="yes"/>
      <point x="3684" y="1603"/>
      <point x="3529" y="1786"/>
    </contour>
    <component base="Ha_Simple.tm"/>
  </outline>
</glyph>
<glyph name="HaMatraIi_Simple.tm" format="2">
  <advance width="3234"/>
  <note>
HaMatraIi.tm
</note>
  <anchor x="2370" y="1234" name="top"/>
  <outline>
    <contour>
      <point x="1462" y="273" type="line"/>
      <point x="1462" y="0" type="line"/>
      <point x="1815" y="0" type="line"/>
      <point x="1815" y="273" type="line"/>
    </contour>
    <contour>
      <point x="1764" y="-138" type="line"/>
      <point x="13" y="-138" type="line"/>
      <point x="54" y="-417" type="line"/>
      <point x="1764" y="-417" type="line"/>
    </contour>
    <component base="Va_NonExporting" xOffset="1"/>
    <component base="RraMatraIi_Simple.tm" xOffset="1491"/>
  </outline>
</glyph>
<glyph name="HaMatraU.tm" format="2">
  <advance width="4182"/>
  <note>
HaMatraU.tm
</note>
  <outline>
    <contour>
      <point x="1462" y="273" type="line"/>
      <point x="1462" y="0" type="line"/>
      <point x="1815" y="0" type="line"/>
      <point x="1815" y="273" type="line"/>
    </contour>
    <contour>
      <point x="2042" y="1192" type="curve" smooth="yes"/>
      <point x="1778" y="1192"/>
      <point x="1636" y="1058"/>
      <point x="1636" y="744" type="curve" smooth="yes"/>
      <point x="1636" y="0" type="line"/>
      <point x="1971" y="0" type="line"/>
      <point x="1971" y="765" type="line" smooth="yes"/>
      <point x="1971" y="870"/>
      <point x="2017" y="912"/>
      <point x="2089" y="912" type="curve" smooth="yes"/>
      <point x="2169" y="912"/>
      <point x="2202" y="870"/>
      <point x="2202" y="765" type="curve" smooth="yes"/>
      <point x="2202" y="0" type="line"/>
      <point x="2537" y="0" type="line"/>
      <point x="2537" y="740" type="line" smooth="yes"/>
      <point x="2537" y="863"/>
      <point x="2594" y="914"/>
      <point x="2700" y="914" type="curve" smooth="yes"/>
      <point x="2796" y="914"/>
      <point x="2841" y="869"/>
      <point x="2841" y="773" type="curve" smooth="yes"/>
      <point x="2841" y="767" type="line" smooth="yes"/>
      <point x="2841" y="676"/>
      <point x="2794" y="624"/>
      <point x="2682" y="618" type="curve" smooth="yes"/>
      <point x="2624" y="615" type="line"/>
      <point x="2624" y="350" type="line"/>
      <point x="2682" y="346" type="line" smooth="yes"/>
      <point x="2802" y="338"/>
      <point x="2846" y="292"/>
      <point x="2846" y="174" type="curve" smooth="yes"/>
      <point x="2846" y="131" type="line" smooth="yes"/>
      <point x="2846" y="-61"/>
      <point x="2779" y="-138"/>
      <point x="2507" y="-138" type="curve" smooth="yes"/>
      <point x="525" y="-138" type="line"/>
      <point x="566" y="-417" type="line"/>
      <point x="2536" y="-417" type="line" smooth="yes"/>
      <point x="3042" y="-417"/>
      <point x="3182" y="-256"/>
      <point x="3182" y="111" type="curve" smooth="yes"/>
      <point x="3182" y="156" type="line" smooth="yes"/>
      <point x="3182" y="357"/>
      <point x="3110" y="474"/>
      <point x="2924" y="489" type="curve"/>
      <point x="2924" y="498" type="line"/>
      <point x="3098" y="517"/>
      <point x="3160" y="641"/>
      <point x="3160" y="813" type="curve" smooth="yes"/>
      <point x="3160" y="816" type="line" smooth="yes"/>
      <point x="3160" y="883"/>
      <point x="3145" y="946"/>
      <point x="3105" y="989" type="curve"/>
      <point x="3106" y="1056" type="line"/>
      <point x="3047" y="1148"/>
      <point x="2943" y="1194"/>
      <point x="2774" y="1194" type="curve" smooth="yes"/>
      <point x="2534" y="1194"/>
      <point x="2412" y="1099"/>
      <point x="2382" y="922" type="curve"/>
      <point x="2374" y="922" type="line"/>
      <point x="2353" y="1095"/>
      <point x="2246" y="1192"/>
    </contour>
    <contour>
      <point x="3192" y="1163" type="line"/>
      <point x="2879" y="1163" type="line"/>
      <point x="2879" y="891" type="line"/>
      <point x="3192" y="891" type="line"/>
    </contour>
    <component base="Va_NonExporting" xOffset="1"/>
    <component base="MatraUDflt.tm" xOffset="3035"/>
    <component base="Tail_NonExporting" xOffset="-15"/>
  </outline>
</glyph>
<glyph name="HaMatraUu_Simple_SimpleUu.tm" format="2">
  <advance width="4705"/>
  <note>
HaMatraUu.tm
</note>
  <outline>
    <contour>
      <point x="2026" y="1192" type="curve" smooth="yes"/>
      <point x="1763" y="1192"/>
      <point x="1621" y="1058"/>
      <point x="1621" y="744" type="curve" smooth="yes"/>
      <point x="1621" y="0" type="line"/>
      <point x="1956" y="0" type="line"/>
      <point x="1956" y="765" type="line" smooth="yes"/>
      <point x="1956" y="870"/>
      <point x="2001" y="912"/>
      <point x="2074" y="912" type="curve" smooth="yes"/>
      <point x="2153" y="912"/>
      <point x="2187" y="870"/>
      <point x="2187" y="765" type="curve" smooth="yes"/>
      <point x="2187" y="0" type="line"/>
      <point x="2521" y="0" type="line"/>
      <point x="2521" y="740" type="line" smooth="yes"/>
      <point x="2521" y="863"/>
      <point x="2575" y="914"/>
      <point x="2684" y="914" type="curve" smooth="yes"/>
      <point x="2784" y="914"/>
      <point x="2825" y="874"/>
      <point x="2825" y="778" type="curve" smooth="yes"/>
      <point x="2825" y="757" type="line" smooth="yes"/>
      <point x="2825" y="672"/>
      <point x="2785" y="626"/>
      <point x="2669" y="618" type="curve" smooth="yes"/>
      <point x="2608" y="615" type="line"/>
      <point x="2608" y="350" type="line"/>
      <point x="2666" y="346" type="line" smooth="yes"/>
      <point x="2792" y="338"/>
      <point x="2831" y="292"/>
      <point x="2831" y="174" type="curve" smooth="yes"/>
      <point x="2831" y="131" type="line" smooth="yes"/>
      <point x="2831" y="-61"/>
      <point x="2764" y="-138"/>
      <point x="2491" y="-138" type="curve" smooth="yes"/>
      <point x="13" y="-138" type="line"/>
      <point x="54" y="-417" type="line"/>
      <point x="2520" y="-417" type="line" smooth="yes"/>
      <point x="3028" y="-417"/>
      <point x="3169" y="-256"/>
      <point x="3169" y="111" type="curve" smooth="yes"/>
      <point x="3169" y="156" type="line" smooth="yes"/>
      <point x="3169" y="361"/>
      <point x="3102" y="474"/>
      <point x="2911" y="489" type="curve"/>
      <point x="2911" y="498" type="line"/>
      <point x="3091" y="514"/>
      <point x="3146" y="629"/>
      <point x="3146" y="794" type="curve" smooth="yes"/>
      <point x="3146" y="808" type="line" smooth="yes"/>
      <point x="3146" y="878"/>
      <point x="3131" y="944"/>
      <point x="3091" y="989" type="curve"/>
      <point x="3092" y="1056" type="line"/>
      <point x="3033" y="1148"/>
      <point x="2929" y="1194"/>
      <point x="2761" y="1194" type="curve" smooth="yes"/>
      <point x="2519" y="1194"/>
      <point x="2396" y="1099"/>
      <point x="2367" y="922" type="curve"/>
      <point x="2359" y="922" type="line"/>
      <point x="2337" y="1095"/>
      <point x="2231" y="1192"/>
    </contour>
    <contour>
      <point x="1480" y="273" type="line"/>
      <point x="1480" y="0" type="line"/>
      <point x="1753" y="0" type="line"/>
      <point x="1753" y="273" type="line"/>
    </contour>
    <contour>
      <point x="3178" y="1163" type="line"/>
      <point x="2865" y="1163" type="line"/>
      <point x="2865" y="891" type="line"/>
      <point x="3178" y="891" type="line"/>
    </contour>
    <component base="Va_NonExporting" xOffset="1"/>
    <component base="MatraUuDflt_Simple.tm" xOffset="3006"/>
  </outline>
</glyph>
<glyph name="Ha_Simple.tm" format="2">
  <advance width="3253"/>
  <note>
Ha.tm
</note>
  <anchor x="1497" y="1234" name="top"/>
  <outline>
    <contour>
      <point x="1487" y="273" type="line"/>
      <point x="1487" y="0" type="line"/>
      <point x="1802" y="0" type="line"/>
      <point x="1802" y="273" type="line"/>
    </contour>
    <contour>
      <point x="1766" y="-138" type="line"/>
      <point x="13" y="-138" type="line"/>
      <point x="54" y="-417" type="line"/>
      <point x="1766" y="-417" type="line"/>
    </contour>
    <component base="Va_NonExporting" xOffset="1"/>
    <component base="Rra_Simple.tm" xOffset="1510"/>
  </outline>
</glyph>
<glyph name="JaMatraI.tm" format="2">
  <advance width="2664"/>
  <note>
JaMatraI.tm
</note>
  <anchor x="1195" y="1234" name="top"/>
  <outline>
    <contour>
      <point x="1981" y="1786" type="curve" smooth="yes"/>
      <point x="1617" y="1786"/>
      <point x="1426" y="1596"/>
      <point x="1426" y="1323" type="curve" smooth="yes"/>
      <point x="1426" y="1319" type="line" smooth="yes"/>
      <point x="1426" y="1261"/>
      <point x="1438" y="1185"/>
      <point x="1462" y="1144" type="curve"/>
      <point x="1777" y="1144" type="line"/>
      <point x="1759" y="1174"/>
      <point x="1752" y="1226"/>
      <point x="1752" y="1274" type="curve" smooth="yes"/>
      <point x="1752" y="1274" type="line" smooth="yes"/>
      <point x="1752" y="1426"/>
      <point x="1829" y="1502"/>
      <point x="1976" y="1502" type="curve" smooth="yes"/>
      <point x="2138" y="1502"/>
      <point x="2199" y="1412"/>
      <point x="2199" y="1206" type="curve" smooth="yes"/>
      <point x="2199" y="0" type="line"/>
      <point x="2534" y="0" type="line"/>
      <point x="2534" y="1189" type="line" smooth="yes"/>
      <point x="2534" y="1595"/>
      <point x="2371" y="1786"/>
    </contour>
    <component base="Ja.tm"/>
  </outline>
</glyph>
<glyph name="JaMatraIi_Fused.tm" format="2">
  <advance width="2079"/>
  <note>
JaMatraIi.tm
</note>
  <anchor x="1195" y="1234" name="top"/>
  <outline>
    <contour>
      <point x="1910" y="1944" type="curve" smooth="yes"/>
      <point x="1519" y="1944"/>
      <point x="1335" y="1766"/>
      <point x="1335" y="1464" type="curve" smooth="yes"/>
      <point x="1335" y="1455" type="line" smooth="yes"/>
      <point x="1335" y="1338"/>
      <point x="1381" y="1211"/>
      <point x="1430" y="1150" type="curve"/>
      <point x="1743" y="1150" type="line"/>
      <point x="1690" y="1217"/>
      <point x="1644" y="1333"/>
      <point x="1644" y="1433" type="curve" smooth="yes"/>
      <point x="1644" y="1443" type="line" smooth="yes"/>
      <point x="1644" y="1612"/>
      <point x="1731" y="1697"/>
      <point x="1889" y="1703" type="curve"/>
      <point x="1889" y="1691" type="line"/>
      <point x="1918" y="1697"/>
      <point x="1951" y="1701"/>
      <point x="1985" y="1701" type="curve" smooth="yes"/>
      <point x="2082" y="1701"/>
      <point x="2115" y="1653"/>
      <point x="2115" y="1569" type="curve" smooth="yes"/>
      <point x="2115" y="1557" type="line" smooth="yes"/>
      <point x="2115" y="1496"/>
      <point x="2095" y="1461"/>
      <point x="2050" y="1461" type="curve" smooth="yes"/>
      <point x="1997" y="1461"/>
      <point x="1977" y="1498"/>
      <point x="1977" y="1565" type="curve" smooth="yes"/>
      <point x="1977" y="1586" type="line" smooth="yes"/>
      <point x="1977" y="1636"/>
      <point x="1984" y="1672"/>
      <point x="2002" y="1705" type="curve"/>
      <point x="1889" y="1706" type="line"/>
      <point x="1889" y="1696" type="line"/>
      <point x="1791" y="1668"/>
      <point x="1734" y="1613"/>
      <point x="1734" y="1504" type="curve" smooth="yes"/>
      <point x="1734" y="1500" type="line" smooth="yes"/>
      <point x="1734" y="1346"/>
      <point x="1830" y="1247"/>
      <point x="2051" y="1247" type="curve" smooth="yes"/>
      <point x="2284" y="1247"/>
      <point x="2396" y="1362"/>
      <point x="2396" y="1566" type="curve" smooth="yes"/>
      <point x="2396" y="1570" type="line" smooth="yes"/>
      <point x="2396" y="1798"/>
      <point x="2246" y="1944"/>
    </contour>
    <component base="Ja_Fused.tm"/>
  </outline>
</glyph>
<glyph name="JaMatraIi_Fused_SimpleIi.tm" format="2">
  <advance width="2079"/>
  <note>
JaMatraIi.tm
</note>
  <anchor x="1195" y="1234" name="top"/>
  <outline>
    <contour>
      <point x="1775" y="1890" type="curve" smooth="yes"/>
      <point x="1471" y="1890"/>
      <point x="1356" y="1739"/>
      <point x="1356" y="1487" type="curve" smooth="yes"/>
      <point x="1356" y="1411" type="line" smooth="yes"/>
      <point x="1356" y="1297"/>
      <point x="1382" y="1213"/>
      <point x="1428" y="1165" type="curve"/>
      <point x="1735" y="1165" type="line"/>
      <point x="1690" y="1218"/>
      <point x="1666" y="1292"/>
      <point x="1666" y="1385" type="curve" smooth="yes"/>
      <point x="1666" y="1451" type="line"/>
      <point x="1666" y="1531" type="line" smooth="yes"/>
      <point x="1666" y="1614"/>
      <point x="1696" y="1651"/>
      <point x="1768" y="1651" type="curve" smooth="yes"/>
      <point x="1830" y="1651"/>
      <point x="1857" y="1618"/>
      <point x="1857" y="1561" type="curve" smooth="yes"/>
      <point x="1857" y="1536" type="line" smooth="yes"/>
      <point x="1857" y="1478"/>
      <point x="1835" y="1448"/>
      <point x="1773" y="1448" type="curve" smooth="yes"/>
      <point x="1719" y="1448"/>
      <point x="1687" y="1463"/>
      <point x="1662" y="1482" type="curve"/>
      <point x="1656" y="1482" type="line"/>
      <point x="1661" y="1414" type="line"/>
      <point x="1677" y="1414" type="line"/>
      <point x="1739" y="1267" type="line"/>
      <point x="1778" y="1248"/>
      <point x="1834" y="1236"/>
      <point x="1899" y="1236" type="curve" smooth="yes"/>
      <point x="2077" y="1236"/>
      <point x="2162" y="1332"/>
      <point x="2162" y="1530" type="curve" smooth="yes"/>
      <point x="2162" y="1547" type="line" smooth="yes"/>
      <point x="2162" y="1762"/>
      <point x="2049" y="1890"/>
    </contour>
    <component base="Ja_Fused.tm"/>
  </outline>
</glyph>
<glyph name="JaMatraIi_SimpleIi.tm" format="2">
  <advance width="2079"/>
  <note>
JaMatraIi.tm
</note>
  <anchor x="1195" y="1234" name="top"/>
  <outline>
    <contour>
      <point x="1774" y="1890" type="curve" smooth="yes"/>
      <point x="1470" y="1890"/>
      <point x="1355" y="1739"/>
      <point x="1355" y="1487" type="curve" smooth="yes"/>
      <point x="1355" y="1411" type="line" smooth="yes"/>
      <point x="1355" y="1297"/>
      <point x="1381" y="1213"/>
      <point x="1427" y="1165" type="curve"/>
      <point x="1734" y="1165" type="line"/>
      <point x="1689" y="1218"/>
      <point x="1665" y="1292"/>
      <point x="1665" y="1385" type="curve" smooth="yes"/>
      <point x="1665" y="1451" type="line"/>
      <point x="1665" y="1531" type="line" smooth="yes"/>
      <point x="1665" y="1614"/>
      <point x="1695" y="1651"/>
      <point x="1767" y="1651" type="curve" smooth="yes"/>
      <point x="1829" y="1651"/>
      <point x="1856" y="1618"/>
      <point x="1856" y="1561" type="curve" smooth="yes"/>
      <point x="1856" y="1536" type="line" smooth="yes"/>
      <point x="1856" y="1478"/>
      <point x="1834" y="1448"/>
      <point x="1772" y="1448" type="curve" smooth="yes"/>
      <point x="1718" y="1448"/>
      <point x="1686" y="1463"/>
      <point x="1661" y="1482" type="curve"/>
      <point x="1655" y="1482" type="line"/>
      <point x="1660" y="1414" type="line"/>
      <point x="1676" y="1414" type="line"/>
      <point x="1738" y="1267" type="line"/>
      <point x="1777" y="1248"/>
      <point x="1833" y="1236"/>
      <point x="1898" y="1236" type="curve" smooth="yes"/>
      <point x="2076" y="1236"/>
      <point x="2161" y="1332"/>
      <point x="2161" y="1530" type="curve" smooth="yes"/>
      <point x="2161" y="1547" type="line" smooth="yes"/>
      <point x="2161" y="1762"/>
      <point x="2048" y="1890"/>
    </contour>
    <component base="Ja.tm"/>
  </outline>
</glyph>
<glyph name="JaMatraUu.tm" format="2">
  <advance width="3518"/>
  <note>
JaMatraUu.tm
</note>
  <outline>
    <contour>
      <point x="1970" y="1163" type="line"/>
      <point x="1688" y="1163" type="line"/>
      <point x="1688" y="891" type="line"/>
      <point x="1970" y="891" type="line"/>
    </contour>
    <contour>
      <point x="718" y="1206" type="curve" smooth="yes"/>
      <point x="322" y="1206"/>
      <point x="105" y="1003"/>
      <point x="105" y="644" type="curve" smooth="yes"/>
      <point x="105" y="549" type="line" smooth="yes"/>
      <point x="105" y="274"/>
      <point x="239" y="109"/>
      <point x="534" y="109" type="curve" smooth="yes"/>
      <point x="811" y="109"/>
      <point x="934" y="242"/>
      <point x="934" y="492" type="curve" smooth="yes"/>
      <point x="934" y="539" type="line" smooth="yes"/>
      <point x="934" y="739"/>
      <point x="857" y="851"/>
      <point x="671" y="851" type="curve" smooth="yes"/>
      <point x="519" y="851"/>
      <point x="432" y="763"/>
      <point x="420" y="650" type="curve"/>
      <point x="403" y="650" type="line"/>
      <point x="417" y="539" type="line"/>
      <point x="433" y="579"/>
      <point x="476" y="610"/>
      <point x="527" y="610" type="curve" smooth="yes"/>
      <point x="594" y="610"/>
      <point x="620" y="574"/>
      <point x="620" y="507" type="curve" smooth="yes"/>
      <point x="620" y="459" type="line" smooth="yes"/>
      <point x="620" y="394"/>
      <point x="597" y="352"/>
      <point x="530" y="352" type="curve" smooth="yes"/>
      <point x="453" y="352"/>
      <point x="425" y="397"/>
      <point x="425" y="478" type="curve"/>
      <point x="425" y="650" type="line"/>
      <point x="409" y="650" type="line"/>
      <point x="408" y="825"/>
      <point x="515" y="941"/>
      <point x="742" y="941" type="curve" smooth="yes"/>
      <point x="979" y="941"/>
      <point x="1062" y="823"/>
      <point x="1062" y="600" type="curve" smooth="yes"/>
      <point x="1062" y="439" type="line"/>
      <point x="1384" y="439" type="line"/>
      <point x="1384" y="736" type="line" smooth="yes"/>
      <point x="1384" y="876"/>
      <point x="1439" y="925"/>
      <point x="1525" y="925" type="curve" smooth="yes"/>
      <point x="1614" y="925"/>
      <point x="1651" y="863"/>
      <point x="1651" y="741" type="curve"/>
      <point x="1651" y="702" type="line" smooth="yes"/>
      <point x="1651" y="484"/>
      <point x="1578" y="394"/>
      <point x="1363" y="381" type="curve" smooth="yes"/>
      <point x="648" y="337" type="line" smooth="yes"/>
      <point x="326" y="317"/>
      <point x="156" y="190"/>
      <point x="156" y="-92" type="curve" smooth="yes"/>
      <point x="156" y="-100" type="line" smooth="yes"/>
      <point x="156" y="-365"/>
      <point x="332" y="-505"/>
      <point x="635" y="-505" type="curve" smooth="yes"/>
      <point x="896" y="-505"/>
      <point x="1019" y="-417"/>
      <point x="1183" y="-225" type="curve" smooth="yes"/>
      <point x="1289" y="-101" type="line" smooth="yes"/>
      <point x="1390" y="18"/>
      <point x="1445" y="63"/>
      <point x="1531" y="63" type="curve" smooth="yes"/>
      <point x="1617" y="63"/>
      <point x="1647" y="15"/>
      <point x="1647" y="-66" type="curve" smooth="yes"/>
      <point x="1647" y="-84" type="line" smooth="yes"/>
      <point x="1647" y="-181"/>
      <point x="1606" y="-233"/>
      <point x="1485" y="-233" type="curve" smooth="yes"/>
      <point x="1416" y="-233"/>
      <point x="1360" y="-223"/>
      <point x="1296" y="-209" type="curve"/>
      <point x="1360" y="-484" type="line"/>
      <point x="1426" y="-500"/>
      <point x="1500" y="-505"/>
      <point x="1569" y="-505" type="curve" smooth="yes"/>
      <point x="1851" y="-505"/>
      <point x="1973" y="-363"/>
      <point x="1973" y="-84" type="curve" smooth="yes"/>
      <point x="1973" y="-81" type="line" smooth="yes"/>
      <point x="1973" y="192"/>
      <point x="1848" y="325"/>
      <point x="1544" y="325" type="curve" smooth="yes"/>
      <point x="1335" y="325"/>
      <point x="1241" y="237"/>
      <point x="1078" y="75" type="curve" smooth="yes"/>
      <point x="900" y="-102" type="line" smooth="yes"/>
      <point x="814" y="-188"/>
      <point x="757" y="-236"/>
      <point x="645" y="-236" type="curve" smooth="yes"/>
      <point x="527" y="-236"/>
      <point x="481" y="-179"/>
      <point x="481" y="-92" type="curve" smooth="yes"/>
      <point x="481" y="-83" type="line" smooth="yes"/>
      <point x="481" y="18"/>
      <point x="539" y="70"/>
      <point x="686" y="78" type="curve" smooth="yes"/>
      <point x="1427" y="119" type="line" smooth="yes"/>
      <point x="1847" y="142"/>
      <point x="1974" y="308"/>
      <point x="1974" y="707" type="curve" smooth="yes"/>
      <point x="1974" y="728" type="line" smooth="yes"/>
      <point x="1974" y="835"/>
      <point x="1951" y="935"/>
      <point x="1897" y="1002" type="curve"/>
      <point x="1897" y="1057" type="line"/>
      <point x="1838" y="1151"/>
      <point x="1742" y="1198"/>
      <point x="1586" y="1198" type="curve" smooth="yes"/>
      <point x="1344" y="1198"/>
      <point x="1240" y="1071"/>
      <point x="1214" y="865" type="curve"/>
      <point x="1207" y="865" type="line"/>
      <point x="1171" y="1055"/>
      <point x="1043" y="1206"/>
    </contour>
    <component base="MatraUuDflt.tm" xOffset="1829"/>
  </outline>
</glyph>
<glyph name="Ja_Fused.tm" format="2">
  <advance width="2079"/>
  <note>
Ja.tm
</note>
  <anchor x="1195" y="1234" name="top"/>
  <outline>
    <contour>
      <point x="718" y="1206" type="curve" smooth="yes"/>
      <point x="322" y="1206"/>
      <point x="105" y="1001"/>
      <point x="105" y="639" type="curve" smooth="yes"/>
      <point x="105" y="532" type="line" smooth="yes"/>
      <point x="105" y="310"/>
      <point x="204" y="161"/>
      <point x="424" y="125" type="curve"/>
      <point x="771" y="210" type="line"/>
      <point x="890" y="265"/>
      <point x="934" y="369"/>
      <point x="934" y="493" type="curve" smooth="yes"/>
      <point x="934" y="539" type="line" smooth="yes"/>
      <point x="934" y="739"/>
      <point x="857" y="851"/>
      <point x="672" y="851" type="curve" smooth="yes"/>
      <point x="519" y="851"/>
      <point x="432" y="761"/>
      <point x="420" y="647" type="curve"/>
      <point x="399" y="647" type="line"/>
      <point x="417" y="539" type="line"/>
      <point x="433" y="579"/>
      <point x="476" y="610"/>
      <point x="527" y="610" type="curve" smooth="yes"/>
      <point x="594" y="610"/>
      <point x="620" y="574"/>
      <point x="620" y="507" type="curve" smooth="yes"/>
      <point x="620" y="431" type="line" smooth="yes"/>
      <point x="620" y="366"/>
      <point x="597" y="325"/>
      <point x="530" y="325" type="curve" smooth="yes"/>
      <point x="453" y="325"/>
      <point x="425" y="370"/>
      <point x="425" y="451" type="curve"/>
      <point x="425" y="647" type="line"/>
      <point x="409" y="647" type="line"/>
      <point x="408" y="824"/>
      <point x="515" y="941"/>
      <point x="742" y="941" type="curve" smooth="yes"/>
      <point x="979" y="941"/>
      <point x="1062" y="824"/>
      <point x="1062" y="605" type="curve" smooth="yes"/>
      <point x="1062" y="439" type="line"/>
      <point x="1384" y="439" type="line"/>
      <point x="1384" y="736" type="line" smooth="yes"/>
      <point x="1384" y="876"/>
      <point x="1439" y="925"/>
      <point x="1525" y="925" type="curve" smooth="yes"/>
      <point x="1614" y="925"/>
      <point x="1651" y="863"/>
      <point x="1651" y="741" type="curve"/>
      <point x="1651" y="702" type="line" smooth="yes"/>
      <point x="1651" y="485"/>
      <point x="1578" y="396"/>
      <point x="1363" y="381" type="curve" smooth="yes"/>
      <point x="687" y="333" type="line"/>
      <point x="371" y="225" type="line"/>
      <point x="234" y="186"/>
      <point x="156" y="82"/>
      <point x="156" y="-92" type="curve" smooth="yes"/>
      <point x="156" y="-100" type="line" smooth="yes"/>
      <point x="156" y="-365"/>
      <point x="332" y="-505"/>
      <point x="635" y="-505" type="curve" smooth="yes"/>
      <point x="895" y="-505"/>
      <point x="1019" y="-417"/>
      <point x="1183" y="-225" type="curve" smooth="yes"/>
      <point x="1289" y="-101" type="line" smooth="yes"/>
      <point x="1390" y="18"/>
      <point x="1445" y="63"/>
      <point x="1531" y="63" type="curve" smooth="yes"/>
      <point x="1617" y="63"/>
      <point x="1647" y="15"/>
      <point x="1647" y="-66" type="curve" smooth="yes"/>
      <point x="1647" y="-84" type="line" smooth="yes"/>
      <point x="1647" y="-181"/>
      <point x="1606" y="-233"/>
      <point x="1485" y="-233" type="curve" smooth="yes"/>
      <point x="1416" y="-233"/>
      <point x="1360" y="-223"/>
      <point x="1296" y="-209" type="curve"/>
      <point x="1360" y="-484" type="line"/>
      <point x="1426" y="-500"/>
      <point x="1500" y="-505"/>
      <point x="1569" y="-505" type="curve" smooth="yes"/>
      <point x="1851" y="-505"/>
      <point x="1973" y="-363"/>
      <point x="1973" y="-84" type="curve" smooth="yes"/>
      <point x="1973" y="-81" type="line" smooth="yes"/>
      <point x="1973" y="117"/>
      <point x="1894" y="249"/>
      <point x="1672" y="278" type="curve"/>
      <point x="1535" y="300" type="line"/>
      <point x="1330" y="300"/>
      <point x="1230" y="226"/>
      <point x="1078" y="75" type="curve" smooth="yes"/>
      <point x="900" y="-102" type="line" smooth="yes"/>
      <point x="814" y="-188"/>
      <point x="757" y="-236"/>
      <point x="645" y="-236" type="curve" smooth="yes"/>
      <point x="527" y="-236"/>
      <point x="481" y="-179"/>
      <point x="481" y="-92" type="curve" smooth="yes"/>
      <point x="481" y="-83" type="line" smooth="yes"/>
      <point x="481" y="18"/>
      <point x="539" y="70"/>
      <point x="686" y="78" type="curve" smooth="yes"/>
      <point x="1427" y="119" type="line" smooth="yes"/>
      <point x="1847" y="142"/>
      <point x="1974" y="310"/>
      <point x="1974" y="713" type="curve" smooth="yes"/>
      <point x="1974" y="738" type="line"/>
      <point x="1974" y="1038"/>
      <point x="1862" y="1198"/>
      <point x="1586" y="1198" type="curve" smooth="yes"/>
      <point x="1344" y="1198"/>
      <point x="1240" y="1071"/>
      <point x="1214" y="865" type="curve"/>
      <point x="1207" y="865" type="line"/>
      <point x="1171" y="1056"/>
      <point x="1043" y="1206"/>
    </contour>
  </outline>
</glyph>
<glyph name="KaComponent_Nonexporting" format="2">
  <advance width="1128"/>
  <outline>
    <contour>
      <point x="874" y="725" type="line"/>
      <point x="473" y="725" type="line"/>
      <point x="226" y="709" type="line"/>
      <point x="34" y="651" type="line"/>
      <point x="20" y="584"/>
      <point x="14" y="506"/>
      <point x="14" y="435" type="curve" smooth="yes"/>
      <point x="14" y="140"/>
      <point x="165" y="-26"/>
      <point x="529" y="-26" type="curve" smooth="yes"/>
      <point x="893" y="-26"/>
      <point x="1024" y="140"/>
      <point x="1024" y="425" type="curve" smooth="yes"/>
      <point x="1024" y="612" type="line"/>
      <point x="1024" y="647" type="line"/>
      <point x="1024" y="1081" type="line"/>
      <point x="721" y="1081" type="line"/>
      <point x="721" y="647" type="line"/>
      <point x="708" y="612" type="line"/>
      <point x="708" y="421" type="line" smooth="yes"/>
      <point x="708" y="308"/>
      <point x="658" y="246"/>
      <point x="525" y="246" type="curve" smooth="yes"/>
      <point x="387" y="246"/>
      <point x="331" y="307"/>
      <point x="331" y="418" type="curve" smooth="yes"/>
      <point x="331" y="431"/>
      <point x="331" y="458"/>
      <point x="332" y="471" type="curve"/>
      <point x="393" y="471" type="line"/>
      <point x="874" y="471" type="line"/>
    </contour>
    <contour>
      <point x="1128" y="1163" type="line"/>
      <point x="213" y="1163" type="line"/>
      <point x="213" y="623" type="line"/>
      <point x="510" y="613" type="line"/>
      <point x="526" y="918" type="line"/>
      <point x="868" y="918" type="line"/>
      <point x="891" y="899" type="line"/>
      <point x="1128" y="899" type="line"/>
    </contour>
  </outline>
</glyph>
<glyph name="KaMatraI.tm" format="2">
  <advance width="1716"/>
  <note>
KaMatraI.tm
</note>
  <outline>
    <contour>
      <point x="987" y="469" type="line"/>
      <point x="1167" y="469" type="line" smooth="yes"/>
      <point x="1261" y="469"/>
      <point x="1296" y="441"/>
      <point x="1296" y="362" type="curve" smooth="yes"/>
      <point x="1296" y="354" type="line" smooth="yes"/>
      <point x="1296" y="283"/>
      <point x="1269" y="246"/>
      <point x="1185" y="246" type="curve" smooth="yes"/>
      <point x="1122" y="246"/>
      <point x="1075" y="264"/>
      <point x="1035" y="288" type="curve"/>
      <point x="1031" y="267" type="line"/>
      <point x="1082" y="-8" type="line"/>
      <point x="1132" y="-20"/>
      <point x="1206" y="-26"/>
      <point x="1270" y="-26" type="curve" smooth="yes"/>
      <point x="1519" y="-26"/>
      <point x="1628" y="98"/>
      <point x="1628" y="343" type="curve" smooth="yes"/>
      <point x="1628" y="376" type="line" smooth="yes"/>
      <point x="1628" y="621"/>
      <point x="1518" y="732"/>
      <point x="1210" y="732" type="curve" smooth="yes"/>
      <point x="987" y="732" type="line"/>
    </contour>
    <contour>
      <point x="1208" y="1786" type="curve" smooth="yes"/>
      <point x="892" y="1786"/>
      <point x="729" y="1614"/>
      <point x="729" y="1362" type="curve" smooth="yes"/>
      <point x="729" y="1358" type="line" smooth="yes"/>
      <point x="729" y="1289"/>
      <point x="745" y="1198"/>
      <point x="771" y="1150" type="curve"/>
      <point x="1082" y="1150" type="line"/>
      <point x="1065" y="1187"/>
      <point x="1055" y="1247"/>
      <point x="1055" y="1312" type="curve" smooth="yes"/>
      <point x="1055" y="1316" type="line" smooth="yes"/>
      <point x="1055" y="1446"/>
      <point x="1101" y="1508"/>
      <point x="1203" y="1508" type="curve" smooth="yes"/>
      <point x="1314" y="1508"/>
      <point x="1350" y="1440"/>
      <point x="1350" y="1281" type="curve" smooth="yes"/>
      <point x="1350" y="793" type="line"/>
      <point x="1676" y="793" type="line"/>
      <point x="1676" y="1264" type="line" smooth="yes"/>
      <point x="1676" y="1621"/>
      <point x="1543" y="1786"/>
    </contour>
    <component base="KaComponent_Nonexporting" xOffset="58"/>
    <component base="KaBeak_Nonexporting" xOffset="983"/>
  </outline>
</glyph>
<glyph name="KaMatraU_Simple.tm" format="2">
  <advance width="2219"/>
  <note>
KaMatraU.tm
</note>
  <outline>
    <contour>
      <point x="1479" y="489" type="line"/>
      <point x="1642" y="489" type="line" smooth="yes"/>
      <point x="1773" y="489"/>
      <point x="1821" y="433"/>
      <point x="1821" y="290" type="curve" smooth="yes"/>
      <point x="1821" y="234" type="line" smooth="yes"/>
      <point x="1821" y="-67"/>
      <point x="1655" y="-230"/>
      <point x="1207" y="-230" type="curve" smooth="yes"/>
      <point x="1201" y="-230" type="line" smooth="yes"/>
      <point x="662" y="-230"/>
      <point x="465" y="-17"/>
      <point x="465" y="432" type="curve" smooth="yes"/>
      <point x="465" y="1163" type="line"/>
      <point x="126" y="1163" type="line"/>
      <point x="126" y="424" type="line" smooth="yes"/>
      <point x="126" y="-207"/>
      <point x="453" y="-519"/>
      <point x="1201" y="-519" type="curve" smooth="yes"/>
      <point x="1208" y="-519" type="line" smooth="yes"/>
      <point x="1864" y="-519"/>
      <point x="2155" y="-257"/>
      <point x="2155" y="233" type="curve" smooth="yes"/>
      <point x="2155" y="304" type="line"/>
      <point x="2155" y="609"/>
      <point x="2027" y="752"/>
      <point x="1670" y="752" type="curve" smooth="yes"/>
      <point x="1479" y="752" type="line"/>
    </contour>
    <component base="KaComponent_Nonexporting" xOffset="615"/>
    <component base="KaBeak_Nonexporting" xOffset="1679"/>
  </outline>
</glyph>
<glyph name="KaMatraUu.tm" format="2">
  <advance width="2532"/>
  <note>
KaMatraUu.tm
</note>
  <outline>
    <contour>
      <point x="976" y="464" type="line"/>
      <point x="1107" y="464" type="line" smooth="yes"/>
      <point x="1232" y="464"/>
      <point x="1268" y="422"/>
      <point x="1268" y="278" type="curve" smooth="yes"/>
      <point x="1268" y="0" type="line"/>
      <point x="1600" y="0" type="line"/>
      <point x="1600" y="347" type="line" smooth="yes"/>
      <point x="1600" y="458"/>
      <point x="1642" y="518"/>
      <point x="1722" y="518" type="curve" smooth="yes"/>
      <point x="1804" y="518"/>
      <point x="1831" y="461"/>
      <point x="1831" y="354" type="curve" smooth="yes"/>
      <point x="1831" y="311" type="line" smooth="yes"/>
      <point x="1831" y="180"/>
      <point x="1810" y="98"/>
      <point x="1758" y="18" type="curve"/>
      <point x="1758" y="0" type="line"/>
      <point x="2498" y="0" type="line"/>
      <point x="2532" y="275" type="line"/>
      <point x="2035" y="275" type="line"/>
      <point x="2103" y="192" type="line"/>
      <point x="2138" y="253"/>
      <point x="2155" y="317"/>
      <point x="2155" y="428" type="curve" smooth="yes"/>
      <point x="2155" y="456" type="line" smooth="yes"/>
      <point x="2155" y="676"/>
      <point x="2051" y="798"/>
      <point x="1805" y="798" type="curve" smooth="yes"/>
      <point x="1563" y="798"/>
      <point x="1445" y="670"/>
      <point x="1445" y="490" type="curve" smooth="yes"/>
      <point x="1445" y="490" type="line"/>
      <point x="1437" y="490" type="line"/>
      <point x="1413" y="664"/>
      <point x="1333" y="732"/>
      <point x="1133" y="732" type="curve" smooth="yes"/>
      <point x="976" y="732" type="line"/>
    </contour>
    <component base="KaComponent_Nonexporting" xOffset="58"/>
    <component base="KaBeak_Nonexporting" xOffset="1130"/>
  </outline>
</glyph>
<glyph name="Kssa.tm" format="2">
  <advance width="3401"/>
  <note>
Ksha.tm
</note>
  <anchor x="1937" y="1234" name="top"/>
  <outline>
    <contour>
      <point x="952" y="464" type="line"/>
      <point x="1107" y="464" type="line" smooth="yes"/>
      <point x="1232" y="464"/>
      <point x="1268" y="422"/>
      <point x="1268" y="278" type="curve" smooth="yes"/>
      <point x="1268" y="0" type="line"/>
      <point x="1600" y="0" type="line"/>
      <point x="1600" y="347" type="line" smooth="yes"/>
      <point x="1600" y="458"/>
      <point x="1642" y="518"/>
      <point x="1722" y="518" type="curve" smooth="yes"/>
      <point x="1804" y="518"/>
      <point x="1831" y="461"/>
      <point x="1831" y="354" type="curve" smooth="yes"/>
      <point x="1831" y="311" type="line" smooth="yes"/>
      <point x="1831" y="180"/>
      <point x="1810" y="98"/>
      <point x="1758" y="18" type="curve"/>
      <point x="1758" y="0" type="line"/>
      <point x="2440" y="0" type="line"/>
      <point x="2440" y="273" type="line"/>
      <point x="2035" y="273" type="line"/>
      <point x="2103" y="192" type="line"/>
      <point x="2138" y="253"/>
      <point x="2155" y="317"/>
      <point x="2155" y="428" type="curve" smooth="yes"/>
      <point x="2155" y="456" type="line" smooth="yes"/>
      <point x="2155" y="676"/>
      <point x="2051" y="798"/>
      <point x="1805" y="798" type="curve" smooth="yes"/>
      <point x="1563" y="798"/>
      <point x="1445" y="670"/>
      <point x="1445" y="490" type="curve" smooth="yes"/>
      <point x="1445" y="490" type="line"/>
      <point x="1437" y="490" type="line"/>
      <point x="1413" y="664"/>
      <point x="1333" y="732"/>
      <point x="1133" y="732" type="curve" smooth="yes"/>
      <point x="952" y="732" type="line"/>
    </contour>
    <component base="KaComponent_Nonexporting" xOffset="58"/>
    <component base="Ssa_Above_NonExporting" xOffset="2028"/>
    <component base="Ssa_Below_NonExporting" xOffset="2396"/>
    <component base="KaBeak_Nonexporting" xOffset="1130"/>
  </outline>
</glyph>
<glyph name="KssaMatraI.tm" format="2">
  <advance width="3975"/>
  <note>
KshaMatraI.tm
</note>
  <anchor x="1937" y="1234" name="top"/>
  <outline>
    <contour>
      <point x="3256" y="1786" type="curve" smooth="yes"/>
      <point x="2869" y="1786"/>
      <point x="2665" y="1584"/>
      <point x="2665" y="1293" type="curve" smooth="yes"/>
      <point x="2665" y="1289" type="line" smooth="yes"/>
      <point x="2665" y="1247"/>
      <point x="2671" y="1196"/>
      <point x="2683" y="1151" type="curve"/>
      <point x="3010" y="1131" type="line"/>
      <point x="2996" y="1165"/>
      <point x="2991" y="1204"/>
      <point x="2991" y="1240" type="curve" smooth="yes"/>
      <point x="2991" y="1240" type="line" smooth="yes"/>
      <point x="2991" y="1414"/>
      <point x="3081" y="1502"/>
      <point x="3251" y="1502" type="curve" smooth="yes"/>
      <point x="3440" y="1502"/>
      <point x="3510" y="1407"/>
      <point x="3510" y="1190" type="curve" smooth="yes"/>
      <point x="3510" y="0" type="line"/>
      <point x="3845" y="0" type="line"/>
      <point x="3845" y="1173" type="line" smooth="yes"/>
      <point x="3845" y="1590"/>
      <point x="3672" y="1786"/>
    </contour>
    <component base="Kssa.tm"/>
  </outline>
</glyph>
<glyph name="KssaMatraI_Fly.tm" format="2">
  <advance width="3391"/>
  <note>
KshaMatraI.tm
</note>
  <anchor x="1937" y="1234" name="top"/>
  <outline>
    <contour>
      <point x="3231" y="1636" type="line"/>
      <point x="2832" y="1636" type="line" smooth="yes"/>
      <point x="2618" y="1636"/>
      <point x="2519" y="1564"/>
      <point x="2519" y="1413" type="curve" smooth="yes"/>
      <point x="2519" y="1334"/>
      <point x="2541" y="1270"/>
      <point x="2617" y="1141" type="curve"/>
      <point x="2934" y="1141" type="line"/>
      <point x="2890" y="1204"/>
      <point x="2863" y="1263"/>
      <point x="2863" y="1299" type="curve" smooth="yes"/>
      <point x="2863" y="1342"/>
      <point x="2886" y="1358"/>
      <point x="2943" y="1358" type="curve" smooth="yes"/>
      <point x="3270" y="1358" type="line"/>
    </contour>
    <component base="Kssa.tm"/>
  </outline>
</glyph>
<glyph name="KssaMatraI_Simple_Fly.tm" format="2">
  <advance width="3391"/>
  <note>
KshaMatraI.tm
</note>
  <anchor x="1937" y="1234" name="top"/>
  <outline>
    <contour>
      <point x="3232" y="1636" type="line"/>
      <point x="2833" y="1636" type="line" smooth="yes"/>
      <point x="2619" y="1636"/>
      <point x="2520" y="1564"/>
      <point x="2520" y="1413" type="curve" smooth="yes"/>
      <point x="2520" y="1334"/>
      <point x="2542" y="1270"/>
      <point x="2618" y="1141" type="curve"/>
      <point x="2935" y="1141" type="line"/>
      <point x="2891" y="1204"/>
      <point x="2864" y="1263"/>
      <point x="2864" y="1299" type="curve" smooth="yes"/>
      <point x="2864" y="1342"/>
      <point x="2887" y="1358"/>
      <point x="2944" y="1358" type="curve" smooth="yes"/>
      <point x="3271" y="1358" type="line"/>
    </contour>
    <component base="Kssa_Simple.tm"/>
  </outline>
</glyph>
<glyph name="KssaMatraIi_Simple_SimpleIi.tm" format="2">
  <advance width="3391"/>
  <note>
KshaMatraIi.tm
</note>
  <anchor x="1937" y="1234" name="top"/>
  <outline>
    <contour>
      <point x="2985" y="1890" type="curve" smooth="yes"/>
      <point x="2681" y="1890"/>
      <point x="2566" y="1739"/>
      <point x="2566" y="1487" type="curve" smooth="yes"/>
      <point x="2566" y="1410" type="line" smooth="yes"/>
      <point x="2566" y="1298"/>
      <point x="2593" y="1217"/>
      <point x="2641" y="1169" type="curve"/>
      <point x="2946" y="1164" type="line"/>
      <point x="2900" y="1216"/>
      <point x="2876" y="1289"/>
      <point x="2876" y="1384" type="curve" smooth="yes"/>
      <point x="2876" y="1451" type="line"/>
      <point x="2876" y="1531" type="line" smooth="yes"/>
      <point x="2876" y="1614"/>
      <point x="2906" y="1651"/>
      <point x="2978" y="1651" type="curve" smooth="yes"/>
      <point x="3040" y="1651"/>
      <point x="3067" y="1618"/>
      <point x="3067" y="1561" type="curve" smooth="yes"/>
      <point x="3067" y="1536" type="line" smooth="yes"/>
      <point x="3067" y="1478"/>
      <point x="3045" y="1448"/>
      <point x="2983" y="1448" type="curve" smooth="yes"/>
      <point x="2929" y="1448"/>
      <point x="2897" y="1463"/>
      <point x="2872" y="1482" type="curve"/>
      <point x="2866" y="1482" type="line"/>
      <point x="2871" y="1414" type="line"/>
      <point x="2887" y="1414" type="line"/>
      <point x="2949" y="1267" type="line"/>
      <point x="2988" y="1248"/>
      <point x="3044" y="1236"/>
      <point x="3109" y="1236" type="curve" smooth="yes"/>
      <point x="3287" y="1236"/>
      <point x="3372" y="1332"/>
      <point x="3372" y="1530" type="curve" smooth="yes"/>
      <point x="3372" y="1547" type="line" smooth="yes"/>
      <point x="3372" y="1762"/>
      <point x="3259" y="1890"/>
    </contour>
    <component base="Kssa_Simple.tm"/>
  </outline>
</glyph>
<glyph name="KssaMatraU.tm" format="2">
  <advance width="4277"/>
  <note>
KshaMatraU.tm
</note>
  <outline>
    <contour>
      <point x="952" y="464" type="line"/>
      <point x="1107" y="464" type="line" smooth="yes"/>
      <point x="1232" y="464"/>
      <point x="1268" y="422"/>
      <point x="1268" y="278" type="curve" smooth="yes"/>
      <point x="1268" y="0" type="line"/>
      <point x="1600" y="0" type="line"/>
      <point x="1600" y="347" type="line" smooth="yes"/>
      <point x="1600" y="458"/>
      <point x="1642" y="518"/>
      <point x="1722" y="518" type="curve" smooth="yes"/>
      <point x="1804" y="518"/>
      <point x="1831" y="461"/>
      <point x="1831" y="354" type="curve" smooth="yes"/>
      <point x="1831" y="311" type="line" smooth="yes"/>
      <point x="1831" y="180"/>
      <point x="1810" y="98"/>
      <point x="1758" y="18" type="curve"/>
      <point x="1758" y="0" type="line"/>
      <point x="2440" y="0" type="line"/>
      <point x="2440" y="270" type="line"/>
      <point x="2035" y="270" type="line"/>
      <point x="2103" y="192" type="line"/>
      <point x="2138" y="253"/>
      <point x="2155" y="317"/>
      <point x="2155" y="428" type="curve" smooth="yes"/>
      <point x="2155" y="456" type="line" smooth="yes"/>
      <point x="2155" y="676"/>
      <point x="2051" y="798"/>
      <point x="1805" y="798" type="curve" smooth="yes"/>
      <point x="1563" y="798"/>
      <point x="1445" y="670"/>
      <point x="1445" y="490" type="curve" smooth="yes"/>
      <point x="1445" y="490" type="line"/>
      <point x="1437" y="490" type="line"/>
      <point x="1413" y="664"/>
      <point x="1333" y="732"/>
      <point x="1133" y="732" type="curve" smooth="yes"/>
      <point x="952" y="732" type="line"/>
    </contour>
    <contour>
      <point x="2029" y="273" type="line"/>
      <point x="2029" y="0" type="line"/>
      <point x="3365" y="0" type="line"/>
      <point x="3399" y="273" type="line"/>
      <point x="2849" y="273" type="line"/>
      <point x="2774" y="229" type="line"/>
      <point x="2692" y="273" type="line"/>
    </contour>
    <contour>
      <point x="2774" y="1197" type="curve" smooth="yes"/>
      <point x="2449" y="1197"/>
      <point x="2302" y="1015"/>
      <point x="2302" y="728" type="curve" smooth="yes"/>
      <point x="2302" y="614" type="line" smooth="yes"/>
      <point x="2302" y="357"/>
      <point x="2401" y="193"/>
      <point x="2684" y="111" type="curve"/>
      <point x="2810" y="220" type="line"/>
      <point x="2683" y="264"/>
      <point x="2643" y="375"/>
      <point x="2643" y="535" type="curve" smooth="yes"/>
      <point x="2643" y="704" type="line" smooth="yes"/>
      <point x="2643" y="834"/>
      <point x="2675" y="908"/>
      <point x="2774" y="908" type="curve" smooth="yes"/>
      <point x="2874" y="908"/>
      <point x="2906" y="834"/>
      <point x="2906" y="704" type="curve" smooth="yes"/>
      <point x="2906" y="535" type="line" smooth="yes"/>
      <point x="2906" y="375"/>
      <point x="2866" y="264"/>
      <point x="2739" y="220" type="curve"/>
      <point x="2864" y="111" type="line"/>
      <point x="3148" y="193"/>
      <point x="3247" y="357"/>
      <point x="3247" y="614" type="curve" smooth="yes"/>
      <point x="3247" y="720" type="line" smooth="yes"/>
      <point x="3247" y="840"/>
      <point x="3222" y="926"/>
      <point x="3144" y="991" type="curve"/>
      <point x="3153" y="1046" type="line"/>
      <point x="3080" y="1145"/>
      <point x="2961" y="1197"/>
    </contour>
    <contour>
      <point x="3266" y="1163" type="line"/>
      <point x="2930" y="1163" type="line"/>
      <point x="2930" y="891" type="line"/>
      <point x="3266" y="891" type="line"/>
    </contour>
    <component base="KaComponent_Nonexporting" xOffset="58"/>
    <component base="KaBeak_Nonexporting" xOffset="1130"/>
    <component base="MatraUDflt.tm" xOffset="3130"/>
    <component base="Ssa_Below_NonExporting" xOffset="2396"/>
  </outline>
</glyph>
<glyph name="LaMatraI_Fly.tm" format="2">
  <advance width="2082"/>
  <note>
LaMatraI.tm
</note>
  <outline>
    <contour>
      <point x="758" y="1198" type="curve" smooth="yes"/>
      <point x="311" y="1198"/>
      <point x="88" y="954"/>
      <point x="88" y="540" type="curve" smooth="yes"/>
      <point x="88" y="432" type="line" smooth="yes"/>
      <point x="88" y="160"/>
      <point x="217" y="-26"/>
      <point x="525" y="-26" type="curve" smooth="yes"/>
      <point x="819" y="-26"/>
      <point x="932" y="133"/>
      <point x="932" y="368" type="curve" smooth="yes"/>
      <point x="932" y="423" type="line" smooth="yes"/>
      <point x="932" y="641"/>
      <point x="848" y="757"/>
      <point x="667" y="757" type="curve" smooth="yes"/>
      <point x="507" y="757"/>
      <point x="423" y="662"/>
      <point x="410" y="548" type="curve"/>
      <point x="395" y="548" type="line"/>
      <point x="404" y="425" type="line"/>
      <point x="417" y="457"/>
      <point x="460" y="496"/>
      <point x="514" y="496" type="curve" smooth="yes"/>
      <point x="584" y="496"/>
      <point x="610" y="460"/>
      <point x="610" y="388" type="curve" smooth="yes"/>
      <point x="610" y="348" type="line" smooth="yes"/>
      <point x="610" y="279"/>
      <point x="586" y="236"/>
      <point x="519" y="236" type="curve" smooth="yes"/>
      <point x="441" y="236"/>
      <point x="413" y="282"/>
      <point x="413" y="367" type="curve"/>
      <point x="413" y="548" type="line"/>
      <point x="402" y="548" type="line"/>
      <point x="402" y="557"/>
      <point x="402" y="557"/>
      <point x="402" y="566" type="curve" smooth="yes"/>
      <point x="407" y="796"/>
      <point x="514" y="913"/>
      <point x="752" y="913" type="curve" smooth="yes"/>
      <point x="972" y="913"/>
      <point x="1069" y="805"/>
      <point x="1069" y="566" type="curve" smooth="yes"/>
      <point x="1069" y="460" type="line" smooth="yes"/>
      <point x="1069" y="145"/>
      <point x="1198" y="-26"/>
      <point x="1533" y="-26" type="curve" smooth="yes"/>
      <point x="1871" y="-26"/>
      <point x="1995" y="153"/>
      <point x="1995" y="484" type="curve" smooth="yes"/>
      <point x="1995" y="680" type="line" smooth="yes"/>
      <point x="1995" y="1019"/>
      <point x="1891" y="1183"/>
      <point x="1598" y="1183" type="curve" smooth="yes"/>
      <point x="1539" y="1183"/>
      <point x="1496" y="1178"/>
      <point x="1448" y="1166" type="curve"/>
      <point x="1655" y="1110" type="line"/>
      <point x="1606" y="1218"/>
      <point x="1587" y="1260"/>
      <point x="1587" y="1299" type="curve" smooth="yes"/>
      <point x="1587" y="1342"/>
      <point x="1609" y="1358"/>
      <point x="1667" y="1358" type="curve" smooth="yes"/>
      <point x="2029" y="1358" type="line"/>
      <point x="1990" y="1636" type="line"/>
      <point x="1557" y="1636" type="line" smooth="yes"/>
      <point x="1346" y="1636"/>
      <point x="1247" y="1561"/>
      <point x="1247" y="1399" type="curve" smooth="yes"/>
      <point x="1247" y="1296"/>
      <point x="1276" y="1218"/>
      <point x="1411" y="905" type="curve"/>
      <point x="1430" y="909"/>
      <point x="1448" y="911"/>
      <point x="1469" y="911" type="curve" smooth="yes"/>
      <point x="1612" y="911"/>
      <point x="1655" y="836"/>
      <point x="1655" y="669" type="curve" smooth="yes"/>
      <point x="1655" y="472" type="line" smooth="yes"/>
      <point x="1655" y="331"/>
      <point x="1628" y="257"/>
      <point x="1533" y="257" type="curve" smooth="yes"/>
      <point x="1436" y="257"/>
      <point x="1404" y="323"/>
      <point x="1404" y="463" type="curve" smooth="yes"/>
      <point x="1404" y="571" type="line" smooth="yes"/>
      <point x="1404" y="982"/>
      <point x="1227" y="1198"/>
    </contour>
  </outline>
</glyph>
<glyph name="LaMatraIi.tm" format="2">
  <advance width="2082"/>
  <note>
LaMatraIi.tm
</note>
  <outline>
    <contour>
      <point x="1602" y="1388" type="line" smooth="yes"/>
      <point x="1602" y="1604"/>
      <point x="1681" y="1696"/>
      <point x="1854" y="1703" type="curve"/>
      <point x="1854" y="1691" type="line"/>
      <point x="1883" y="1697"/>
      <point x="1916" y="1701"/>
      <point x="1950" y="1701" type="curve" smooth="yes"/>
      <point x="2047" y="1701"/>
      <point x="2080" y="1653"/>
      <point x="2080" y="1569" type="curve" smooth="yes"/>
      <point x="2080" y="1557" type="line" smooth="yes"/>
      <point x="2080" y="1496"/>
      <point x="2060" y="1461"/>
      <point x="2015" y="1461" type="curve" smooth="yes"/>
      <point x="1962" y="1461"/>
      <point x="1942" y="1498"/>
      <point x="1942" y="1565" type="curve" smooth="yes"/>
      <point x="1942" y="1586" type="line" smooth="yes"/>
      <point x="1942" y="1636"/>
      <point x="1949" y="1672"/>
      <point x="1967" y="1705" type="curve"/>
      <point x="1854" y="1706" type="line"/>
      <point x="1854" y="1696" type="line"/>
      <point x="1756" y="1668"/>
      <point x="1699" y="1613"/>
      <point x="1699" y="1504" type="curve" smooth="yes"/>
      <point x="1699" y="1500" type="line" smooth="yes"/>
      <point x="1699" y="1346"/>
      <point x="1795" y="1247"/>
      <point x="2016" y="1247" type="curve" smooth="yes"/>
      <point x="2249" y="1247"/>
      <point x="2361" y="1362"/>
      <point x="2361" y="1566" type="curve" smooth="yes"/>
      <point x="2361" y="1570" type="line" smooth="yes"/>
      <point x="2361" y="1798"/>
      <point x="2211" y="1944"/>
      <point x="1875" y="1944" type="curve" smooth="yes"/>
      <point x="1466" y="1944"/>
      <point x="1289" y="1745"/>
      <point x="1289" y="1409" type="curve" smooth="yes"/>
      <point x="1289" y="1400" type="line" smooth="yes"/>
      <point x="1289" y="1216"/>
      <point x="1336" y="1024"/>
      <point x="1404" y="905" type="curve"/>
      <point x="1425" y="908"/>
      <point x="1446" y="911"/>
      <point x="1469" y="911" type="curve" smooth="yes"/>
      <point x="1612" y="911"/>
      <point x="1655" y="836"/>
      <point x="1655" y="669" type="curve" smooth="yes"/>
      <point x="1655" y="472" type="line" smooth="yes"/>
      <point x="1655" y="331"/>
      <point x="1628" y="257"/>
      <point x="1533" y="257" type="curve" smooth="yes"/>
      <point x="1436" y="257"/>
      <point x="1404" y="323"/>
      <point x="1404" y="463" type="curve" smooth="yes"/>
      <point x="1404" y="571" type="line" smooth="yes"/>
      <point x="1404" y="982"/>
      <point x="1227" y="1198"/>
      <point x="758" y="1198" type="curve" smooth="yes"/>
      <point x="311" y="1198"/>
      <point x="88" y="954"/>
      <point x="88" y="540" type="curve" smooth="yes"/>
      <point x="88" y="432" type="line" smooth="yes"/>
      <point x="88" y="160"/>
      <point x="217" y="-26"/>
      <point x="525" y="-26" type="curve" smooth="yes"/>
      <point x="819" y="-26"/>
      <point x="932" y="133"/>
      <point x="932" y="368" type="curve" smooth="yes"/>
      <point x="932" y="423" type="line" smooth="yes"/>
      <point x="932" y="641"/>
      <point x="848" y="757"/>
      <point x="667" y="757" type="curve" smooth="yes"/>
      <point x="507" y="757"/>
      <point x="423" y="662"/>
      <point x="410" y="548" type="curve"/>
      <point x="395" y="548" type="line"/>
      <point x="404" y="425" type="line"/>
      <point x="417" y="457"/>
      <point x="460" y="496"/>
      <point x="514" y="496" type="curve" smooth="yes"/>
      <point x="584" y="496"/>
      <point x="610" y="460"/>
      <point x="610" y="388" type="curve" smooth="yes"/>
      <point x="610" y="348" type="line" smooth="yes"/>
      <point x="610" y="279"/>
      <point x="586" y="236"/>
      <point x="519" y="236" type="curve" smooth="yes"/>
      <point x="441" y="236"/>
      <point x="413" y="282"/>
      <point x="413" y="367" type="curve"/>
      <point x="413" y="548" type="line"/>
      <point x="402" y="548" type="line"/>
      <point x="402" y="557"/>
      <point x="402" y="557"/>
      <point x="402" y="566" type="curve" smooth="yes"/>
      <point x="407" y="796"/>
      <point x="514" y="913"/>
      <point x="752" y="913" type="curve" smooth="yes"/>
      <point x="972" y="913"/>
      <point x="1069" y="805"/>
      <point x="1069" y="566" type="curve" smooth="yes"/>
      <point x="1069" y="460" type="line" smooth="yes"/>
      <point x="1069" y="145"/>
      <point x="1198" y="-26"/>
      <point x="1533" y="-26" type="curve" smooth="yes"/>
      <point x="1871" y="-26"/>
      <point x="1995" y="153"/>
      <point x="1995" y="484" type="curve" smooth="yes"/>
      <point x="1995" y="680" type="line" smooth="yes"/>
      <point x="1995" y="1019"/>
      <point x="1891" y="1176"/>
      <point x="1610" y="1176" type="curve" smooth="yes"/>
      <point x="1546" y="1176"/>
      <point x="1497" y="1167"/>
      <point x="1448" y="1150" type="curve"/>
      <point x="1666" y="1112" type="line"/>
      <point x="1620" y="1182"/>
      <point x="1602" y="1303"/>
      <point x="1602" y="1378" type="curve" smooth="yes"/>
    </contour>
  </outline>
</glyph>
<glyph name="LaMatraIi_SimpleIi.tm" format="2">
  <advance width="2082"/>
  <note>
LaMatraIi.tm
</note>
  <outline>
    <contour>
      <point x="758" y="1198" type="curve" smooth="yes"/>
      <point x="311" y="1198"/>
      <point x="88" y="954"/>
      <point x="88" y="540" type="curve" smooth="yes"/>
      <point x="88" y="432" type="line" smooth="yes"/>
      <point x="88" y="160"/>
      <point x="217" y="-26"/>
      <point x="525" y="-26" type="curve" smooth="yes"/>
      <point x="819" y="-26"/>
      <point x="932" y="133"/>
      <point x="932" y="368" type="curve" smooth="yes"/>
      <point x="932" y="423" type="line" smooth="yes"/>
      <point x="932" y="641"/>
      <point x="848" y="757"/>
      <point x="667" y="757" type="curve" smooth="yes"/>
      <point x="507" y="757"/>
      <point x="423" y="662"/>
      <point x="410" y="548" type="curve"/>
      <point x="395" y="548" type="line"/>
      <point x="404" y="425" type="line"/>
      <point x="417" y="457"/>
      <point x="460" y="496"/>
      <point x="514" y="496" type="curve" smooth="yes"/>
      <point x="584" y="496"/>
      <point x="610" y="460"/>
      <point x="610" y="388" type="curve" smooth="yes"/>
      <point x="610" y="348" type="line" smooth="yes"/>
      <point x="610" y="279"/>
      <point x="586" y="236"/>
      <point x="519" y="236" type="curve" smooth="yes"/>
      <point x="441" y="236"/>
      <point x="413" y="282"/>
      <point x="413" y="367" type="curve"/>
      <point x="413" y="548" type="line"/>
      <point x="402" y="548" type="line"/>
      <point x="402" y="557"/>
      <point x="402" y="557"/>
      <point x="402" y="566" type="curve" smooth="yes"/>
      <point x="407" y="796"/>
      <point x="514" y="913"/>
      <point x="752" y="913" type="curve" smooth="yes"/>
      <point x="972" y="913"/>
      <point x="1069" y="805"/>
      <point x="1069" y="566" type="curve" smooth="yes"/>
      <point x="1069" y="460" type="line" smooth="yes"/>
      <point x="1069" y="145"/>
      <point x="1198" y="-26"/>
      <point x="1533" y="-26" type="curve" smooth="yes"/>
      <point x="1871" y="-26"/>
      <point x="1995" y="153"/>
      <point x="1995" y="484" type="curve" smooth="yes"/>
      <point x="1995" y="680" type="line" smooth="yes"/>
      <point x="1995" y="1020"/>
      <point x="1891" y="1176"/>
      <point x="1610" y="1176" type="curve" smooth="yes"/>
      <point x="1546" y="1176"/>
      <point x="1497" y="1169"/>
      <point x="1448" y="1150" type="curve"/>
      <point x="1697" y="1108" type="line"/>
      <point x="1697" y="1417" type="line"/>
      <point x="1693" y="1451" type="line"/>
      <point x="1693" y="1531" type="line" smooth="yes"/>
      <point x="1693" y="1614"/>
      <point x="1723" y="1651"/>
      <point x="1795" y="1651" type="curve" smooth="yes"/>
      <point x="1857" y="1651"/>
      <point x="1884" y="1618"/>
      <point x="1884" y="1561" type="curve" smooth="yes"/>
      <point x="1884" y="1536" type="line" smooth="yes"/>
      <point x="1884" y="1478"/>
      <point x="1862" y="1448"/>
      <point x="1799" y="1448" type="curve" smooth="yes"/>
      <point x="1746" y="1448"/>
      <point x="1714" y="1463"/>
      <point x="1689" y="1482" type="curve"/>
      <point x="1683" y="1482" type="line"/>
      <point x="1687" y="1414" type="line"/>
      <point x="1704" y="1414" type="line"/>
      <point x="1766" y="1267" type="line"/>
      <point x="1805" y="1248"/>
      <point x="1859" y="1236"/>
      <point x="1923" y="1236" type="curve" smooth="yes"/>
      <point x="2098" y="1236"/>
      <point x="2181" y="1332"/>
      <point x="2181" y="1530" type="curve" smooth="yes"/>
      <point x="2181" y="1547" type="line" smooth="yes"/>
      <point x="2181" y="1762"/>
      <point x="2070" y="1890"/>
      <point x="1800" y="1890" type="curve" smooth="yes"/>
      <point x="1500" y="1890"/>
      <point x="1387" y="1740"/>
      <point x="1387" y="1485" type="curve"/>
      <point x="1387" y="902" type="line"/>
      <point x="1412" y="907"/>
      <point x="1440" y="911"/>
      <point x="1469" y="911" type="curve" smooth="yes"/>
      <point x="1612" y="911"/>
      <point x="1655" y="836"/>
      <point x="1655" y="669" type="curve" smooth="yes"/>
      <point x="1655" y="472" type="line" smooth="yes"/>
      <point x="1655" y="331"/>
      <point x="1628" y="257"/>
      <point x="1533" y="257" type="curve" smooth="yes"/>
      <point x="1436" y="257"/>
      <point x="1404" y="323"/>
      <point x="1404" y="463" type="curve" smooth="yes"/>
      <point x="1404" y="571" type="line" smooth="yes"/>
      <point x="1404" y="982"/>
      <point x="1227" y="1198"/>
    </contour>
  </outline>
</glyph>
<glyph name="LaMatraU.tm" format="2">
  <advance width="2687"/>
  <note>
LaMatraU.tm
</note>
  <anchor x="1206" y="1234" name="top"/>
  <outline>
    <contour>
      <point x="2222" y="1163" type="line"/>
      <point x="2222" y="-303" type="line"/>
      <point x="2557" y="-303" type="line"/>
      <point x="2557" y="1163" type="line"/>
    </contour>
    <contour>
      <point x="884" y="-842" type="curve" smooth="yes"/>
      <point x="1390" y="-842"/>
      <point x="1645" y="-626"/>
      <point x="1681" y="-298" type="curve"/>
      <point x="1683" y="-231" type="line"/>
      <point x="1693" y="-154"/>
      <point x="1701" y="-71"/>
      <point x="1702" y="40" type="curve"/>
      <point x="1363" y="40" type="line"/>
      <point x="1363" y="-57"/>
      <point x="1356" y="-141"/>
      <point x="1349" y="-205" type="curve"/>
      <point x="1339" y="-287" type="line"/>
      <point x="1325" y="-457"/>
      <point x="1180" y="-577"/>
      <point x="884" y="-577" type="curve" smooth="yes"/>
      <point x="600" y="-577"/>
      <point x="459" y="-478"/>
      <point x="438" y="-371" type="curve"/>
      <point x="2557" y="-371" type="line"/>
      <point x="2557" y="-116" type="line"/>
      <point x="42" y="-116" type="line"/>
      <point x="50" y="-584"/>
      <point x="339" y="-842"/>
    </contour>
    <component base="La.tm"/>
  </outline>
</glyph>
<glyph name="LlaMatraU.tm" format="2">
  <advance width="3232"/>
  <note>
LlaMatraU.tm
</note>
  <outline>
    <contour>
      <point x="2852" y="757" type="curve" smooth="yes"/>
      <point x="2695" y="757"/>
      <point x="2608" y="666"/>
      <point x="2589" y="541" type="curve"/>
      <point x="2543" y="541" type="line"/>
      <point x="2543" y="369" type="line"/>
      <point x="2565" y="369" type="line"/>
      <point x="2581" y="434"/>
      <point x="2632" y="479"/>
      <point x="2699" y="479" type="curve" smooth="yes"/>
      <point x="2785" y="479"/>
      <point x="2819" y="420"/>
      <point x="2819" y="290" type="curve" smooth="yes"/>
      <point x="2819" y="285" type="line" smooth="yes"/>
      <point x="2819" y="-115"/>
      <point x="2551" y="-318"/>
      <point x="1768" y="-318" type="curve" smooth="yes"/>
      <point x="1714" y="-318" type="line" smooth="yes"/>
      <point x="769" y="-318"/>
      <point x="456" y="-14"/>
      <point x="456" y="615" type="curve" smooth="yes"/>
      <point x="456" y="845"/>
      <point x="474" y="994"/>
      <point x="510" y="1163" type="curve"/>
      <point x="167" y="1163" type="line"/>
      <point x="138" y="1032"/>
      <point x="116" y="851"/>
      <point x="116" y="608" type="curve" smooth="yes"/>
      <point x="116" y="-197"/>
      <point x="581" y="-605"/>
      <point x="1725" y="-605" type="curve" smooth="yes"/>
      <point x="1768" y="-605" type="line" smooth="yes"/>
      <point x="2763" y="-605"/>
      <point x="3157" y="-295"/>
      <point x="3157" y="289" type="curve" smooth="yes"/>
      <point x="3157" y="321" type="line" smooth="yes"/>
      <point x="3157" y="608"/>
      <point x="3069" y="757"/>
    </contour>
    <contour>
      <point x="2241" y="1087" type="line"/>
      <point x="2241" y="0" type="line"/>
      <point x="2577" y="0" type="line"/>
      <point x="2577" y="1087" type="line"/>
    </contour>
    <contour>
      <point x="1304" y="1198" type="curve" smooth="yes"/>
      <point x="878" y="1198"/>
      <point x="668" y="954"/>
      <point x="668" y="540" type="curve" smooth="yes"/>
      <point x="668" y="432" type="line" smooth="yes"/>
      <point x="668" y="160"/>
      <point x="797" y="-26"/>
      <point x="1105" y="-26" type="curve" smooth="yes"/>
      <point x="1399" y="-26"/>
      <point x="1512" y="133"/>
      <point x="1512" y="368" type="curve" smooth="yes"/>
      <point x="1512" y="423" type="line" smooth="yes"/>
      <point x="1512" y="641"/>
      <point x="1428" y="757"/>
      <point x="1247" y="757" type="curve" smooth="yes"/>
      <point x="1087" y="757"/>
      <point x="1003" y="662"/>
      <point x="990" y="548" type="curve"/>
      <point x="975" y="548" type="line"/>
      <point x="984" y="425" type="line"/>
      <point x="997" y="457"/>
      <point x="1040" y="496"/>
      <point x="1094" y="496" type="curve" smooth="yes"/>
      <point x="1164" y="496"/>
      <point x="1190" y="460"/>
      <point x="1190" y="388" type="curve" smooth="yes"/>
      <point x="1190" y="348" type="line" smooth="yes"/>
      <point x="1190" y="279"/>
      <point x="1166" y="236"/>
      <point x="1099" y="236" type="curve" smooth="yes"/>
      <point x="1021" y="236"/>
      <point x="993" y="282"/>
      <point x="993" y="367" type="curve"/>
      <point x="993" y="548" type="line"/>
      <point x="982" y="548" type="line"/>
      <point x="982" y="557"/>
      <point x="982" y="557"/>
      <point x="982" y="566" type="curve" smooth="yes"/>
      <point x="987" y="796"/>
      <point x="1092" y="913"/>
      <point x="1333" y="913" type="curve" smooth="yes"/>
      <point x="1576" y="913"/>
      <point x="1672" y="786"/>
      <point x="1672" y="516" type="curve" smooth="yes"/>
      <point x="1672" y="0" type="line"/>
      <point x="2007" y="0" type="line"/>
      <point x="2007" y="890" type="line"/>
      <point x="2545" y="890" type="line"/>
      <point x="2545" y="1163" type="line"/>
      <point x="1788" y="1163" type="line"/>
      <point x="1788" y="908" type="line"/>
      <point x="1781" y="908" type="line"/>
      <point x="1730" y="1082"/>
      <point x="1589" y="1198"/>
    </contour>
    <component base="RaBeak_Nonexporting" xOffset="2416"/>
  </outline>
</glyph>
<glyph name="LlaMatraU_Simple.tm" format="2">
  <advance width="3242"/>
  <note>
LlaMatraU.tm
</note>
  <outline>
    <contour>
      <point x="2862" y="757" type="curve" smooth="yes"/>
      <point x="2705" y="757"/>
      <point x="2618" y="666"/>
      <point x="2599" y="541" type="curve"/>
      <point x="2553" y="541" type="line"/>
      <point x="2553" y="369" type="line"/>
      <point x="2575" y="369" type="line"/>
      <point x="2591" y="434"/>
      <point x="2642" y="479"/>
      <point x="2709" y="479" type="curve" smooth="yes"/>
      <point x="2795" y="479"/>
      <point x="2829" y="420"/>
      <point x="2829" y="290" type="curve" smooth="yes"/>
      <point x="2829" y="285" type="line" smooth="yes"/>
      <point x="2829" y="-115"/>
      <point x="2561" y="-318"/>
      <point x="1778" y="-318" type="curve" smooth="yes"/>
      <point x="1724" y="-318" type="line" smooth="yes"/>
      <point x="779" y="-318"/>
      <point x="466" y="-14"/>
      <point x="466" y="615" type="curve"/>
      <point x="466" y="1163" type="line"/>
      <point x="126" y="1163" type="line"/>
      <point x="126" y="608" type="line"/>
      <point x="126" y="-197"/>
      <point x="591" y="-605"/>
      <point x="1735" y="-605" type="curve" smooth="yes"/>
      <point x="1778" y="-605" type="line" smooth="yes"/>
      <point x="2773" y="-605"/>
      <point x="3167" y="-295"/>
      <point x="3167" y="289" type="curve" smooth="yes"/>
      <point x="3167" y="321" type="line" smooth="yes"/>
      <point x="3167" y="608"/>
      <point x="3079" y="757"/>
    </contour>
    <contour>
      <point x="2251" y="1087" type="line"/>
      <point x="2251" y="0" type="line"/>
      <point x="2587" y="0" type="line"/>
      <point x="2587" y="1087" type="line"/>
    </contour>
    <contour>
      <point x="1314" y="1198" type="curve" smooth="yes"/>
      <point x="888" y="1198"/>
      <point x="678" y="954"/>
      <point x="678" y="540" type="curve" smooth="yes"/>
      <point x="678" y="432" type="line" smooth="yes"/>
      <point x="678" y="160"/>
      <point x="807" y="-26"/>
      <point x="1115" y="-26" type="curve" smooth="yes"/>
      <point x="1409" y="-26"/>
      <point x="1522" y="133"/>
      <point x="1522" y="368" type="curve" smooth="yes"/>
      <point x="1522" y="423" type="line" smooth="yes"/>
      <point x="1522" y="641"/>
      <point x="1438" y="757"/>
      <point x="1257" y="757" type="curve" smooth="yes"/>
      <point x="1097" y="757"/>
      <point x="1013" y="662"/>
      <point x="1000" y="548" type="curve"/>
      <point x="985" y="548" type="line"/>
      <point x="994" y="425" type="line"/>
      <point x="1007" y="457"/>
      <point x="1050" y="496"/>
      <point x="1104" y="496" type="curve" smooth="yes"/>
      <point x="1174" y="496"/>
      <point x="1200" y="460"/>
      <point x="1200" y="388" type="curve" smooth="yes"/>
      <point x="1200" y="348" type="line" smooth="yes"/>
      <point x="1200" y="279"/>
      <point x="1176" y="236"/>
      <point x="1109" y="236" type="curve" smooth="yes"/>
      <point x="1031" y="236"/>
      <point x="1003" y="282"/>
      <point x="1003" y="367" type="curve"/>
      <point x="1003" y="548" type="line"/>
      <point x="992" y="548" type="line"/>
      <point x="992" y="557"/>
      <point x="992" y="557"/>
      <point x="992" y="566" type="curve" smooth="yes"/>
      <point x="997" y="796"/>
      <point x="1102" y="913"/>
      <point x="1343" y="913" type="curve" smooth="yes"/>
      <point x="1586" y="913"/>
      <point x="1682" y="786"/>
      <point x="1682" y="516" type="curve" smooth="yes"/>
      <point x="1682" y="0" type="line"/>
      <point x="2017" y="0" type="line"/>
      <point x="2017" y="890" type="line"/>
      <point x="2555" y="890" type="line"/>
      <point x="2555" y="1163" type="line"/>
      <point x="1798" y="1163" type="line"/>
      <point x="1798" y="908" type="line"/>
      <point x="1791" y="908" type="line"/>
      <point x="1740" y="1082"/>
      <point x="1599" y="1198"/>
    </contour>
    <component base="RaBeak_Nonexporting" xOffset="2426"/>
  </outline>
</glyph>
<glyph name="LllaMatraI_Fly.tm" format="2">
  <advance width="1759"/>
  <note>
LllaMatraI.tm
</note>
  <anchor x="924" y="1234" name="top"/>
  <outline>
    <contour>
      <point x="796" y="-719" type="curve" smooth="yes"/>
      <point x="1084" y="-719"/>
      <point x="1175" y="-605"/>
      <point x="1256" y="-422" type="curve" smooth="yes"/>
      <point x="1264" y="-409" type="line" smooth="yes"/>
      <point x="1285" y="-370"/>
      <point x="1295" y="-358"/>
      <point x="1340" y="-358" type="curve" smooth="yes"/>
      <point x="1418" y="-358" type="line"/>
      <point x="1457" y="-101" type="line"/>
      <point x="1179" y="-101" type="line" smooth="yes"/>
      <point x="1075" y="-101"/>
      <point x="1046" y="-72"/>
      <point x="1046" y="16" type="curve" smooth="yes"/>
      <point x="1046" y="160" type="line"/>
      <point x="719" y="160" type="line"/>
      <point x="719" y="-3" type="line" smooth="yes"/>
      <point x="719" y="-192"/>
      <point x="783" y="-286"/>
      <point x="976" y="-305" type="curve"/>
      <point x="976" y="-313" type="line"/>
      <point x="959" y="-319"/>
      <point x="948" y="-334"/>
      <point x="935" y="-359" type="curve" smooth="yes"/>
      <point x="930" y="-367" type="line" smooth="yes"/>
      <point x="901" y="-423"/>
      <point x="875" y="-460"/>
      <point x="797" y="-460" type="curve" smooth="yes"/>
      <point x="701" y="-460"/>
      <point x="656" y="-404"/>
      <point x="656" y="-303" type="curve" smooth="yes"/>
      <point x="656" y="-263"/>
      <point x="658" y="-226"/>
      <point x="661" y="-188" type="curve"/>
      <point x="337" y="-188" type="line"/>
      <point x="335" y="-222"/>
      <point x="333" y="-258"/>
      <point x="333" y="-294" type="curve" smooth="yes"/>
      <point x="333" y="-555"/>
      <point x="480" y="-719"/>
    </contour>
    <component base="MaMatraI_Fly.tm"/>
  </outline>
</glyph>
<glyph name="LllaMatraIi_Simple_SimpleIi.tm" format="2">
  <advance width="1759"/>
  <note>
LllaMatraIi.tm
</note>
  <anchor x="924" y="1234" name="top"/>
  <outline>
    <contour>
      <point x="717" y="152" type="line"/>
      <point x="717" y="-9" type="line" smooth="yes"/>
      <point x="717" y="-108"/>
      <point x="702" y="-140"/>
      <point x="606" y="-140" type="curve" smooth="yes"/>
      <point x="8" y="-140" type="line"/>
      <point x="50" y="-417" type="line"/>
      <point x="627" y="-417" type="line"/>
      <point x="808" y="-417"/>
      <point x="871" y="-366"/>
      <point x="888" y="-202" type="curve"/>
      <point x="896" y="-202" type="line"/>
      <point x="919" y="-366"/>
      <point x="973" y="-417"/>
      <point x="1134" y="-417" type="curve" smooth="yes"/>
      <point x="1454" y="-417" type="line"/>
      <point x="1493" y="-147" type="line"/>
      <point x="1179" y="-147" type="line" smooth="yes"/>
      <point x="1076" y="-147"/>
      <point x="1048" y="-110"/>
      <point x="1048" y="-1" type="curve" smooth="yes"/>
      <point x="1048" y="152" type="line"/>
    </contour>
    <component base="MaMatraIi_SimpleIi.tm"/>
  </outline>
</glyph>
<glyph name="LllaMatraU.tm" format="2">
  <advance width="2384"/>
  <note>
LllaMatraU.tm
</note>
  <anchor x="1549" y="1234" name="top"/>
  <outline>
    <contour>
      <point x="212" y="1163" type="line"/>
      <point x="157" y="988"/>
      <point x="112" y="738"/>
      <point x="112" y="396" type="curve" smooth="yes"/>
      <point x="112" y="-325"/>
      <point x="426" y="-675"/>
      <point x="1119" y="-675" type="curve" smooth="yes"/>
      <point x="1485" y="-675"/>
      <point x="1698" y="-556"/>
      <point x="1871" y="-417" type="curve" smooth="yes"/>
      <point x="1886" y="-405" type="line" smooth="yes"/>
      <point x="1917" y="-380"/>
      <point x="1941" y="-367"/>
      <point x="1978" y="-367" type="curve" smooth="yes"/>
      <point x="2059" y="-367" type="line"/>
      <point x="2097" y="-112" type="line"/>
      <point x="1819" y="-112" type="line" smooth="yes"/>
      <point x="1715" y="-112"/>
      <point x="1686" y="-78"/>
      <point x="1686" y="27" type="curve" smooth="yes"/>
      <point x="1686" y="160" type="line"/>
      <point x="1359" y="160" type="line"/>
      <point x="1359" y="9" type="line" smooth="yes"/>
      <point x="1359" y="-125"/>
      <point x="1424" y="-236"/>
      <point x="1591" y="-259" type="curve"/>
      <point x="1591" y="-265" type="line"/>
      <point x="1574" y="-270"/>
      <point x="1552" y="-280"/>
      <point x="1532" y="-292" type="curve" smooth="yes"/>
      <point x="1522" y="-298" type="line" smooth="yes"/>
      <point x="1442" y="-346"/>
      <point x="1308" y="-390"/>
      <point x="1122" y="-390" type="curve" smooth="yes"/>
      <point x="626" y="-390"/>
      <point x="451" y="-127"/>
      <point x="451" y="385" type="curve" smooth="yes"/>
      <point x="451" y="716"/>
      <point x="489" y="947"/>
      <point x="556" y="1163" type="curve"/>
    </contour>
    <component base="Ma.tm" xOffset="625"/>
  </outline>
</glyph>
<glyph name="LllaMatraUu.tm" format="2">
  <advance width="2736"/>
  <note>
LllaMatraUu.tm
</note>
  <anchor x="1901" y="1234" name="top"/>
  <outline>
    <contour>
      <point x="1307" y="-411" type="curve" smooth="yes"/>
      <point x="680" y="-411"/>
      <point x="426" y="-137"/>
      <point x="426" y="459" type="curve" smooth="yes"/>
      <point x="426" y="494"/>
      <point x="426" y="525"/>
      <point x="426" y="557" type="curve"/>
      <point x="426" y="709" type="line"/>
      <point x="426" y="853"/>
      <point x="456" y="923"/>
      <point x="543" y="923" type="curve" smooth="yes"/>
      <point x="610" y="923"/>
      <point x="636" y="875"/>
      <point x="636" y="788" type="curve" smooth="yes"/>
      <point x="636" y="726" type="line" smooth="yes"/>
      <point x="636" y="630"/>
      <point x="608" y="585"/>
      <point x="527" y="585" type="curve" smooth="yes"/>
      <point x="477" y="585"/>
      <point x="434" y="610"/>
      <point x="417" y="637" type="curve"/>
      <point x="409" y="637" type="line"/>
      <point x="409" y="557" type="line"/>
      <point x="436" y="557" type="line"/>
      <point x="501" y="342" type="line"/>
      <point x="535" y="332"/>
      <point x="577" y="327"/>
      <point x="626" y="327" type="curve" smooth="yes"/>
      <point x="862" y="327"/>
      <point x="961" y="479"/>
      <point x="961" y="727" type="curve" smooth="yes"/>
      <point x="961" y="781" type="line" smooth="yes"/>
      <point x="961" y="1031"/>
      <point x="846" y="1198"/>
      <point x="556" y="1198" type="curve" smooth="yes"/>
      <point x="247" y="1198"/>
      <point x="96" y="1025"/>
      <point x="96" y="665" type="curve" smooth="yes"/>
      <point x="96" y="439" type="line" smooth="yes"/>
      <point x="96" y="-344"/>
      <point x="493" y="-696"/>
      <point x="1307" y="-696" type="curve" smooth="yes"/>
      <point x="1718" y="-696"/>
      <point x="1986" y="-594"/>
      <point x="2224" y="-416" type="curve" smooth="yes"/>
      <point x="2240" y="-404" type="line" smooth="yes"/>
      <point x="2275" y="-378"/>
      <point x="2300" y="-367"/>
      <point x="2341" y="-367" type="curve" smooth="yes"/>
      <point x="2421" y="-367" type="line"/>
      <point x="2460" y="-112" type="line"/>
      <point x="2172" y="-112" type="line" smooth="yes"/>
      <point x="2068" y="-112"/>
      <point x="2039" y="-78"/>
      <point x="2039" y="27" type="curve" smooth="yes"/>
      <point x="2039" y="160" type="line"/>
      <point x="1712" y="160" type="line"/>
      <point x="1712" y="9" type="line" smooth="yes"/>
      <point x="1712" y="-122"/>
      <point x="1774" y="-234"/>
      <point x="1937" y="-259" type="curve"/>
      <point x="1937" y="-265" type="line"/>
      <point x="1919" y="-269"/>
      <point x="1902" y="-278"/>
      <point x="1874" y="-290" type="curve" smooth="yes"/>
      <point x="1865" y="-294" type="line" smooth="yes"/>
      <point x="1736" y="-351"/>
      <point x="1568" y="-411"/>
    </contour>
    <component base="Ma.tm" xOffset="977"/>
  </outline>
</glyph>
<glyph name="MaMatraI_Fly.tm" format="2">
  <advance width="1759"/>
  <note>
MaMatraI.tm
</note>
  <anchor x="924" y="1234" name="top"/>
  <outline>
    <contour>
      <point x="1624" y="1636" type="line"/>
      <point x="1225" y="1636" type="line" smooth="yes"/>
      <point x="1011" y="1636"/>
      <point x="912" y="1564"/>
      <point x="912" y="1413" type="curve" smooth="yes"/>
      <point x="912" y="1325"/>
      <point x="938" y="1258"/>
      <point x="1014" y="1131" type="curve"/>
      <point x="1337" y="1126" type="line"/>
      <point x="1285" y="1196"/>
      <point x="1256" y="1258"/>
      <point x="1256" y="1299" type="curve" smooth="yes"/>
      <point x="1256" y="1342"/>
      <point x="1279" y="1358"/>
      <point x="1336" y="1358" type="curve" smooth="yes"/>
      <point x="1663" y="1358" type="line"/>
    </contour>
    <component base="Ma.tm"/>
  </outline>
</glyph>
<glyph name="MaMatraIi.tm" format="2">
  <advance width="1759"/>
  <note>
MaMatraIi.tm
</note>
  <anchor x="924" y="1234" name="top"/>
  <outline>
    <contour>
      <point x="1505" y="1944" type="curve" smooth="yes"/>
      <point x="1114" y="1944"/>
      <point x="930" y="1766"/>
      <point x="930" y="1464" type="curve" smooth="yes"/>
      <point x="930" y="1455" type="line" smooth="yes"/>
      <point x="930" y="1326"/>
      <point x="982" y="1187"/>
      <point x="1047" y="1120" type="curve"/>
      <point x="1360" y="1120" type="line"/>
      <point x="1295" y="1194"/>
      <point x="1239" y="1322"/>
      <point x="1239" y="1433" type="curve" smooth="yes"/>
      <point x="1239" y="1443" type="line" smooth="yes"/>
      <point x="1239" y="1612"/>
      <point x="1326" y="1697"/>
      <point x="1484" y="1703" type="curve"/>
      <point x="1484" y="1691" type="line"/>
      <point x="1513" y="1697"/>
      <point x="1546" y="1701"/>
      <point x="1580" y="1701" type="curve" smooth="yes"/>
      <point x="1677" y="1701"/>
      <point x="1710" y="1653"/>
      <point x="1710" y="1569" type="curve" smooth="yes"/>
      <point x="1710" y="1557" type="line" smooth="yes"/>
      <point x="1710" y="1496"/>
      <point x="1690" y="1461"/>
      <point x="1645" y="1461" type="curve" smooth="yes"/>
      <point x="1592" y="1461"/>
      <point x="1572" y="1498"/>
      <point x="1572" y="1565" type="curve" smooth="yes"/>
      <point x="1572" y="1586" type="line" smooth="yes"/>
      <point x="1572" y="1636"/>
      <point x="1579" y="1672"/>
      <point x="1597" y="1705" type="curve"/>
      <point x="1484" y="1706" type="line"/>
      <point x="1484" y="1696" type="line"/>
      <point x="1386" y="1668"/>
      <point x="1329" y="1613"/>
      <point x="1329" y="1504" type="curve" smooth="yes"/>
      <point x="1329" y="1500" type="line" smooth="yes"/>
      <point x="1329" y="1346"/>
      <point x="1425" y="1247"/>
      <point x="1646" y="1247" type="curve" smooth="yes"/>
      <point x="1879" y="1247"/>
      <point x="1991" y="1362"/>
      <point x="1991" y="1566" type="curve" smooth="yes"/>
      <point x="1991" y="1570" type="line" smooth="yes"/>
      <point x="1991" y="1798"/>
      <point x="1841" y="1944"/>
    </contour>
    <component base="Ma.tm"/>
  </outline>
</glyph>
<glyph name="MaMatraIi_SimpleIi.tm" format="2">
  <advance width="1759"/>
  <note>
MaMatraIi.tm
</note>
  <anchor x="924" y="1234" name="top"/>
  <outline>
    <contour>
      <point x="1369" y="1890" type="curve" smooth="yes"/>
      <point x="1065" y="1890"/>
      <point x="950" y="1739"/>
      <point x="950" y="1487" type="curve" smooth="yes"/>
      <point x="950" y="1390" type="line" smooth="yes"/>
      <point x="950" y="1276"/>
      <point x="975" y="1193"/>
      <point x="1020" y="1144" type="curve"/>
      <point x="1332" y="1129" type="line"/>
      <point x="1284" y="1185"/>
      <point x="1260" y="1265"/>
      <point x="1260" y="1364" type="curve" smooth="yes"/>
      <point x="1260" y="1451" type="line"/>
      <point x="1260" y="1531" type="line" smooth="yes"/>
      <point x="1260" y="1614"/>
      <point x="1290" y="1651"/>
      <point x="1362" y="1651" type="curve" smooth="yes"/>
      <point x="1424" y="1651"/>
      <point x="1451" y="1618"/>
      <point x="1451" y="1561" type="curve" smooth="yes"/>
      <point x="1451" y="1536" type="line" smooth="yes"/>
      <point x="1451" y="1478"/>
      <point x="1429" y="1448"/>
      <point x="1367" y="1448" type="curve" smooth="yes"/>
      <point x="1313" y="1448"/>
      <point x="1281" y="1463"/>
      <point x="1256" y="1482" type="curve"/>
      <point x="1250" y="1482" type="line"/>
      <point x="1255" y="1414" type="line"/>
      <point x="1271" y="1414" type="line"/>
      <point x="1333" y="1267" type="line"/>
      <point x="1372" y="1248"/>
      <point x="1428" y="1236"/>
      <point x="1493" y="1236" type="curve" smooth="yes"/>
      <point x="1671" y="1236"/>
      <point x="1756" y="1332"/>
      <point x="1756" y="1530" type="curve" smooth="yes"/>
      <point x="1756" y="1547" type="line" smooth="yes"/>
      <point x="1756" y="1762"/>
      <point x="1643" y="1890"/>
    </contour>
    <component base="Ma.tm"/>
  </outline>
</glyph>
<glyph name="MaMatraU.tm" format="2">
  <advance width="2387"/>
  <note>
MaMatraU.tm
</note>
  <anchor x="1552" y="1234" name="top"/>
  <outline>
    <contour>
      <point x="215" y="1163" type="line"/>
      <point x="160" y="988"/>
      <point x="115" y="738"/>
      <point x="115" y="396" type="curve" smooth="yes"/>
      <point x="115" y="-242"/>
      <point x="382" y="-552"/>
      <point x="945" y="-552" type="curve" smooth="yes"/>
      <point x="949" y="-552" type="line" smooth="yes"/>
      <point x="1445" y="-552"/>
      <point x="1680" y="-326"/>
      <point x="1692" y="70" type="curve" smooth="yes"/>
      <point x="1695" y="170" type="line"/>
      <point x="1358" y="174" type="line"/>
      <point x="1355" y="80" type="line" smooth="yes"/>
      <point x="1348" y="-142"/>
      <point x="1234" y="-267"/>
      <point x="948" y="-267" type="curve" smooth="yes"/>
      <point x="945" y="-267" type="line" smooth="yes"/>
      <point x="589" y="-267"/>
      <point x="454" y="-46"/>
      <point x="454" y="385" type="curve" smooth="yes"/>
      <point x="454" y="716"/>
      <point x="492" y="947"/>
      <point x="559" y="1163" type="curve"/>
    </contour>
    <component base="Ma.tm" xOffset="628"/>
  </outline>
</glyph>
<glyph name="MaMatraUu.tm" format="2">
  <advance width="2735"/>
  <note>
MaMatraUu.tm
</note>
  <anchor x="1900" y="1234" name="top"/>
  <outline>
    <contour>
      <point x="556" y="1198" type="curve" smooth="yes"/>
      <point x="247" y="1198"/>
      <point x="96" y="1025"/>
      <point x="96" y="665" type="curve" smooth="yes"/>
      <point x="96" y="439" type="line" smooth="yes"/>
      <point x="96" y="-289"/>
      <point x="443" y="-616"/>
      <point x="1125" y="-616" type="curve" smooth="yes"/>
      <point x="1132" y="-616" type="line" smooth="yes"/>
      <point x="1735" y="-616"/>
      <point x="2023" y="-371"/>
      <point x="2040" y="65" type="curve" smooth="yes"/>
      <point x="2044" y="170" type="line"/>
      <point x="1706" y="174" type="line"/>
      <point x="1702" y="75" type="line" smooth="yes"/>
      <point x="1691" y="-186"/>
      <point x="1525" y="-331"/>
      <point x="1133" y="-331" type="curve" smooth="yes"/>
      <point x="1123" y="-331" type="line" smooth="yes"/>
      <point x="635" y="-331"/>
      <point x="426" y="-82"/>
      <point x="426" y="459" type="curve" smooth="yes"/>
      <point x="426" y="494"/>
      <point x="426" y="525"/>
      <point x="426" y="557" type="curve"/>
      <point x="426" y="709" type="line"/>
      <point x="426" y="853"/>
      <point x="456" y="923"/>
      <point x="543" y="923" type="curve" smooth="yes"/>
      <point x="610" y="923"/>
      <point x="636" y="875"/>
      <point x="636" y="788" type="curve" smooth="yes"/>
      <point x="636" y="726" type="line" smooth="yes"/>
      <point x="636" y="630"/>
      <point x="608" y="585"/>
      <point x="527" y="585" type="curve" smooth="yes"/>
      <point x="477" y="585"/>
      <point x="434" y="610"/>
      <point x="417" y="637" type="curve"/>
      <point x="409" y="637" type="line"/>
      <point x="409" y="557" type="line"/>
      <point x="436" y="557" type="line"/>
      <point x="501" y="342" type="line"/>
      <point x="535" y="332"/>
      <point x="577" y="327"/>
      <point x="626" y="327" type="curve" smooth="yes"/>
      <point x="862" y="327"/>
      <point x="961" y="479"/>
      <point x="961" y="727" type="curve" smooth="yes"/>
      <point x="961" y="781" type="line" smooth="yes"/>
      <point x="961" y="1031"/>
      <point x="846" y="1198"/>
    </contour>
    <component base="Ma.tm" xOffset="976"/>
  </outline>
</glyph>
<glyph name="MatraAiComponent_Nonexporting" format="2">
  <advance width="1379"/>
  <outline>
    <contour>
      <point x="636" y="1603" type="curve" smooth="yes"/>
      <point x="254" y="1603"/>
      <point x="82" y="1446"/>
      <point x="82" y="1196" type="curve" smooth="yes"/>
      <point x="82" y="1171" type="line" smooth="yes"/>
      <point x="82" y="950"/>
      <point x="208" y="819"/>
      <point x="462" y="819" type="curve" smooth="yes"/>
      <point x="698" y="819"/>
      <point x="802" y="938"/>
      <point x="802" y="1122" type="curve" smooth="yes"/>
      <point x="802" y="1137" type="line" smooth="yes"/>
      <point x="802" y="1260"/>
      <point x="744" y="1331"/>
      <point x="641" y="1352" type="curve"/>
      <point x="641" y="1364" type="line"/>
      <point x="516" y="1362" type="line"/>
      <point x="535" y="1329"/>
      <point x="544" y="1280"/>
      <point x="544" y="1225" type="curve" smooth="yes"/>
      <point x="544" y="1162" type="line" smooth="yes"/>
      <point x="544" y="1089"/>
      <point x="521" y="1052"/>
      <point x="465" y="1052" type="curve" smooth="yes"/>
      <point x="408" y="1052"/>
      <point x="382" y="1090"/>
      <point x="382" y="1158" type="curve" smooth="yes"/>
      <point x="382" y="1210" type="line" smooth="yes"/>
      <point x="382" y="1302"/>
      <point x="424" y="1355"/>
      <point x="541" y="1355" type="curve" smooth="yes"/>
      <point x="576" y="1355"/>
      <point x="609" y="1354"/>
      <point x="641" y="1348" type="curve"/>
      <point x="641" y="1360" type="line"/>
      <point x="824" y="1355"/>
      <point x="910" y="1281"/>
      <point x="910" y="1096" type="curve" smooth="yes"/>
      <point x="910" y="1071" type="line" smooth="yes"/>
      <point x="910" y="907"/>
      <point x="842" y="807"/>
      <point x="627" y="763" type="curve" smooth="yes"/>
      <point x="460" y="729" type="line" smooth="yes"/>
      <point x="176" y="671"/>
      <point x="63" y="579"/>
      <point x="63" y="374" type="curve" smooth="yes"/>
      <point x="63" y="358" type="line" smooth="yes"/>
      <point x="63" y="105"/>
      <point x="243" y="-30"/>
      <point x="643" y="-30" type="curve" smooth="yes"/>
      <point x="908" y="-30"/>
      <point x="1153" y="31"/>
      <point x="1360" y="118" type="curve"/>
      <point x="1360" y="411" type="line"/>
      <point x="1143" y="317"/>
      <point x="894" y="249"/>
      <point x="644" y="249" type="curve" smooth="yes"/>
      <point x="463" y="249"/>
      <point x="390" y="290"/>
      <point x="390" y="359" type="curve" smooth="yes"/>
      <point x="390" y="368" type="line" smooth="yes"/>
      <point x="390" y="433"/>
      <point x="440" y="456"/>
      <point x="566" y="485" type="curve" smooth="yes"/>
      <point x="740" y="525" type="line" smooth="yes"/>
      <point x="1121" y="613"/>
      <point x="1230" y="784"/>
      <point x="1230" y="1085" type="curve" smooth="yes"/>
      <point x="1230" y="1098" type="line" smooth="yes"/>
      <point x="1230" y="1418"/>
      <point x="1051" y="1603"/>
    </contour>
  </outline>
</glyph>
<glyph name="MatraE_Simple.tm" format="2">
  <advance width="1561"/>
  <note>
MatraE.tm
</note>
  <outline>
    <contour>
      <point x="786" y="1372" type="curve" smooth="yes"/>
      <point x="335" y="1372"/>
      <point x="93" y="1124"/>
      <point x="93" y="689" type="curve" smooth="yes"/>
      <point x="93" y="449" type="line" smooth="yes"/>
      <point x="93" y="167"/>
      <point x="225" y="-26"/>
      <point x="539" y="-26" type="curve" smooth="yes"/>
      <point x="840" y="-26"/>
      <point x="955" y="137"/>
      <point x="955" y="378" type="curve" smooth="yes"/>
      <point x="955" y="432" type="line" smooth="yes"/>
      <point x="955" y="658"/>
      <point x="865" y="778"/>
      <point x="672" y="778" type="curve" smooth="yes"/>
      <point x="512" y="778"/>
      <point x="428" y="678"/>
      <point x="415" y="557" type="curve"/>
      <point x="400" y="557" type="line"/>
      <point x="409" y="434" type="line"/>
      <point x="423" y="476"/>
      <point x="468" y="517"/>
      <point x="530" y="517" type="curve" smooth="yes"/>
      <point x="605" y="517"/>
      <point x="634" y="477"/>
      <point x="634" y="397" type="curve" smooth="yes"/>
      <point x="634" y="358" type="line" smooth="yes"/>
      <point x="634" y="283"/>
      <point x="608" y="236"/>
      <point x="534" y="236" type="curve" smooth="yes"/>
      <point x="449" y="236"/>
      <point x="418" y="286"/>
      <point x="418" y="377" type="curve"/>
      <point x="418" y="557" type="line"/>
      <point x="407" y="557" type="line"/>
      <point x="407" y="606"/>
      <point x="407" y="657"/>
      <point x="407" y="706" type="curve"/>
      <point x="407" y="947"/>
      <point x="534" y="1083"/>
      <point x="776" y="1083" type="curve" smooth="yes"/>
      <point x="1025" y="1083"/>
      <point x="1124" y="959"/>
      <point x="1124" y="702" type="curve" smooth="yes"/>
      <point x="1124" y="0" type="line"/>
      <point x="1451" y="0" type="line"/>
      <point x="1451" y="698" type="line" smooth="yes"/>
      <point x="1451" y="1131"/>
      <point x="1263" y="1372"/>
    </contour>
  </outline>
</glyph>
